<?xml version="1.0" encoding="utf-8" standalone="no"?>
<!DOCTYPE svg PUBLIC "-//W3C//DTD SVG 1.1//EN"
  "http://www.w3.org/Graphics/SVG/1.1/DTD/svg11.dtd">
<svg height="544.216875pt" version="1.1" viewBox="0 0 878.225593 544.216875" width="878.225593pt" xmlns="http://www.w3.org/2000/svg" xmlns:xlink="http://www.w3.org/1999/xlink">
 <metadata>
  <rdf:RDF xmlns:cc="http://creativecommons.org/ns#" xmlns:dc="http://purl.org/dc/elements/1.1/" xmlns:rdf="http://www.w3.org/1999/02/22-rdf-syntax-ns#">
   <cc:Work>
    <dc:type rdf:resource="http://purl.org/dc/dcmitype/StillImage"/>
    <dc:date>2021-04-30T23:03:49.741680</dc:date>
    <dc:format>image/svg+xml</dc:format>
    <dc:creator>
     <cc:Agent>
      <dc:title>Matplotlib v3.4.1, https://matplotlib.org/</dc:title>
     </cc:Agent>
    </dc:creator>
   </cc:Work>
  </rdf:RDF>
 </metadata>
 <defs>
  <style type="text/css">*{stroke-linecap:butt;stroke-linejoin:round;}</style>
 </defs>
 <g id="figure_1">
  <g id="patch_1">
   <path d="M 0 544.216875 
L 878.225593 544.216875 
L 878.225593 0 
L 0 0 
z
" style="fill:none;"/>
  </g>
  <g id="axes_1">
   <g id="patch_2">
    <path d="M 70.672615 441.677831 
L 544.972615 441.677831 
L 544.972615 88.337831 
L 70.672615 88.337831 
z
" style="fill:#ffffff;"/>
   </g>
   <g id="matplotlib.axis_1">
    <g id="xtick_1">
     <g id="line2d_1">
      <defs>
       <path d="M 0 0 
L 0 12 
" id="mf0338cabd4" style="stroke:#000000;stroke-width:2.5;"/>
      </defs>
      <g>
       <use style="stroke:#000000;stroke-width:2.5;" x="284.926709" xlink:href="#mf0338cabd4" y="441.677831"/>
      </g>
     </g>
     <g id="text_1">
      <!-- $\mathdefault{10^{8}}$ -->
      <g transform="translate(271.119159 472.398524)scale(0.22 -0.22)">
       <defs>
        <path d="M 1702 4083 
C 1702 4217 1696 4224 1606 4224 
C 1357 3927 979 3833 621 3820 
C 602 3820 570 3820 563 3808 
C 557 3795 557 3782 557 3648 
C 755 3648 1088 3686 1344 3839 
L 1344 467 
C 1344 243 1331 166 781 166 
L 589 166 
L 589 0 
C 896 6 1216 12 1523 12 
C 1830 12 2150 6 2458 0 
L 2458 166 
L 2266 166 
C 1715 166 1702 236 1702 467 
L 1702 4083 
z
" id="CMR17-31" transform="scale(0.015625)"/>
        <path d="M 2688 2038 
C 2688 2430 2682 3099 2413 3613 
C 2176 4063 1798 4224 1466 4224 
C 1158 4224 768 4082 525 3620 
C 269 3137 243 2539 243 2038 
C 243 1671 250 1112 448 623 
C 723 -39 1216 -128 1466 -128 
C 1760 -128 2208 -7 2470 604 
C 2662 1048 2688 1568 2688 2038 
z
M 1466 -26 
C 1056 -26 813 328 723 816 
C 653 1196 653 1749 653 2109 
C 653 2604 653 3015 736 3407 
C 858 3954 1216 4121 1466 4121 
C 1728 4121 2067 3947 2189 3420 
C 2272 3054 2278 2623 2278 2109 
C 2278 1691 2278 1176 2202 797 
C 2067 96 1690 -26 1466 -26 
z
" id="CMR17-30" transform="scale(0.015625)"/>
        <path d="M 1741 2289 
C 2144 2494 2554 2803 2554 3298 
C 2554 3884 1990 4224 1472 4224 
C 890 4224 378 3800 378 3215 
C 378 3054 416 2777 666 2533 
C 730 2469 998 2276 1171 2154 
C 883 2006 211 1652 211 945 
C 211 282 838 -128 1459 -128 
C 2144 -128 2720 366 2720 1022 
C 2720 1607 2330 1877 2074 2051 
L 1741 2289 
z
M 902 2855 
C 851 2887 595 3086 595 3388 
C 595 3781 998 4076 1459 4076 
C 1965 4076 2336 3716 2336 3298 
C 2336 2700 1670 2359 1638 2359 
C 1632 2359 1626 2359 1574 2398 
L 902 2855 
z
M 2080 1536 
C 2176 1466 2483 1253 2483 861 
C 2483 385 2010 25 1472 25 
C 890 25 448 443 448 951 
C 448 1459 838 1884 1280 2083 
L 2080 1536 
z
" id="CMR17-38" transform="scale(0.015625)"/>
       </defs>
       <use transform="scale(0.996264)" xlink:href="#CMR17-31"/>
       <use transform="translate(45.690477 0)scale(0.996264)" xlink:href="#CMR17-30"/>
       <use transform="translate(91.380954 36.153639)scale(0.697382)" xlink:href="#CMR17-38"/>
      </g>
     </g>
    </g>
    <g id="xtick_2">
     <g id="line2d_2">
      <g>
       <use style="stroke:#000000;stroke-width:2.5;" x="544.972615" xlink:href="#mf0338cabd4" y="441.677831"/>
      </g>
     </g>
     <g id="text_2">
      <!-- $\mathdefault{10^{9}}$ -->
      <g transform="translate(531.165064 472.398524)scale(0.22 -0.22)">
       <defs>
        <path d="M 2253 1871 
C 2253 448 1670 25 1190 25 
C 1043 25 685 43 538 281 
C 704 256 826 345 826 505 
C 826 678 685 736 595 736 
C 538 736 365 710 365 492 
C 365 68 742 -128 1203 -128 
C 1939 -128 2688 665 2688 2090 
C 2688 3857 1971 4224 1485 4224 
C 851 4224 243 3664 243 2800 
C 243 2000 762 1408 1414 1408 
C 1952 1408 2189 1910 2253 2122 
L 2253 1871 
z
M 1427 1510 
C 1254 1510 1011 1542 813 1929 
C 678 2181 678 2477 678 2793 
C 678 3174 678 3438 858 3722 
C 947 3857 1114 4076 1485 4076 
C 2240 4076 2240 2909 2240 2651 
C 2240 2193 2035 1510 1427 1510 
z
" id="CMR17-39" transform="scale(0.015625)"/>
       </defs>
       <use transform="scale(0.996264)" xlink:href="#CMR17-31"/>
       <use transform="translate(45.690477 0)scale(0.996264)" xlink:href="#CMR17-30"/>
       <use transform="translate(91.380954 36.153639)scale(0.697382)" xlink:href="#CMR17-39"/>
      </g>
     </g>
    </g>
    <g id="xtick_3">
     <g id="line2d_3">
      <defs>
       <path d="M 0 0 
L 0 8 
" id="m29ad6e288d" style="stroke:#000000;stroke-width:2;"/>
      </defs>
      <g>
       <use style="stroke:#000000;stroke-width:2;" x="103.162422" xlink:href="#m29ad6e288d" y="441.677831"/>
      </g>
     </g>
    </g>
    <g id="xtick_4">
     <g id="line2d_4">
      <g>
       <use style="stroke:#000000;stroke-width:2;" x="148.954233" xlink:href="#m29ad6e288d" y="441.677831"/>
      </g>
     </g>
    </g>
    <g id="xtick_5">
     <g id="line2d_5">
      <g>
       <use style="stroke:#000000;stroke-width:2;" x="181.44404" xlink:href="#m29ad6e288d" y="441.677831"/>
      </g>
     </g>
    </g>
    <g id="xtick_6">
     <g id="line2d_6">
      <g>
       <use style="stroke:#000000;stroke-width:2;" x="206.645092" xlink:href="#m29ad6e288d" y="441.677831"/>
      </g>
     </g>
    </g>
    <g id="xtick_7">
     <g id="line2d_7">
      <g>
       <use style="stroke:#000000;stroke-width:2;" x="227.23585" xlink:href="#m29ad6e288d" y="441.677831"/>
      </g>
     </g>
    </g>
    <g id="xtick_8">
     <g id="line2d_8">
      <g>
       <use style="stroke:#000000;stroke-width:2;" x="244.645089" xlink:href="#m29ad6e288d" y="441.677831"/>
      </g>
     </g>
    </g>
    <g id="xtick_9">
     <g id="line2d_9">
      <g>
       <use style="stroke:#000000;stroke-width:2;" x="259.725657" xlink:href="#m29ad6e288d" y="441.677831"/>
      </g>
     </g>
    </g>
    <g id="xtick_10">
     <g id="line2d_10">
      <g>
       <use style="stroke:#000000;stroke-width:2;" x="273.027661" xlink:href="#m29ad6e288d" y="441.677831"/>
      </g>
     </g>
    </g>
    <g id="xtick_11">
     <g id="line2d_11">
      <g>
       <use style="stroke:#000000;stroke-width:2;" x="363.208327" xlink:href="#m29ad6e288d" y="441.677831"/>
      </g>
     </g>
    </g>
    <g id="xtick_12">
     <g id="line2d_12">
      <g>
       <use style="stroke:#000000;stroke-width:2;" x="409.000138" xlink:href="#m29ad6e288d" y="441.677831"/>
      </g>
     </g>
    </g>
    <g id="xtick_13">
     <g id="line2d_13">
      <g>
       <use style="stroke:#000000;stroke-width:2;" x="441.489945" xlink:href="#m29ad6e288d" y="441.677831"/>
      </g>
     </g>
    </g>
    <g id="xtick_14">
     <g id="line2d_14">
      <g>
       <use style="stroke:#000000;stroke-width:2;" x="466.690997" xlink:href="#m29ad6e288d" y="441.677831"/>
      </g>
     </g>
    </g>
    <g id="xtick_15">
     <g id="line2d_15">
      <g>
       <use style="stroke:#000000;stroke-width:2;" x="487.281756" xlink:href="#m29ad6e288d" y="441.677831"/>
      </g>
     </g>
    </g>
    <g id="xtick_16">
     <g id="line2d_16">
      <g>
       <use style="stroke:#000000;stroke-width:2;" x="504.690994" xlink:href="#m29ad6e288d" y="441.677831"/>
      </g>
     </g>
    </g>
    <g id="xtick_17">
     <g id="line2d_17">
      <g>
       <use style="stroke:#000000;stroke-width:2;" x="519.771563" xlink:href="#m29ad6e288d" y="441.677831"/>
      </g>
     </g>
    </g>
    <g id="xtick_18">
     <g id="line2d_18">
      <g>
       <use style="stroke:#000000;stroke-width:2;" x="533.073567" xlink:href="#m29ad6e288d" y="441.677831"/>
      </g>
     </g>
    </g>
    <g id="text_3">
     <!-- Model Parameters -->
     <g transform="translate(222.644041 497.266117)scale(0.24 -0.24)">
      <defs>
       <path d="M 3194 2373 
L 2886 1476 
C 2835 1311 2662 795 2624 592 
L 2618 592 
C 2598 719 2560 853 2458 1177 
C 2400 1368 2336 1565 2272 1743 
L 1325 4416 
L 576 4416 
L 576 0 
L 1075 0 
L 1075 3899 
L 1082 3899 
C 1082 3893 1139 3613 1530 2500 
L 2374 102 
L 2848 102 
L 3610 2233 
C 3661 2379 3821 2843 3891 3066 
C 3955 3257 4115 3728 4154 3912 
L 4160 3912 
L 4160 0 
L 4666 0 
L 4666 4416 
L 3923 4416 
L 3194 2373 
z
" id="CMSS17-4d" transform="scale(0.015625)"/>
       <path d="M 2829 1356 
C 2829 2175 2221 2816 1504 2816 
C 768 2816 173 2156 173 1356 
C 173 544 787 -64 1498 -64 
C 2227 -64 2829 563 2829 1356 
z
M 1504 339 
C 1050 339 659 710 659 1407 
C 659 2150 1114 2425 1498 2425 
C 1914 2425 2342 2124 2342 1407 
C 2342 684 1926 339 1504 339 
z
" id="CMSS17-6f" transform="scale(0.015625)"/>
       <path d="M 2611 4416 
L 2138 4416 
L 2138 2495 
C 1939 2662 1613 2816 1254 2816 
C 672 2816 211 2179 211 1375 
C 211 572 666 -64 1235 -64 
C 1677 -64 1971 172 2125 307 
L 2125 -13 
L 2611 -13 
L 2611 4416 
z
M 2125 851 
C 2125 760 2125 663 1926 488 
C 1798 378 1645 326 1498 326 
C 1152 326 698 585 698 1369 
C 698 2185 1210 2425 1562 2425 
C 1798 2425 1990 2308 2125 2114 
L 2125 851 
z
" id="CMSS17-64" transform="scale(0.015625)"/>
       <path d="M 2502 1375 
C 2502 1587 2490 2001 2285 2347 
C 2061 2713 1696 2816 1421 2816 
C 755 2816 192 2184 192 1363 
C 192 579 774 -64 1510 -64 
C 1798 -64 2150 19 2470 249 
C 2470 275 2458 414 2451 421 
C 2451 433 2432 629 2432 655 
C 2125 408 1773 326 1517 326 
C 1107 326 666 667 646 1375 
L 2502 1375 
z
M 698 1728 
C 781 2086 1062 2425 1421 2425 
C 1517 2425 1965 2412 2080 1728 
L 698 1728 
z
" id="CMSS17-65" transform="scale(0.015625)"/>
       <path d="M 947 4416 
L 474 4416 
L 474 0 
L 947 0 
L 947 4416 
z
" id="CMSS17-6c" transform="scale(0.015625)"/>
       <path d="M 2106 1856 
C 2874 1856 3501 2447 3501 3139 
C 3501 3818 2899 4416 2067 4416 
L 570 4416 
L 570 0 
L 1107 0 
L 1107 1856 
L 2106 1856 
z
M 1926 4057 
C 2669 4057 2995 3598 2995 3139 
C 2995 2711 2694 2227 1926 2227 
L 1094 2227 
L 1094 4057 
L 1926 4057 
z
" id="CMSS17-50" transform="scale(0.015625)"/>
       <path d="M 2406 1789 
C 2406 2399 1978 2816 1402 2816 
C 1120 2816 813 2764 461 2559 
L 499 2133 
C 659 2250 934 2438 1395 2438 
C 1722 2438 1920 2185 1920 1782 
L 1920 1536 
C 896 1504 256 1209 256 711 
C 256 452 416 -64 947 -64 
C 1043 -64 1562 -52 1933 224 
L 1933 -13 
L 2406 -13 
L 2406 1789 
z
M 1920 824 
C 1920 711 1920 559 1728 446 
C 1562 339 1350 326 1261 326 
C 941 326 723 503 723 723 
C 723 1165 1722 1209 1920 1216 
L 1920 824 
z
" id="CMSS17-61" transform="scale(0.015625)"/>
       <path d="M 954 1369 
C 954 1974 1395 2379 1958 2392 
L 1958 2816 
C 1549 2809 1165 2604 934 2270 
L 934 2783 
L 480 2783 
L 480 0 
L 954 0 
L 954 1369 
z
" id="CMSS17-72" transform="scale(0.015625)"/>
       <path d="M 4288 1878 
C 4288 2309 4179 2816 3462 2816 
C 2982 2816 2694 2515 2566 2328 
C 2451 2668 2182 2816 1798 2816 
C 1363 2816 1088 2566 941 2386 
L 941 2783 
L 474 2783 
L 474 0 
L 960 0 
L 960 1556 
C 960 1936 1101 2425 1555 2425 
C 2138 2425 2138 2013 2138 1826 
L 2138 0 
L 2624 0 
L 2624 1556 
C 2624 1936 2765 2425 3219 2425 
C 3802 2425 3802 2013 3802 1826 
L 3802 0 
L 4288 0 
L 4288 1878 
z
" id="CMSS17-6d" transform="scale(0.015625)"/>
       <path d="M 1069 2380 
L 1901 2380 
L 1901 2752 
L 1069 2752 
L 1069 3520 
L 614 3520 
L 614 2752 
L 109 2752 
L 109 2380 
L 602 2380 
L 602 751 
C 602 384 685 -64 1107 -64 
C 1427 -64 1722 25 2003 172 
L 1901 551 
C 1747 416 1562 339 1363 339 
C 1082 339 1069 699 1069 860 
L 1069 2380 
z
" id="CMSS17-74" transform="scale(0.015625)"/>
       <path d="M 2061 2623 
C 1683 2803 1389 2816 1197 2816 
C 742 2816 198 2655 198 2009 
C 198 1363 902 1222 1094 1183 
C 1389 1126 1715 1062 1715 742 
C 1715 339 1254 339 1171 339 
C 915 339 563 409 243 639 
L 166 211 
C 531 0 883 -64 1178 -64 
C 1965 -64 2163 416 2163 780 
C 2163 1094 1984 1305 1862 1401 
C 1651 1567 1574 1587 1050 1695 
C 960 1708 646 1779 646 2067 
C 646 2431 1050 2431 1139 2431 
C 1555 2431 1811 2303 1984 2207 
L 2061 2623 
z
" id="CMSS17-73" transform="scale(0.015625)"/>
      </defs>
      <use transform="scale(0.996264)" xlink:href="#CMSS17-4d"/>
      <use transform="translate(81.67603 0)scale(0.996264)" xlink:href="#CMSS17-6f"/>
      <use transform="translate(131.122092 0)scale(0.996264)" xlink:href="#CMSS17-64"/>
      <use transform="translate(179.327035 0)scale(0.996264)" xlink:href="#CMSS17-65"/>
      <use transform="translate(220.965857 0)scale(0.996264)" xlink:href="#CMSS17-6c"/>
      <use transform="translate(274.375693 0)scale(0.996264)" xlink:href="#CMSS17-50"/>
      <use transform="translate(331.508826 0)scale(0.996264)" xlink:href="#CMSS17-61"/>
      <use transform="translate(373.828292 0)scale(0.996264)" xlink:href="#CMSS17-72"/>
      <use transform="translate(405.738065 0)scale(0.996264)" xlink:href="#CMSS17-61"/>
      <use transform="translate(450.659985 0)scale(0.996264)" xlink:href="#CMSS17-6d"/>
      <use transform="translate(524.88924 0)scale(0.996264)" xlink:href="#CMSS17-65"/>
      <use transform="translate(566.528062 0)scale(0.996264)" xlink:href="#CMSS17-74"/>
      <use transform="translate(600.359629 0)scale(0.996264)" xlink:href="#CMSS17-65"/>
      <use transform="translate(641.998451 0)scale(0.996264)" xlink:href="#CMSS17-72"/>
      <use transform="translate(673.908223 0)scale(0.996264)" xlink:href="#CMSS17-73"/>
     </g>
    </g>
   </g>
   <g id="matplotlib.axis_2">
    <g id="ytick_1">
     <g id="line2d_19">
      <defs>
       <path d="M 0 0 
L -12 0 
" id="mce1ee6d8b4" style="stroke:#000000;stroke-width:2.5;"/>
      </defs>
      <g>
       <use style="stroke:#000000;stroke-width:2.5;" x="70.672615" xlink:href="#mce1ee6d8b4" y="437.361645"/>
      </g>
     </g>
     <g id="text_4">
      <!-- $\mathdefault{20}$ -->
      <g transform="translate(35.068805 444.971992)scale(0.22 -0.22)">
       <defs>
        <path d="M 2669 990 
L 2554 990 
C 2490 537 2438 460 2413 422 
C 2381 371 1920 371 1830 371 
L 602 371 
C 832 620 1280 1073 1824 1596 
C 2214 1966 2669 2400 2669 3033 
C 2669 3788 2067 4224 1395 4224 
C 691 4224 262 3603 262 3027 
C 262 2777 448 2745 525 2745 
C 589 2745 781 2783 781 3007 
C 781 3206 614 3264 525 3264 
C 486 3264 448 3257 422 3244 
C 544 3788 915 4057 1306 4057 
C 1862 4057 2227 3616 2227 3033 
C 2227 2477 1901 1998 1536 1583 
L 262 147 
L 262 0 
L 2515 0 
L 2669 990 
z
" id="CMR17-32" transform="scale(0.015625)"/>
       </defs>
       <use transform="scale(0.996264)" xlink:href="#CMR17-32"/>
       <use transform="translate(45.690477 0)scale(0.996264)" xlink:href="#CMR17-30"/>
      </g>
     </g>
    </g>
    <g id="ytick_2">
     <g id="line2d_20">
      <g>
       <use style="stroke:#000000;stroke-width:2.5;" x="70.672615" xlink:href="#mce1ee6d8b4" y="378.638029"/>
      </g>
     </g>
     <g id="text_5">
      <!-- $\mathdefault{30}$ -->
      <g transform="translate(35.068805 386.248375)scale(0.22 -0.22)">
       <defs>
        <path d="M 1414 2176 
C 1984 2176 2234 1673 2234 1094 
C 2234 322 1824 25 1453 25 
C 1114 25 563 193 390 691 
C 422 678 454 678 486 678 
C 640 678 755 780 755 947 
C 755 1132 614 1216 486 1216 
C 378 1216 211 1164 211 927 
C 211 335 787 -128 1466 -128 
C 2176 -128 2720 432 2720 1087 
C 2720 1718 2208 2176 1600 2246 
C 2086 2347 2554 2776 2554 3353 
C 2554 3856 2048 4224 1472 4224 
C 890 4224 378 3862 378 3347 
C 378 3123 544 3084 627 3084 
C 762 3084 877 3167 877 3334 
C 877 3500 762 3584 627 3584 
C 602 3584 570 3584 544 3571 
C 730 3999 1235 4076 1459 4076 
C 1683 4076 2106 3966 2106 3347 
C 2106 3167 2080 2851 1862 2574 
C 1670 2329 1453 2316 1242 2297 
C 1210 2297 1062 2284 1037 2284 
C 992 2278 966 2272 966 2227 
C 966 2182 973 2176 1101 2176 
L 1414 2176 
z
" id="CMR17-33" transform="scale(0.015625)"/>
       </defs>
       <use transform="scale(0.996264)" xlink:href="#CMR17-33"/>
       <use transform="translate(45.690477 0)scale(0.996264)" xlink:href="#CMR17-30"/>
      </g>
     </g>
    </g>
    <g id="ytick_3">
     <g id="line2d_21">
      <g>
       <use style="stroke:#000000;stroke-width:2.5;" x="70.672615" xlink:href="#mce1ee6d8b4" y="319.914412"/>
      </g>
     </g>
     <g id="text_6">
      <!-- $\mathdefault{40}$ -->
      <g transform="translate(35.068805 327.524759)scale(0.22 -0.22)">
       <defs>
        <path d="M 2150 4147 
C 2150 4281 2144 4288 2029 4288 
L 128 1254 
L 128 1088 
L 1779 1088 
L 1779 460 
C 1779 230 1766 166 1318 166 
L 1197 166 
L 1197 0 
C 1402 12 1747 12 1965 12 
C 2182 12 2528 12 2733 0 
L 2733 166 
L 2611 166 
C 2163 166 2150 230 2150 460 
L 2150 1088 
L 2803 1088 
L 2803 1254 
L 2150 1254 
L 2150 4147 
z
M 1798 3723 
L 1798 1254 
L 256 1254 
L 1798 3723 
z
" id="CMR17-34" transform="scale(0.015625)"/>
       </defs>
       <use transform="scale(0.996264)" xlink:href="#CMR17-34"/>
       <use transform="translate(45.690477 0)scale(0.996264)" xlink:href="#CMR17-30"/>
      </g>
     </g>
    </g>
    <g id="ytick_4">
     <g id="line2d_22">
      <g>
       <use style="stroke:#000000;stroke-width:2.5;" x="70.672615" xlink:href="#mce1ee6d8b4" y="261.190796"/>
      </g>
     </g>
     <g id="text_7">
      <!-- $\mathdefault{50}$ -->
      <g transform="translate(35.068805 268.801142)scale(0.22 -0.22)">
       <defs>
        <path d="M 730 3750 
C 794 3724 1056 3641 1325 3641 
C 1920 3641 2246 3961 2432 4140 
C 2432 4191 2432 4224 2394 4224 
C 2387 4224 2374 4224 2323 4198 
C 2099 4102 1837 4032 1517 4032 
C 1325 4032 1037 4055 723 4191 
C 653 4224 640 4224 634 4224 
C 602 4224 595 4217 595 4090 
L 595 2231 
C 595 2113 595 2080 659 2080 
C 691 2080 704 2093 736 2139 
C 941 2435 1222 2560 1542 2560 
C 1766 2560 2246 2415 2246 1293 
C 2246 1087 2246 716 2054 422 
C 1894 159 1645 25 1370 25 
C 947 25 518 319 403 812 
C 429 806 480 793 506 793 
C 589 793 749 838 749 1036 
C 749 1209 627 1280 506 1280 
C 358 1280 262 1190 262 1011 
C 262 454 704 -128 1382 -128 
C 2042 -128 2669 441 2669 1267 
C 2669 2054 2170 2662 1549 2662 
C 1222 2662 947 2540 730 2304 
L 730 3750 
z
" id="CMR17-35" transform="scale(0.015625)"/>
       </defs>
       <use transform="scale(0.996264)" xlink:href="#CMR17-35"/>
       <use transform="translate(45.690477 0)scale(0.996264)" xlink:href="#CMR17-30"/>
      </g>
     </g>
    </g>
    <g id="ytick_5">
     <g id="line2d_23">
      <g>
       <use style="stroke:#000000;stroke-width:2.5;" x="70.672615" xlink:href="#mce1ee6d8b4" y="202.467179"/>
      </g>
     </g>
     <g id="text_8">
      <!-- $\mathdefault{60}$ -->
      <g transform="translate(35.068805 210.077526)scale(0.22 -0.22)">
       <defs>
        <path d="M 678 2198 
C 678 3712 1395 4076 1811 4076 
C 1946 4076 2272 4049 2400 3782 
C 2298 3782 2106 3782 2106 3558 
C 2106 3385 2246 3328 2336 3328 
C 2394 3328 2566 3353 2566 3571 
C 2566 3987 2246 4224 1805 4224 
C 1043 4224 243 3411 243 2011 
C 243 257 966 -128 1478 -128 
C 2099 -128 2688 431 2688 1295 
C 2688 2101 2170 2688 1517 2688 
C 1126 2688 838 2430 678 1979 
L 678 2198 
z
M 1478 25 
C 691 25 691 1212 691 1450 
C 691 1914 909 2585 1504 2585 
C 1613 2585 1926 2585 2138 2140 
C 2253 1889 2253 1624 2253 1302 
C 2253 954 2253 696 2118 438 
C 1978 173 1773 25 1478 25 
z
" id="CMR17-36" transform="scale(0.015625)"/>
       </defs>
       <use transform="scale(0.996264)" xlink:href="#CMR17-36"/>
       <use transform="translate(45.690477 0)scale(0.996264)" xlink:href="#CMR17-30"/>
      </g>
     </g>
    </g>
    <g id="ytick_6">
     <g id="line2d_24">
      <g>
       <use style="stroke:#000000;stroke-width:2.5;" x="70.672615" xlink:href="#mce1ee6d8b4" y="143.743563"/>
      </g>
     </g>
     <g id="text_9">
      <!-- $\mathdefault{70}$ -->
      <g transform="translate(35.068805 151.35391)scale(0.22 -0.22)">
       <defs>
        <path d="M 2886 3955 
L 2886 4096 
L 1382 4096 
C 634 4096 621 4166 595 4288 
L 480 4288 
L 294 3104 
L 410 3104 
C 429 3226 474 3552 550 3673 
C 589 3724 1062 3724 1171 3724 
L 2579 3724 
L 1869 2670 
C 1395 1961 1069 1003 1069 166 
C 1069 89 1069 -128 1299 -128 
C 1530 -128 1530 89 1530 172 
L 1530 466 
C 1530 1514 1709 2204 2003 2644 
L 2886 3955 
z
" id="CMR17-37" transform="scale(0.015625)"/>
       </defs>
       <use transform="scale(0.996264)" xlink:href="#CMR17-37"/>
       <use transform="translate(45.690477 0)scale(0.996264)" xlink:href="#CMR17-30"/>
      </g>
     </g>
    </g>
    <g id="text_10">
     <!-- ImageNet-C mCE (\%) -->
     <g transform="translate(25.111226 369.337025)rotate(-90)scale(0.24 -0.24)">
      <defs>
       <path d="M 1094 4416 
L 557 4416 
L 557 0 
L 1094 0 
L 1094 4416 
z
" id="CMSS17-49" transform="scale(0.015625)"/>
       <path d="M 2848 2816 
C 2483 2809 2170 2739 1914 2617 
C 1702 2783 1485 2816 1338 2816 
C 781 2816 358 2356 358 1824 
C 358 1481 550 1222 563 1209 
C 448 1049 384 876 384 684 
C 384 460 474 300 544 211 
C 211 6 166 -308 166 -429 
C 166 -896 749 -1280 1498 -1280 
C 2253 -1280 2835 -896 2835 -423 
C 2835 460 1856 467 1587 467 
L 1069 467 
C 973 467 717 467 717 793 
C 717 921 774 1004 781 1011 
C 877 940 1075 832 1338 832 
C 1869 832 2310 1279 2310 1824 
C 2310 2128 2170 2349 2112 2425 
L 2131 2425 
C 2150 2425 2419 2444 2515 2444 
C 2720 2444 2739 2438 2918 2419 
L 2848 2816 
z
M 1338 1184 
C 1120 1184 813 1317 813 1824 
C 813 2375 1165 2463 1331 2463 
C 1549 2463 1856 2330 1856 1824 
C 1856 1272 1504 1184 1338 1184 
z
M 1581 0 
C 1734 0 2381 0 2381 -436 
C 2381 -711 1984 -928 1504 -928 
C 1018 -928 621 -717 621 -429 
C 621 -397 621 0 1062 0 
L 1581 0 
z
" id="CMSS17-67" transform="scale(0.015625)"/>
       <path d="M 1466 4179 
L 1350 4416 
L 563 4416 
L 563 0 
L 1062 0 
L 1062 3925 
L 1069 3931 
C 1114 3817 1139 3759 1402 3193 
L 2771 236 
L 2886 0 
L 3674 0 
L 3674 4416 
L 3174 4416 
L 3174 490 
L 3168 484 
C 3123 598 3098 655 2835 1222 
L 1466 4179 
z
" id="CMSS17-4e" transform="scale(0.015625)"/>
       <path d="M 1664 1216 
L 1664 1587 
L 64 1587 
L 64 1216 
L 1664 1216 
z
" id="CMSS17-2d" transform="scale(0.015625)"/>
       <path d="M 3501 705 
C 3072 416 2874 332 2355 332 
C 1459 332 934 1304 934 2191 
C 934 3137 1472 4070 2381 4070 
C 2790 4070 3059 3954 3386 3748 
L 3475 4255 
C 3168 4409 2778 4480 2387 4480 
C 1158 4480 397 3343 397 2191 
C 397 924 1299 -77 2323 -77 
C 2874 -77 3066 -32 3539 268 
L 3501 705 
z
" id="CMSS17-43" transform="scale(0.015625)"/>
       <path d="M 1958 435 
C 1446 435 1216 435 1101 428 
L 1101 2105 
L 3085 2105 
L 3085 2496 
L 1101 2496 
L 1101 3993 
L 1926 3993 
C 2003 3993 2080 3987 2157 3987 
L 3251 3987 
L 3251 4403 
L 563 4403 
L 563 0 
L 3334 0 
L 3334 441 
L 1958 435 
z
" id="CMSS17-45" transform="scale(0.015625)"/>
       <path d="M 1613 4800 
C 1267 4447 474 3627 474 1603 
C 474 -428 1267 -1242 1613 -1600 
L 2003 -1600 
C 1216 -781 960 366 960 1596 
C 960 2820 1203 3973 2003 4800 
L 1613 4800 
z
" id="CMSS17-28" transform="scale(0.015625)"/>
       <path d="M 3923 4582 
C 3962 4646 3962 4678 3962 4684 
C 3962 4755 3904 4800 3853 4800 
C 3782 4800 3750 4748 3718 4684 
L 1101 -109 
C 1088 -135 1062 -173 1062 -212 
C 1062 -282 1120 -327 1178 -327 
C 1235 -327 1248 -301 1299 -212 
L 3923 4582 
z
M 4678 953 
C 4678 1690 4282 2233 3846 2233 
C 3418 2233 3008 1703 3008 953 
C 3008 203 3418 -327 3846 -327 
C 4288 -327 4678 216 4678 953 
z
M 3846 64 
C 3712 64 3494 184 3494 953 
C 3494 1716 3712 1843 3846 1843 
C 4083 1843 4211 1379 4211 953 
C 4211 527 4083 64 3846 64 
z
M 2003 3516 
C 2003 4256 1606 4800 1171 4800 
C 742 4800 333 4269 333 3516 
C 333 2764 742 2233 1171 2233 
C 1613 2233 2003 2777 2003 3516 
z
M 1171 2624 
C 1037 2624 819 2745 819 3516 
C 819 4282 1037 4409 1171 4409 
C 1408 4409 1536 3944 1536 3516 
C 1536 3089 1408 2624 1171 2624 
z
" id="CMSS17-25" transform="scale(0.015625)"/>
       <path d="M 723 -1600 
C 1069 -1248 1862 -428 1862 1596 
C 1862 3627 1069 4440 723 4800 
L 333 4800 
C 1120 3979 1376 2833 1376 1603 
C 1376 379 1133 -774 333 -1600 
L 723 -1600 
z
" id="CMSS17-29" transform="scale(0.015625)"/>
      </defs>
      <use transform="scale(0.996264)" xlink:href="#CMSS17-49"/>
      <use transform="translate(25.783926 0)scale(0.996264)" xlink:href="#CMSS17-6d"/>
      <use transform="translate(100.01318 0)scale(0.996264)" xlink:href="#CMSS17-61"/>
      <use transform="translate(144.935101 0)scale(0.996264)" xlink:href="#CMSS17-67"/>
      <use transform="translate(191.778724 0)scale(0.996264)" xlink:href="#CMSS17-65"/>
      <use transform="translate(233.417546 0)scale(0.996264)" xlink:href="#CMSS17-4e"/>
      <use transform="translate(299.479065 0)scale(0.996264)" xlink:href="#CMSS17-65"/>
      <use transform="translate(341.117887 0)scale(0.996264)" xlink:href="#CMSS17-74"/>
      <use transform="translate(374.949454 0)scale(0.996264)" xlink:href="#CMSS17-2d"/>
      <use transform="translate(406.178567 0)scale(0.996264)" xlink:href="#CMSS17-43"/>
      <use transform="translate(497.263451 0)scale(0.996264)" xlink:href="#CMSS17-6d"/>
      <use transform="translate(571.492706 0)scale(0.996264)" xlink:href="#CMSS17-43"/>
      <use transform="translate(631.348477 0)scale(0.996264)" xlink:href="#CMSS17-45"/>
      <use transform="translate(718.469603 0)scale(0.996264)" xlink:href="#CMSS17-28"/>
      <use transform="translate(754.903517 0)scale(0.996264)" xlink:href="#CMSS17-25"/>
      <use transform="translate(832.976254 0)scale(0.996264)" xlink:href="#CMSS17-29"/>
     </g>
    </g>
   </g>
   <g id="line2d_25">
    <path clip-path="url(#p4476f506e6)" d="M 132.792924 104.39874 
L 270.489656 293.488785 
L 462.080704 388.621043 
" style="fill:none;stroke:#000000;stroke-dasharray:3,4.95;stroke-dashoffset:0;stroke-width:3;"/>
    <defs>
     <path d="M 0 3 
C 0.795609 3 1.55874 2.683901 2.12132 2.12132 
C 2.683901 1.55874 3 0.795609 3 0 
C 3 -0.795609 2.683901 -1.55874 2.12132 -2.12132 
C 1.55874 -2.683901 0.795609 -3 0 -3 
C -0.795609 -3 -1.55874 -2.683901 -2.12132 -2.12132 
C -2.683901 -1.55874 -3 -0.795609 -3 0 
C -3 0.795609 -2.683901 1.55874 -2.12132 2.12132 
C -1.55874 2.683901 -0.795609 3 0 3 
z
" id="mebc8ef9c07" style="stroke:#000000;"/>
    </defs>
    <g clip-path="url(#p4476f506e6)">
     <use style="stroke:#000000;" x="132.792924" xlink:href="#mebc8ef9c07" y="104.39874"/>
     <use style="stroke:#000000;" x="270.489656" xlink:href="#mebc8ef9c07" y="293.488785"/>
     <use style="stroke:#000000;" x="462.080704" xlink:href="#mebc8ef9c07" y="388.621043"/>
    </g>
   </g>
   <g id="line2d_26">
    <path clip-path="url(#p4476f506e6)" d="M 132.792924 189.547984 
L 270.489656 331.071899 
" style="fill:none;stroke:#000000;stroke-dasharray:11.1,4.8;stroke-dashoffset:0;stroke-width:3;"/>
    <defs>
     <path d="M 0 -6 
L -6 6 
L 6 6 
z
" id="mfee971c3d8" style="stroke:#000000;stroke-linejoin:miter;"/>
    </defs>
    <g clip-path="url(#p4476f506e6)">
     <use style="stroke:#000000;stroke-linejoin:miter;" x="132.792924" xlink:href="#mfee971c3d8" y="189.547984"/>
     <use style="stroke:#000000;stroke-linejoin:miter;" x="270.489656" xlink:href="#mfee971c3d8" y="331.071899"/>
    </g>
   </g>
   <g id="line2d_27">
    <path clip-path="url(#p4476f506e6)" d="M 132.792924 258.254615 
L 270.489656 350.450693 
L 462.080704 425.616922 
" style="fill:none;stroke:#2b8cbe;stroke-linecap:square;stroke-width:3;"/>
    <defs>
     <path d="M 0 -7.5 
L -1.683855 -2.317627 
L -7.132924 -2.317627 
L -2.724534 0.885255 
L -4.408389 6.067627 
L -0 2.864745 
L 4.408389 6.067627 
L 2.724534 0.885255 
L 7.132924 -2.317627 
L 1.683855 -2.317627 
z
" id="m6c15188540" style="stroke:#2b8cbe;stroke-linejoin:bevel;"/>
    </defs>
    <g clip-path="url(#p4476f506e6)">
     <use style="fill:#2b8cbe;stroke:#2b8cbe;stroke-linejoin:bevel;" x="132.792924" xlink:href="#m6c15188540" y="258.254615"/>
     <use style="fill:#2b8cbe;stroke:#2b8cbe;stroke-linejoin:bevel;" x="270.489656" xlink:href="#m6c15188540" y="350.450693"/>
     <use style="fill:#2b8cbe;stroke:#2b8cbe;stroke-linejoin:bevel;" x="462.080704" xlink:href="#m6c15188540" y="425.616922"/>
    </g>
   </g>
   <g id="patch_3">
    <path d="M 70.672615 437.361645 
L 70.672615 143.743563 
" style="fill:none;stroke:#000000;stroke-linecap:square;stroke-linejoin:miter;stroke-width:2.5;"/>
   </g>
   <g id="patch_4">
    <path d="M 103.162422 441.677831 
L 544.972615 441.677831 
" style="fill:none;stroke:#000000;stroke-linecap:square;stroke-linejoin:miter;stroke-width:2.5;"/>
   </g>
   <g id="text_11">
    <!-- ResNet50 -->
    <g transform="translate(143.556922 104.39874)scale(0.2 -0.2)">
     <defs>
      <path d="M 2522 2099 
L 2534 2105 
C 3533 2450 3539 3125 3539 3244 
C 3539 3838 2925 4416 2003 4416 
L 570 4416 
L 570 0 
L 1094 0 
L 1094 2041 
L 2035 2041 
L 3168 0 
L 3706 0 
L 2522 2099 
z
M 1094 2432 
L 1094 4057 
L 1933 4057 
C 2746 4057 3034 3607 3034 3244 
C 3034 2907 2778 2432 1933 2432 
L 1094 2432 
z
" id="CMSS17-52" transform="scale(0.015625)"/>
      <path d="M 934 3814 
L 2502 3814 
L 2502 4224 
L 467 4224 
L 467 1830 
L 896 1830 
C 1011 2103 1248 2304 1555 2304 
C 1843 2304 2163 2044 2163 1299 
C 2163 502 1709 268 1376 268 
C 966 268 589 521 422 871 
L 218 508 
C 512 51 992 -128 1376 -128 
C 2118 -128 2701 508 2701 1286 
C 2701 2083 2182 2694 1562 2694 
C 1338 2694 1120 2617 934 2464 
L 934 3814 
z
" id="CMSS17-35" transform="scale(0.015625)"/>
      <path d="M 2758 2073 
C 2758 2439 2752 3120 2490 3647 
C 2227 4153 1805 4288 1504 4288 
C 1069 4288 698 4031 506 3621 
C 301 3191 243 2748 243 2073 
C 243 1611 262 1046 493 551 
C 755 6 1197 -128 1498 -128 
C 1894 -128 2278 83 2496 525 
C 2720 988 2758 1495 2758 2073 
z
M 1498 262 
C 1011 262 864 821 819 1007 
C 742 1328 730 1636 730 2144 
C 730 2542 730 2992 851 3345 
C 998 3756 1254 3897 1498 3897 
C 1971 3897 2125 3422 2176 3255 
C 2272 2915 2272 2516 2272 2144 
C 2272 1546 2272 262 1498 262 
z
" id="CMSS17-30" transform="scale(0.015625)"/>
     </defs>
     <use transform="scale(0.996264)" xlink:href="#CMSS17-52"/>
     <use transform="translate(60.416155 0)scale(0.996264)" xlink:href="#CMSS17-65"/>
     <use transform="translate(102.054977 0)scale(0.996264)" xlink:href="#CMSS17-73"/>
     <use transform="translate(137.968519 0)scale(0.996264)" xlink:href="#CMSS17-4e"/>
     <use transform="translate(204.030038 0)scale(0.996264)" xlink:href="#CMSS17-65"/>
     <use transform="translate(245.66886 0)scale(0.996264)" xlink:href="#CMSS17-74"/>
     <use transform="translate(279.500427 0)scale(0.996264)" xlink:href="#CMSS17-35"/>
     <use transform="translate(326.34405 0)scale(0.996264)" xlink:href="#CMSS17-30"/>
    </g>
   </g>
   <g id="text_12">
    <!-- ResNeXt101 -->
    <g transform="translate(281.253654 273.008755)scale(0.2 -0.2)">
     <defs>
      <path d="M 2214 2328 
L 3661 4416 
L 3072 4416 
L 1952 2761 
L 800 4416 
L 166 4416 
L 1690 2328 
L 83 0 
L 672 0 
L 1952 1940 
L 3277 0 
L 3910 0 
L 2214 2328 
z
" id="CMSS17-58" transform="scale(0.015625)"/>
      <path d="M 1818 4288 
L 1696 4288 
C 1350 3949 947 3902 538 3891 
L 538 3520 
C 723 3526 1024 3539 1325 3673 
L 1325 371 
L 570 371 
L 570 0 
L 2573 0 
L 2573 371 
L 1818 371 
L 1818 4288 
z
" id="CMSS17-31" transform="scale(0.015625)"/>
     </defs>
     <use transform="scale(0.996264)" xlink:href="#CMSS17-52"/>
     <use transform="translate(60.416155 0)scale(0.996264)" xlink:href="#CMSS17-65"/>
     <use transform="translate(102.054977 0)scale(0.996264)" xlink:href="#CMSS17-73"/>
     <use transform="translate(137.968519 0)scale(0.996264)" xlink:href="#CMSS17-4e"/>
     <use transform="translate(204.030038 0)scale(0.996264)" xlink:href="#CMSS17-65"/>
     <use transform="translate(245.66886 0)scale(0.996264)" xlink:href="#CMSS17-58"/>
     <use transform="translate(307.886715 0)scale(0.996264)" xlink:href="#CMSS17-74"/>
     <use transform="translate(341.718282 0)scale(0.996264)" xlink:href="#CMSS17-31"/>
     <use transform="translate(388.561905 0)scale(0.996264)" xlink:href="#CMSS17-30"/>
     <use transform="translate(435.405529 0)scale(0.996264)" xlink:href="#CMSS17-31"/>
    </g>
    <!-- +DeepAug+AM -->
    <g transform="translate(281.253654 293.488785)scale(0.2 -0.2)">
     <defs>
      <path d="M 2451 1472 
L 4141 1472 
C 4230 1472 4339 1472 4339 1580 
C 4339 1696 4237 1696 4141 1696 
L 2451 1696 
L 2451 3385 
C 2451 3475 2451 3584 2342 3584 
C 2227 3584 2227 3481 2227 3385 
L 2227 1696 
L 531 1696 
C 442 1696 333 1696 333 1587 
C 333 1472 435 1472 531 1472 
L 2227 1472 
L 2227 -194 
C 2227 -282 2227 -391 2336 -391 
C 2451 -391 2451 -289 2451 -194 
L 2451 1472 
z
" id="CMSS17-2b" transform="scale(0.015625)"/>
      <path d="M 570 4416 
L 570 0 
L 2144 0 
C 3194 0 4000 981 4000 2169 
C 4000 3396 3194 4416 2144 4416 
L 570 4416 
z
M 1094 358 
L 1094 4057 
L 2003 4057 
C 2861 4057 3475 3275 3475 2169 
C 3475 1108 2867 358 2003 358 
L 1094 358 
z
" id="CMSS17-44" transform="scale(0.015625)"/>
      <path d="M 966 275 
C 1178 70 1466 -64 1773 -64 
C 2368 -64 2880 553 2880 1382 
C 2880 2147 2496 2816 1946 2816 
C 1626 2816 1242 2700 954 2470 
L 954 2764 
L 480 2764 
L 480 -1280 
L 966 -1280 
L 966 275 
z
M 966 2088 
C 1018 2166 1235 2412 1587 2412 
C 2035 2412 2394 1946 2394 1382 
C 2394 741 1958 326 1530 326 
C 1402 326 1267 358 1139 468 
C 966 624 966 721 966 812 
L 966 2088 
z
" id="CMSS17-70" transform="scale(0.015625)"/>
      <path d="M 2272 4416 
L 1722 4416 
L 166 0 
L 653 0 
L 1101 1280 
L 2816 1280 
L 3270 0 
L 3827 0 
L 2272 4416 
z
M 2694 1638 
L 1222 1638 
C 1530 2530 1914 3638 1958 3924 
L 1965 3924 
C 2010 3663 2138 3281 2246 2956 
L 2694 1638 
z
" id="CMSS17-41" transform="scale(0.015625)"/>
      <path d="M 2618 2752 
L 2131 2752 
L 2131 976 
C 2131 500 1786 307 1421 307 
C 998 307 960 448 960 712 
L 960 2752 
L 474 2752 
L 474 680 
C 474 179 646 -64 1088 -64 
C 1306 -64 1798 -13 2144 307 
L 2144 -13 
L 2618 -13 
L 2618 2752 
z
" id="CMSS17-75" transform="scale(0.015625)"/>
     </defs>
     <use transform="scale(0.996264)" xlink:href="#CMSS17-2b"/>
     <use transform="translate(72.867935 0)scale(0.996264)" xlink:href="#CMSS17-44"/>
     <use transform="translate(140.410776 0)scale(0.996264)" xlink:href="#CMSS17-65"/>
     <use transform="translate(182.049599 0)scale(0.996264)" xlink:href="#CMSS17-65"/>
     <use transform="translate(223.688421 0)scale(0.996264)" xlink:href="#CMSS17-70"/>
     <use transform="translate(271.893364 0)scale(0.996264)" xlink:href="#CMSS17-41"/>
     <use transform="translate(334.111219 0)scale(0.996264)" xlink:href="#CMSS17-75"/>
     <use transform="translate(382.316162 0)scale(0.996264)" xlink:href="#CMSS17-67"/>
     <use transform="translate(429.159785 0)scale(0.996264)" xlink:href="#CMSS17-2b"/>
     <use transform="translate(502.02772 0)scale(0.996264)" xlink:href="#CMSS17-41"/>
     <use transform="translate(564.245575 0)scale(0.996264)" xlink:href="#CMSS17-4d"/>
    </g>
   </g>
   <g id="text_13">
    <!-- Noisy Student -->
    <g transform="translate(436.879652 334.903447)scale(0.2 -0.2)">
     <defs>
      <path d="M 979 4224 
L 442 4224 
L 442 3686 
L 979 3686 
L 979 4224 
z
M 947 2752 
L 474 2752 
L 474 0 
L 947 0 
L 947 2752 
z
" id="CMSS17-69" transform="scale(0.015625)"/>
      <path d="M 2675 2752 
L 2176 2752 
C 1632 1293 1446 701 1434 383 
L 1427 383 
C 1408 695 1126 1459 902 2006 
L 602 2752 
L 83 2752 
L 1216 14 
C 1146 -177 1043 -464 1011 -527 
C 870 -884 774 -884 672 -884 
C 646 -884 442 -877 211 -807 
L 250 -1229 
C 410 -1261 570 -1280 685 -1280 
C 845 -1280 1165 -1280 1459 -495 
L 2675 2752 
z
" id="CMSS17-79" transform="scale(0.015625)"/>
      <path d="M 2797 4230 
C 2515 4396 2208 4544 1690 4544 
C 864 4544 333 3934 333 3309 
C 333 3064 403 2787 653 2504 
C 902 2220 1184 2143 1542 2053 
C 1690 2014 1939 1943 1984 1924 
C 2342 1782 2515 1454 2515 1144 
C 2515 738 2202 307 1645 307 
C 1453 307 890 339 358 829 
L 269 320 
C 794 -64 1363 -128 1651 -128 
C 2438 -128 3002 494 3002 1202 
C 3002 1460 2925 1789 2656 2092 
C 2394 2381 2163 2446 1638 2588 
C 1338 2665 1146 2717 986 2916 
C 877 3058 819 3193 819 3367 
C 819 3728 1126 4121 1690 4121 
C 1971 4121 2336 4063 2707 3715 
L 2797 4230 
z
" id="CMSS17-53" transform="scale(0.015625)"/>
      <path d="M 2618 1878 
C 2618 2283 2522 2816 1798 2816 
C 1389 2816 1120 2604 941 2386 
L 941 2783 
L 474 2783 
L 474 0 
L 960 0 
L 960 1556 
C 960 1962 1114 2425 1549 2425 
C 2112 2425 2131 2045 2131 1826 
L 2131 0 
L 2618 0 
L 2618 1878 
z
" id="CMSS17-6e" transform="scale(0.015625)"/>
     </defs>
     <use transform="scale(0.996264)" xlink:href="#CMSS17-4e"/>
     <use transform="translate(66.061519 0)scale(0.996264)" xlink:href="#CMSS17-6f"/>
     <use transform="translate(112.905143 0)scale(0.996264)" xlink:href="#CMSS17-69"/>
     <use transform="translate(135.085866 0)scale(0.996264)" xlink:href="#CMSS17-73"/>
     <use transform="translate(170.999408 0)scale(0.996264)" xlink:href="#CMSS17-79"/>
     <use transform="translate(245.228662 0)scale(0.996264)" xlink:href="#CMSS17-53"/>
     <use transform="translate(297.277178 0)scale(0.996264)" xlink:href="#CMSS17-74"/>
     <use transform="translate(331.108745 0)scale(0.996264)" xlink:href="#CMSS17-75"/>
     <use transform="translate(379.313688 0)scale(0.996264)" xlink:href="#CMSS17-64"/>
     <use transform="translate(427.518631 0)scale(0.996264)" xlink:href="#CMSS17-65"/>
     <use transform="translate(469.157453 0)scale(0.996264)" xlink:href="#CMSS17-6e"/>
     <use transform="translate(517.362397 0)scale(0.996264)" xlink:href="#CMSS17-74"/>
    </g>
    <!-- EffNet-L2 -->
    <g transform="translate(436.879652 355.383476)scale(0.2 -0.2)">
     <defs>
      <path d="M 1075 2380 
L 1734 2380 
L 1734 2752 
L 1062 2752 
L 1062 3563 
C 1062 4000 1395 4089 1613 4089 
C 1837 4089 2022 4032 2093 4007 
L 2093 4428 
C 2022 4441 1830 4480 1619 4480 
C 1030 4480 602 4000 602 3366 
L 602 2752 
L 160 2752 
L 160 2380 
L 602 2380 
L 602 0 
L 1075 0 
L 1075 2380 
z
M 2739 2380 
L 3398 2380 
L 3398 2752 
L 2726 2752 
L 2726 3563 
C 2726 4000 3059 4089 3277 4089 
C 3501 4089 3686 4032 3757 4007 
L 3757 4428 
C 3686 4441 3494 4480 3283 4480 
C 2694 4480 2266 4000 2266 3366 
L 2266 0 
L 2739 0 
L 2739 2380 
z
" id="CMSS17-b" transform="scale(0.015625)"/>
      <path d="M 1670 416 
C 1594 416 1517 409 1440 409 
L 1101 409 
L 1101 4416 
L 563 4416 
L 563 0 
L 3002 0 
L 3002 416 
L 1670 416 
z
" id="CMSS17-4c" transform="scale(0.015625)"/>
      <path d="M 1651 1353 
C 1830 1538 2099 1761 2285 1984 
C 2464 2201 2701 2507 2701 2953 
C 2701 3655 2227 4288 1421 4288 
C 787 4288 422 3891 250 3272 
L 499 2928 
C 640 3508 838 3878 1338 3878 
C 1888 3878 2195 3431 2195 2940 
C 2195 2354 1747 1901 1408 1563 
C 1030 1187 659 805 301 409 
L 301 0 
L 2701 0 
L 2701 435 
L 1613 435 
C 1536 435 1459 428 1382 428 
L 742 428 
L 742 435 
L 1651 1353 
z
" id="CMSS17-32" transform="scale(0.015625)"/>
     </defs>
     <use transform="scale(0.996264)" xlink:href="#CMSS17-45"/>
     <use transform="translate(55.892013 0)scale(0.996264)" xlink:href="#CMSS17-b"/>
     <use transform="translate(110.542983 0)scale(0.996264)" xlink:href="#CMSS17-4e"/>
     <use transform="translate(176.604503 0)scale(0.996264)" xlink:href="#CMSS17-65"/>
     <use transform="translate(218.243325 0)scale(0.996264)" xlink:href="#CMSS17-74"/>
     <use transform="translate(252.074891 0)scale(0.996264)" xlink:href="#CMSS17-2d"/>
     <use transform="translate(283.304004 0)scale(0.996264)" xlink:href="#CMSS17-4c"/>
     <use transform="translate(333.991109 0)scale(0.996264)" xlink:href="#CMSS17-32"/>
    </g>
   </g>
   <g id="text_14">
    <!-- Consistent Improvements across ImageNet-C -->
    <g transform="translate(156.107777 21.036997)scale(0.2 -0.2)">
     <defs>
      <path d="M 2675 2752 
L 2176 2752 
L 1747 1555 
C 1613 1164 1421 627 1389 352 
L 1382 352 
C 1370 467 1318 633 1286 748 
C 1248 889 1197 1056 1158 1171 
L 595 2752 
L 83 2752 
L 1094 0 
L 1664 0 
L 2675 2752 
z
" id="CMSS17-76" transform="scale(0.015625)"/>
      <path d="M 2464 2540 
C 2464 2585 2170 2713 2093 2739 
C 1882 2816 1613 2816 1542 2816 
C 710 2816 211 2092 211 1363 
C 211 595 768 -64 1517 -64 
C 1946 -64 2253 76 2502 243 
L 2464 665 
C 2189 454 1869 339 1523 339 
C 1024 339 698 774 698 1369 
C 698 1830 909 2412 1549 2412 
C 1901 2412 2099 2342 2394 2143 
L 2464 2540 
z
" id="CMSS17-63" transform="scale(0.015625)"/>
     </defs>
     <use transform="scale(0.996264)" xlink:href="#CMSS17-43"/>
     <use transform="translate(59.855772 0)scale(0.996264)" xlink:href="#CMSS17-6f"/>
     <use transform="translate(106.699395 0)scale(0.996264)" xlink:href="#CMSS17-6e"/>
     <use transform="translate(154.904338 0)scale(0.996264)" xlink:href="#CMSS17-73"/>
     <use transform="translate(190.81788 0)scale(0.996264)" xlink:href="#CMSS17-69"/>
     <use transform="translate(212.998603 0)scale(0.996264)" xlink:href="#CMSS17-73"/>
     <use transform="translate(248.912145 0)scale(0.996264)" xlink:href="#CMSS17-74"/>
     <use transform="translate(282.743712 0)scale(0.996264)" xlink:href="#CMSS17-65"/>
     <use transform="translate(324.382534 0)scale(0.996264)" xlink:href="#CMSS17-6e"/>
     <use transform="translate(372.587477 0)scale(0.996264)" xlink:href="#CMSS17-74"/>
     <use transform="translate(437.648157 0)scale(0.996264)" xlink:href="#CMSS17-49"/>
     <use transform="translate(463.432082 0)scale(0.996264)" xlink:href="#CMSS17-6d"/>
     <use transform="translate(537.661337 0)scale(0.996264)" xlink:href="#CMSS17-70"/>
     <use transform="translate(583.263826 0)scale(0.996264)" xlink:href="#CMSS17-72"/>
     <use transform="translate(615.173598 0)scale(0.996264)" xlink:href="#CMSS17-6f"/>
     <use transform="translate(662.017222 0)scale(0.996264)" xlink:href="#CMSS17-76"/>
     <use transform="translate(705.017363 0)scale(0.996264)" xlink:href="#CMSS17-65"/>
     <use transform="translate(746.656186 0)scale(0.996264)" xlink:href="#CMSS17-6d"/>
     <use transform="translate(820.88544 0)scale(0.996264)" xlink:href="#CMSS17-65"/>
     <use transform="translate(862.524262 0)scale(0.996264)" xlink:href="#CMSS17-6e"/>
     <use transform="translate(910.729205 0)scale(0.996264)" xlink:href="#CMSS17-74"/>
     <use transform="translate(944.560772 0)scale(0.996264)" xlink:href="#CMSS17-73"/>
     <use transform="translate(1011.703427 0)scale(0.996264)" xlink:href="#CMSS17-61"/>
     <use transform="translate(1056.625347 0)scale(0.996264)" xlink:href="#CMSS17-63"/>
     <use transform="translate(1098.264169 0)scale(0.996264)" xlink:href="#CMSS17-72"/>
     <use transform="translate(1130.173942 0)scale(0.996264)" xlink:href="#CMSS17-6f"/>
     <use transform="translate(1177.017565 0)scale(0.996264)" xlink:href="#CMSS17-73"/>
     <use transform="translate(1212.931107 0)scale(0.996264)" xlink:href="#CMSS17-73"/>
     <use transform="translate(1280.073762 0)scale(0.996264)" xlink:href="#CMSS17-49"/>
     <use transform="translate(1305.857688 0)scale(0.996264)" xlink:href="#CMSS17-6d"/>
     <use transform="translate(1380.086942 0)scale(0.996264)" xlink:href="#CMSS17-61"/>
     <use transform="translate(1425.008863 0)scale(0.996264)" xlink:href="#CMSS17-67"/>
     <use transform="translate(1471.852486 0)scale(0.996264)" xlink:href="#CMSS17-65"/>
     <use transform="translate(1513.491308 0)scale(0.996264)" xlink:href="#CMSS17-4e"/>
     <use transform="translate(1579.552827 0)scale(0.996264)" xlink:href="#CMSS17-65"/>
     <use transform="translate(1621.191649 0)scale(0.996264)" xlink:href="#CMSS17-74"/>
     <use transform="translate(1655.023216 0)scale(0.996264)" xlink:href="#CMSS17-2d"/>
     <use transform="translate(1686.252329 0)scale(0.996264)" xlink:href="#CMSS17-43"/>
    </g>
    <!-- models of all sizes -->
    <g transform="translate(260.080679 41.517026)scale(0.2 -0.2)">
     <defs>
      <path d="M 1075 2380 
L 1722 2380 
L 1722 2752 
L 1062 2752 
L 1062 3563 
C 1062 4013 1408 4089 1606 4089 
C 1670 4089 1850 4089 2080 4007 
L 2080 4428 
C 1933 4460 1754 4480 1613 4480 
C 1018 4480 602 3994 602 3366 
L 602 2752 
L 160 2752 
L 160 2380 
L 602 2380 
L 602 0 
L 1075 0 
L 1075 2380 
z
" id="CMSS17-66" transform="scale(0.015625)"/>
      <path d="M 2400 2502 
L 2400 2752 
L 250 2752 
L 250 2367 
L 1069 2367 
C 1146 2367 1222 2374 1299 2374 
L 1747 2374 
L 166 262 
L 166 0 
L 2419 0 
L 2419 396 
L 1549 396 
C 1472 396 1395 390 1318 390 
L 826 390 
L 2400 2502 
z
" id="CMSS17-7a" transform="scale(0.015625)"/>
     </defs>
     <use transform="scale(0.996264)" xlink:href="#CMSS17-6d"/>
     <use transform="translate(74.229254 0)scale(0.996264)" xlink:href="#CMSS17-6f"/>
     <use transform="translate(123.675317 0)scale(0.996264)" xlink:href="#CMSS17-64"/>
     <use transform="translate(171.88026 0)scale(0.996264)" xlink:href="#CMSS17-65"/>
     <use transform="translate(213.519082 0)scale(0.996264)" xlink:href="#CMSS17-6c"/>
     <use transform="translate(235.699805 0)scale(0.996264)" xlink:href="#CMSS17-73"/>
     <use transform="translate(302.84246 0)scale(0.996264)" xlink:href="#CMSS17-6f"/>
     <use transform="translate(349.686083 0)scale(0.996264)" xlink:href="#CMSS17-66"/>
     <use transform="translate(409.541855 0)scale(0.996264)" xlink:href="#CMSS17-61"/>
     <use transform="translate(454.463775 0)scale(0.996264)" xlink:href="#CMSS17-6c"/>
     <use transform="translate(476.644498 0)scale(0.996264)" xlink:href="#CMSS17-6c"/>
     <use transform="translate(530.054334 0)scale(0.996264)" xlink:href="#CMSS17-73"/>
     <use transform="translate(565.967876 0)scale(0.996264)" xlink:href="#CMSS17-69"/>
     <use transform="translate(588.148599 0)scale(0.996264)" xlink:href="#CMSS17-7a"/>
     <use transform="translate(628.826471 0)scale(0.996264)" xlink:href="#CMSS17-65"/>
     <use transform="translate(670.465293 0)scale(0.996264)" xlink:href="#CMSS17-73"/>
    </g>
   </g>
   <g id="text_15">
    <!-- Consistent Improvements -->
    <g transform="translate(616.790455 21.036997)scale(0.2 -0.2)">
     <use transform="scale(0.996264)" xlink:href="#CMSS17-43"/>
     <use transform="translate(59.855772 0)scale(0.996264)" xlink:href="#CMSS17-6f"/>
     <use transform="translate(106.699395 0)scale(0.996264)" xlink:href="#CMSS17-6e"/>
     <use transform="translate(154.904338 0)scale(0.996264)" xlink:href="#CMSS17-73"/>
     <use transform="translate(190.81788 0)scale(0.996264)" xlink:href="#CMSS17-69"/>
     <use transform="translate(212.998603 0)scale(0.996264)" xlink:href="#CMSS17-73"/>
     <use transform="translate(248.912145 0)scale(0.996264)" xlink:href="#CMSS17-74"/>
     <use transform="translate(282.743712 0)scale(0.996264)" xlink:href="#CMSS17-65"/>
     <use transform="translate(324.382534 0)scale(0.996264)" xlink:href="#CMSS17-6e"/>
     <use transform="translate(372.587477 0)scale(0.996264)" xlink:href="#CMSS17-74"/>
     <use transform="translate(437.648157 0)scale(0.996264)" xlink:href="#CMSS17-49"/>
     <use transform="translate(463.432082 0)scale(0.996264)" xlink:href="#CMSS17-6d"/>
     <use transform="translate(537.661337 0)scale(0.996264)" xlink:href="#CMSS17-70"/>
     <use transform="translate(583.263826 0)scale(0.996264)" xlink:href="#CMSS17-72"/>
     <use transform="translate(615.173598 0)scale(0.996264)" xlink:href="#CMSS17-6f"/>
     <use transform="translate(662.017222 0)scale(0.996264)" xlink:href="#CMSS17-76"/>
     <use transform="translate(705.017363 0)scale(0.996264)" xlink:href="#CMSS17-65"/>
     <use transform="translate(746.656186 0)scale(0.996264)" xlink:href="#CMSS17-6d"/>
     <use transform="translate(820.88544 0)scale(0.996264)" xlink:href="#CMSS17-65"/>
     <use transform="translate(862.524262 0)scale(0.996264)" xlink:href="#CMSS17-6e"/>
     <use transform="translate(910.729205 0)scale(0.996264)" xlink:href="#CMSS17-74"/>
     <use transform="translate(944.560772 0)scale(0.996264)" xlink:href="#CMSS17-73"/>
    </g>
    <!-- on IN-A \&amp; IN-R -->
    <g transform="translate(651.991368 41.517026)scale(0.2 -0.2)">
     <defs>
      <path d="M 3610 2517 
C 3290 1357 2720 874 2630 797 
C 2509 932 2035 1492 1696 2175 
C 1702 2182 2048 2497 2240 2736 
C 2451 2987 2637 3258 2637 3560 
C 2637 4043 2317 4544 1818 4544 
C 1267 4544 960 3947 960 3290 
C 960 2903 1037 2568 1158 2207 
C 1069 2130 749 1834 608 1692 
C 512 1602 250 1357 250 919 
C 250 371 698 -128 1357 -128 
C 1798 -128 2227 19 2554 230 
C 2918 -58 3245 -128 3520 -128 
C 3610 -128 3878 -122 4218 -32 
L 4218 391 
C 3898 294 3629 281 3533 281 
C 3398 281 3219 294 2925 513 
C 2963 545 3686 1170 4006 2401 
L 3610 2517 
z
M 1542 2575 
C 1421 2929 1382 3290 1382 3509 
C 1382 3998 1632 4153 1811 4153 
C 2144 4153 2170 3663 2170 3567 
C 2170 3193 1811 2839 1542 2575 
z
M 1325 1827 
C 1472 1525 1811 1003 2240 519 
C 1971 371 1670 281 1363 281 
C 922 281 736 674 736 958 
C 736 1267 896 1428 960 1486 
C 1075 1608 1197 1718 1325 1827 
z
" id="CMSS17-26" transform="scale(0.015625)"/>
     </defs>
     <use transform="scale(0.996264)" xlink:href="#CMSS17-6f"/>
     <use transform="translate(46.843624 0)scale(0.996264)" xlink:href="#CMSS17-6e"/>
     <use transform="translate(126.277679 0)scale(0.996264)" xlink:href="#CMSS17-49"/>
     <use transform="translate(152.061605 0)scale(0.996264)" xlink:href="#CMSS17-4e"/>
     <use transform="translate(218.123124 0)scale(0.996264)" xlink:href="#CMSS17-2d"/>
     <use transform="translate(249.352237 0)scale(0.996264)" xlink:href="#CMSS17-41"/>
     <use transform="translate(342.799205 0)scale(0.996264)" xlink:href="#CMSS17-26"/>
     <use transform="translate(444.974458 0)scale(0.996264)" xlink:href="#CMSS17-49"/>
     <use transform="translate(470.758383 0)scale(0.996264)" xlink:href="#CMSS17-4e"/>
     <use transform="translate(536.819903 0)scale(0.996264)" xlink:href="#CMSS17-2d"/>
     <use transform="translate(568.049015 0)scale(0.996264)" xlink:href="#CMSS17-52"/>
    </g>
   </g>
   <g id="text_16">
    <!-- ResNext101: RPL works with -->
    <g transform="translate(599.746673 314.655079)scale(0.2 -0.2)">
     <defs>
      <path d="M 1587 1420 
L 2656 2752 
L 2099 2752 
L 1363 1785 
L 602 2752 
L 32 2752 
L 1139 1420 
L 0 0 
L 563 0 
L 1363 1126 
L 2195 0 
L 2758 0 
L 1587 1420 
z
" id="CMSS17-78" transform="scale(0.015625)"/>
      <path d="M 1088 2752 
L 576 2752 
L 576 2239 
L 1088 2239 
L 1088 2752 
z
M 576 512 
L 576 0 
L 1088 0 
L 1088 512 
L 576 512 
z
" id="CMSS17-3a" transform="scale(0.015625)"/>
      <path d="M 4013 2752 
L 3526 2752 
L 3187 1600 
C 3117 1356 2918 684 2893 371 
L 2886 371 
C 2874 563 2765 1024 2586 1632 
L 2259 2752 
L 1818 2752 
L 1498 1657 
C 1338 1100 1216 627 1203 371 
L 1197 371 
C 1171 748 909 1632 870 1772 
L 582 2752 
L 83 2752 
L 915 0 
L 1402 0 
C 1734 1100 1990 1952 2010 2380 
C 2022 2169 2131 1715 2195 1491 
L 2618 0 
L 3181 0 
L 4013 2752 
z
" id="CMSS17-77" transform="scale(0.015625)"/>
      <path d="M 1696 1686 
L 2688 2735 
L 2074 2735 
L 954 1552 
L 954 4416 
L 480 4416 
L 480 0 
L 947 0 
L 947 891 
L 1376 1342 
L 2278 0 
L 2822 0 
L 1696 1686 
z
" id="CMSS17-6b" transform="scale(0.015625)"/>
      <path d="M 2618 1878 
C 2618 2283 2522 2816 1798 2816 
C 1395 2816 1133 2617 947 2399 
L 947 4416 
L 474 4416 
L 474 0 
L 960 0 
L 960 1556 
C 960 1962 1114 2425 1549 2425 
C 2112 2425 2131 2045 2131 1826 
L 2131 0 
L 2618 0 
L 2618 1878 
z
" id="CMSS17-68" transform="scale(0.015625)"/>
     </defs>
     <use transform="scale(0.996264)" xlink:href="#CMSS17-52"/>
     <use transform="translate(60.416155 0)scale(0.996264)" xlink:href="#CMSS17-65"/>
     <use transform="translate(102.054977 0)scale(0.996264)" xlink:href="#CMSS17-73"/>
     <use transform="translate(137.968519 0)scale(0.996264)" xlink:href="#CMSS17-4e"/>
     <use transform="translate(204.030038 0)scale(0.996264)" xlink:href="#CMSS17-65"/>
     <use transform="translate(245.66886 0)scale(0.996264)" xlink:href="#CMSS17-78"/>
     <use transform="translate(288.669002 0)scale(0.996264)" xlink:href="#CMSS17-74"/>
     <use transform="translate(322.500569 0)scale(0.996264)" xlink:href="#CMSS17-31"/>
     <use transform="translate(369.344192 0)scale(0.996264)" xlink:href="#CMSS17-30"/>
     <use transform="translate(416.187816 0)scale(0.996264)" xlink:href="#CMSS17-31"/>
     <use transform="translate(463.031439 0)scale(0.996264)" xlink:href="#CMSS17-3a"/>
     <use transform="translate(530.694451 0)scale(0.996264)" xlink:href="#CMSS17-52"/>
     <use transform="translate(591.110606 0)scale(0.996264)" xlink:href="#CMSS17-50"/>
     <use transform="translate(650.846192 0)scale(0.996264)" xlink:href="#CMSS17-4c"/>
     <use transform="translate(732.76241 0)scale(0.996264)" xlink:href="#CMSS17-77"/>
     <use transform="translate(793.979501 0)scale(0.996264)" xlink:href="#CMSS17-6f"/>
     <use transform="translate(838.220671 0)scale(0.996264)" xlink:href="#CMSS17-72"/>
     <use transform="translate(870.130443 0)scale(0.996264)" xlink:href="#CMSS17-6b"/>
     <use transform="translate(915.732933 0)scale(0.996264)" xlink:href="#CMSS17-73"/>
     <use transform="translate(982.875587 0)scale(0.996264)" xlink:href="#CMSS17-77"/>
     <use transform="translate(1046.695133 0)scale(0.996264)" xlink:href="#CMSS17-69"/>
     <use transform="translate(1068.875856 0)scale(0.996264)" xlink:href="#CMSS17-74"/>
     <use transform="translate(1102.707422 0)scale(0.996264)" xlink:href="#CMSS17-68"/>
    </g>
    <!-- more data + augmentation -->
    <g transform="translate(608.406649 335.135109)scale(0.2 -0.2)">
     <use transform="scale(0.996264)" xlink:href="#CMSS17-6d"/>
     <use transform="translate(74.229254 0)scale(0.996264)" xlink:href="#CMSS17-6f"/>
     <use transform="translate(118.470424 0)scale(0.996264)" xlink:href="#CMSS17-72"/>
     <use transform="translate(150.380197 0)scale(0.996264)" xlink:href="#CMSS17-65"/>
     <use transform="translate(223.248131 0)scale(0.996264)" xlink:href="#CMSS17-64"/>
     <use transform="translate(271.453075 0)scale(0.996264)" xlink:href="#CMSS17-61"/>
     <use transform="translate(316.374995 0)scale(0.996264)" xlink:href="#CMSS17-74"/>
     <use transform="translate(350.206562 0)scale(0.996264)" xlink:href="#CMSS17-61"/>
     <use transform="translate(426.357595 0)scale(0.996264)" xlink:href="#CMSS17-2b"/>
     <use transform="translate(530.454643 0)scale(0.996264)" xlink:href="#CMSS17-61"/>
     <use transform="translate(575.376563 0)scale(0.996264)" xlink:href="#CMSS17-75"/>
     <use transform="translate(623.581506 0)scale(0.996264)" xlink:href="#CMSS17-67"/>
     <use transform="translate(670.42513 0)scale(0.996264)" xlink:href="#CMSS17-6d"/>
     <use transform="translate(744.654384 0)scale(0.996264)" xlink:href="#CMSS17-65"/>
     <use transform="translate(786.293207 0)scale(0.996264)" xlink:href="#CMSS17-6e"/>
     <use transform="translate(834.49815 0)scale(0.996264)" xlink:href="#CMSS17-74"/>
     <use transform="translate(868.329716 0)scale(0.996264)" xlink:href="#CMSS17-61"/>
     <use transform="translate(913.251637 0)scale(0.996264)" xlink:href="#CMSS17-74"/>
     <use transform="translate(947.083204 0)scale(0.996264)" xlink:href="#CMSS17-69"/>
     <use transform="translate(969.263927 0)scale(0.996264)" xlink:href="#CMSS17-6f"/>
     <use transform="translate(1016.10755 0)scale(0.996264)" xlink:href="#CMSS17-6e"/>
    </g>
   </g>
   <g id="legend_1">
    <g id="line2d_28">
     <path d="M 83.415615 367.05093 
L 123.415615 367.05093 
" style="fill:none;stroke:#000000;stroke-dasharray:3,4.95;stroke-dashoffset:0;stroke-width:3;"/>
    </g>
    <g id="line2d_29">
     <g>
      <use style="stroke:#000000;" x="103.415615" xlink:href="#mebc8ef9c07" y="367.05093"/>
     </g>
    </g>
    <g id="text_17">
     <!-- Baseline -->
     <g transform="translate(139.415615 374.05093)scale(0.2 -0.2)">
      <defs>
       <path d="M 570 4416 
L 570 0 
L 2163 0 
C 3034 0 3667 575 3667 1200 
C 3667 1684 3251 2175 2502 2316 
C 3334 2559 3501 3039 3501 3311 
C 3501 3880 2874 4416 1997 4416 
L 570 4416 
z
M 1088 2496 
L 1088 4057 
L 1824 4057 
C 2483 4057 3002 3722 3002 3305 
C 3002 2925 2592 2496 1766 2496 
L 1088 2496 
z
M 1088 358 
L 1088 2105 
L 1939 2105 
C 2630 2105 3162 1678 3162 1206 
C 3162 772 2694 358 1984 358 
L 1088 358 
z
" id="CMSS17-42" transform="scale(0.015625)"/>
      </defs>
      <use transform="scale(0.996264)" xlink:href="#CMSS17-42"/>
      <use transform="translate(62.33804 0)scale(0.996264)" xlink:href="#CMSS17-61"/>
      <use transform="translate(107.259961 0)scale(0.996264)" xlink:href="#CMSS17-73"/>
      <use transform="translate(143.173503 0)scale(0.996264)" xlink:href="#CMSS17-65"/>
      <use transform="translate(184.812325 0)scale(0.996264)" xlink:href="#CMSS17-6c"/>
      <use transform="translate(206.993048 0)scale(0.996264)" xlink:href="#CMSS17-69"/>
      <use transform="translate(229.173771 0)scale(0.996264)" xlink:href="#CMSS17-6e"/>
      <use transform="translate(277.378714 0)scale(0.996264)" xlink:href="#CMSS17-65"/>
     </g>
    </g>
    <g id="line2d_30">
     <path d="M 83.415615 394.926564 
L 123.415615 394.926564 
" style="fill:none;stroke:#000000;stroke-dasharray:11.1,4.8;stroke-dashoffset:0;stroke-width:3;"/>
    </g>
    <g id="line2d_31">
     <g>
      <use style="stroke:#000000;stroke-linejoin:miter;" x="103.415615" xlink:href="#mfee971c3d8" y="394.926564"/>
     </g>
    </g>
    <g id="text_18">
     <!-- BatchNorm adaptation -->
     <g transform="translate(139.415615 401.926564)scale(0.2 -0.2)">
      <use transform="scale(0.996264)" xlink:href="#CMSS17-42"/>
      <use transform="translate(62.33804 0)scale(0.996264)" xlink:href="#CMSS17-61"/>
      <use transform="translate(107.259961 0)scale(0.996264)" xlink:href="#CMSS17-74"/>
      <use transform="translate(141.091527 0)scale(0.996264)" xlink:href="#CMSS17-63"/>
      <use transform="translate(182.73035 0)scale(0.996264)" xlink:href="#CMSS17-68"/>
      <use transform="translate(230.935293 0)scale(0.996264)" xlink:href="#CMSS17-4e"/>
      <use transform="translate(296.996812 0)scale(0.996264)" xlink:href="#CMSS17-6f"/>
      <use transform="translate(341.237981 0)scale(0.996264)" xlink:href="#CMSS17-72"/>
      <use transform="translate(373.147754 0)scale(0.996264)" xlink:href="#CMSS17-6d"/>
      <use transform="translate(478.606121 0)scale(0.996264)" xlink:href="#CMSS17-61"/>
      <use transform="translate(523.528042 0)scale(0.996264)" xlink:href="#CMSS17-64"/>
      <use transform="translate(571.732985 0)scale(0.996264)" xlink:href="#CMSS17-61"/>
      <use transform="translate(616.654906 0)scale(0.996264)" xlink:href="#CMSS17-70"/>
      <use transform="translate(664.859849 0)scale(0.996264)" xlink:href="#CMSS17-74"/>
      <use transform="translate(698.691415 0)scale(0.996264)" xlink:href="#CMSS17-61"/>
      <use transform="translate(743.613336 0)scale(0.996264)" xlink:href="#CMSS17-74"/>
      <use transform="translate(777.444903 0)scale(0.996264)" xlink:href="#CMSS17-69"/>
      <use transform="translate(799.625626 0)scale(0.996264)" xlink:href="#CMSS17-6f"/>
      <use transform="translate(846.469249 0)scale(0.996264)" xlink:href="#CMSS17-6e"/>
     </g>
    </g>
    <g id="line2d_32">
     <path d="M 83.415615 422.802197 
L 123.415615 422.802197 
" style="fill:none;stroke:#2b8cbe;stroke-linecap:square;stroke-width:3;"/>
    </g>
    <g id="line2d_33">
     <g>
      <use style="fill:#2b8cbe;stroke:#2b8cbe;stroke-linejoin:bevel;" x="103.415615" xlink:href="#m6c15188540" y="422.802197"/>
     </g>
    </g>
    <g id="text_19">
     <!-- Robust Pseudo-Labeling -->
     <g transform="translate(139.415615 429.802197)scale(0.2 -0.2)">
      <defs>
       <path d="M 954 4416 
L 480 4416 
L 480 -13 
L 966 -13 
L 966 275 
C 1210 38 1504 -64 1766 -64 
C 2381 -64 2880 559 2880 1382 
C 2880 2133 2496 2816 1926 2816 
C 1523 2816 1165 2649 954 2476 
L 954 4416 
z
M 966 2095 
C 1107 2276 1306 2425 1587 2425 
C 1965 2425 2394 2146 2394 1382 
C 2394 566 1882 326 1530 326 
C 1402 326 1267 358 1139 468 
C 966 624 966 721 966 812 
L 966 2095 
z
" id="CMSS17-62" transform="scale(0.015625)"/>
      </defs>
      <use transform="scale(0.996264)" xlink:href="#CMSS17-52"/>
      <use transform="translate(60.416155 0)scale(0.996264)" xlink:href="#CMSS17-6f"/>
      <use transform="translate(107.259778 0)scale(0.996264)" xlink:href="#CMSS17-62"/>
      <use transform="translate(155.464722 0)scale(0.996264)" xlink:href="#CMSS17-75"/>
      <use transform="translate(203.669665 0)scale(0.996264)" xlink:href="#CMSS17-73"/>
      <use transform="translate(239.583207 0)scale(0.996264)" xlink:href="#CMSS17-74"/>
      <use transform="translate(304.643886 0)scale(0.996264)" xlink:href="#CMSS17-50"/>
      <use transform="translate(364.379472 0)scale(0.996264)" xlink:href="#CMSS17-73"/>
      <use transform="translate(400.293014 0)scale(0.996264)" xlink:href="#CMSS17-65"/>
      <use transform="translate(441.931836 0)scale(0.996264)" xlink:href="#CMSS17-75"/>
      <use transform="translate(490.13678 0)scale(0.996264)" xlink:href="#CMSS17-64"/>
      <use transform="translate(538.341723 0)scale(0.996264)" xlink:href="#CMSS17-6f"/>
      <use transform="translate(585.185346 0)scale(0.996264)" xlink:href="#CMSS17-2d"/>
      <use transform="translate(616.414459 0)scale(0.996264)" xlink:href="#CMSS17-4c"/>
      <use transform="translate(667.101564 0)scale(0.996264)" xlink:href="#CMSS17-61"/>
      <use transform="translate(712.023485 0)scale(0.996264)" xlink:href="#CMSS17-62"/>
      <use transform="translate(762.830867 0)scale(0.996264)" xlink:href="#CMSS17-65"/>
      <use transform="translate(804.469689 0)scale(0.996264)" xlink:href="#CMSS17-6c"/>
      <use transform="translate(826.650412 0)scale(0.996264)" xlink:href="#CMSS17-69"/>
      <use transform="translate(848.831135 0)scale(0.996264)" xlink:href="#CMSS17-6e"/>
      <use transform="translate(897.036078 0)scale(0.996264)" xlink:href="#CMSS17-67"/>
     </g>
    </g>
   </g>
  </g>
  <g id="axes_2">
   <g id="patch_5">
    <path d="M 606.172615 219.377831 
L 697.972615 219.377831 
L 697.972615 78.977831 
L 606.172615 78.977831 
z
" style="fill:#ffffff;"/>
   </g>
   <g id="patch_6">
    <path clip-path="url(#p19f3ec5a6d)" d="M 610.345342 219.377831 
L 627.036251 219.377831 
L 627.036251 81.629831 
L 610.345342 81.629831 
z
" style="fill:#808080;"/>
   </g>
   <g id="patch_7">
    <path clip-path="url(#p19f3ec5a6d)" d="M 643.72716 219.377831 
L 660.418069 219.377831 
L 660.418069 167.897831 
L 643.72716 167.897831 
z
" style="fill:#333333;"/>
   </g>
   <g id="patch_8">
    <path clip-path="url(#p19f3ec5a6d)" d="M 677.108979 219.377831 
L 693.799888 219.377831 
L 693.799888 173.201831 
L 677.108979 173.201831 
z
" style="fill:#2b8cbe;"/>
   </g>
   <g id="matplotlib.axis_3">
    <g id="xtick_19">
     <g id="line2d_34">
      <g>
       <use style="stroke:#000000;stroke-width:2.5;" x="618.690797" xlink:href="#mf0338cabd4" y="219.377831"/>
      </g>
     </g>
     <g id="text_20">
      <!-- ViT-H -->
      <g transform="translate(607.093379 271.535768)rotate(-45)scale(0.16 -0.16)">
       <defs>
        <path d="M 3910 4416 
L 3411 4416 
L 2304 1361 
C 2272 1272 2074 687 2035 484 
L 2029 484 
C 1978 725 1773 1291 1664 1603 
L 922 3670 
L 646 4416 
L 83 4416 
L 1715 0 
L 2278 0 
L 3910 4416 
z
" id="CMSS17-56" transform="scale(0.015625)"/>
        <path d="M 2317 3987 
L 2848 3987 
C 2925 3987 3002 3980 3078 3980 
L 3878 3980 
L 3878 4396 
L 218 4396 
L 218 3980 
L 1018 3980 
C 1094 3980 1171 3987 1248 3987 
L 1779 3987 
L 1779 0 
L 2317 0 
L 2317 3987 
z
" id="CMSS17-54" transform="scale(0.015625)"/>
        <path d="M 3674 4416 
L 3136 4416 
L 3136 2496 
L 1101 2496 
L 1101 4416 
L 563 4416 
L 563 0 
L 1101 0 
L 1101 2105 
L 3136 2105 
L 3136 0 
L 3674 0 
L 3674 4416 
z
" id="CMSS17-48" transform="scale(0.015625)"/>
       </defs>
       <use transform="scale(0.996264)" xlink:href="#CMSS17-56"/>
       <use transform="translate(62.217855 0)scale(0.996264)" xlink:href="#CMSS17-69"/>
       <use transform="translate(84.398578 0)scale(0.996264)" xlink:href="#CMSS17-54"/>
       <use transform="translate(148.218032 0)scale(0.996264)" xlink:href="#CMSS17-2d"/>
       <use transform="translate(179.447145 0)scale(0.996264)" xlink:href="#CMSS17-48"/>
      </g>
     </g>
    </g>
    <g id="xtick_20">
     <g id="line2d_35">
      <g>
       <use style="stroke:#000000;stroke-width:2.5;" x="652.072615" xlink:href="#mf0338cabd4" y="219.377831"/>
      </g>
     </g>
     <g id="text_21">
      <!-- EffNet -->
      <g transform="translate(640.070782 272.344598)rotate(-45)scale(0.16 -0.16)">
       <use transform="scale(0.996264)" xlink:href="#CMSS17-45"/>
       <use transform="translate(55.892013 0)scale(0.996264)" xlink:href="#CMSS17-b"/>
       <use transform="translate(110.542983 0)scale(0.996264)" xlink:href="#CMSS17-4e"/>
       <use transform="translate(176.604503 0)scale(0.996264)" xlink:href="#CMSS17-65"/>
       <use transform="translate(218.243325 0)scale(0.996264)" xlink:href="#CMSS17-74"/>
      </g>
     </g>
    </g>
    <g id="xtick_21">
     <g id="line2d_36">
      <g>
       <use style="stroke:#000000;stroke-width:2.5;" x="685.454433" xlink:href="#mf0338cabd4" y="219.377831"/>
      </g>
     </g>
     <g id="text_22">
      <!-- +RPL -->
      <g transform="translate(673.938559 271.37268)rotate(-45)scale(0.16 -0.16)">
       <use transform="scale(0.996264)" xlink:href="#CMSS17-2b"/>
       <use transform="translate(72.867935 0)scale(0.996264)" xlink:href="#CMSS17-52"/>
       <use transform="translate(133.28409 0)scale(0.996264)" xlink:href="#CMSS17-50"/>
       <use transform="translate(193.019676 0)scale(0.996264)" xlink:href="#CMSS17-4c"/>
      </g>
     </g>
    </g>
   </g>
   <g id="matplotlib.axis_4">
    <g id="ytick_7">
     <g id="line2d_37">
      <path clip-path="url(#p19f3ec5a6d)" d="M 606.172615 188.177831 
L 697.972615 188.177831 
" style="fill:none;stroke:#ffffff;stroke-linecap:square;stroke-width:2;"/>
     </g>
    </g>
    <g id="ytick_8">
     <g id="line2d_38">
      <path clip-path="url(#p19f3ec5a6d)" d="M 606.172615 156.977831 
L 697.972615 156.977831 
" style="fill:none;stroke:#ffffff;stroke-linecap:square;stroke-width:2;"/>
     </g>
    </g>
    <g id="ytick_9">
     <g id="line2d_39">
      <path clip-path="url(#p19f3ec5a6d)" d="M 606.172615 125.777831 
L 697.972615 125.777831 
" style="fill:none;stroke:#ffffff;stroke-linecap:square;stroke-width:2;"/>
     </g>
    </g>
    <g id="ytick_10">
     <g id="line2d_40">
      <path clip-path="url(#p19f3ec5a6d)" d="M 606.172615 94.577831 
L 697.972615 94.577831 
" style="fill:none;stroke:#ffffff;stroke-linecap:square;stroke-width:2;"/>
     </g>
    </g>
    <g id="text_23">
     <!-- IN-A Top-1 Error -->
     <g transform="translate(583.573139 205.101753)rotate(-90)scale(0.16 -0.16)">
      <use transform="scale(0.996264)" xlink:href="#CMSS17-49"/>
      <use transform="translate(25.783926 0)scale(0.996264)" xlink:href="#CMSS17-4e"/>
      <use transform="translate(91.845445 0)scale(0.996264)" xlink:href="#CMSS17-2d"/>
      <use transform="translate(123.074557 0)scale(0.996264)" xlink:href="#CMSS17-41"/>
      <use transform="translate(216.521525 0)scale(0.996264)" xlink:href="#CMSS17-54"/>
      <use transform="translate(272.533724 0)scale(0.996264)" xlink:href="#CMSS17-6f"/>
      <use transform="translate(319.377347 0)scale(0.996264)" xlink:href="#CMSS17-70"/>
      <use transform="translate(367.58229 0)scale(0.996264)" xlink:href="#CMSS17-2d"/>
      <use transform="translate(398.811403 0)scale(0.996264)" xlink:href="#CMSS17-31"/>
      <use transform="translate(476.884139 0)scale(0.996264)" xlink:href="#CMSS17-45"/>
      <use transform="translate(532.776153 0)scale(0.996264)" xlink:href="#CMSS17-72"/>
      <use transform="translate(564.685925 0)scale(0.996264)" xlink:href="#CMSS17-72"/>
      <use transform="translate(596.595698 0)scale(0.996264)" xlink:href="#CMSS17-6f"/>
      <use transform="translate(640.836867 0)scale(0.996264)" xlink:href="#CMSS17-72"/>
     </g>
    </g>
   </g>
   <g id="patch_9">
    <path d="M 606.172615 219.377831 
L 697.972615 219.377831 
" style="fill:none;stroke:#000000;stroke-linecap:square;stroke-linejoin:miter;stroke-width:2.5;"/>
   </g>
   <g id="text_24">
    <!-- 44.1 -->
    <g transform="translate(603.668979 78.509831)scale(0.15 -0.15)">
     <defs>
      <path d="M 2253 1088 
L 2835 1088 
L 2835 1478 
L 2253 1478 
L 2253 4224 
L 1690 4224 
L 166 1478 
L 166 1088 
L 1747 1088 
L 1747 0 
L 2253 0 
L 2253 1088 
z
M 659 1478 
C 1030 2139 1766 3474 1766 3927 
L 1766 1478 
L 659 1478 
z
" id="CMSS17-34" transform="scale(0.015625)"/>
      <path d="M 1088 512 
L 576 512 
L 576 0 
L 1088 0 
L 1088 512 
z
" id="CMSS17-2e" transform="scale(0.015625)"/>
     </defs>
     <use transform="scale(0.996264)" xlink:href="#CMSS17-34"/>
     <use transform="translate(46.843624 0)scale(0.996264)" xlink:href="#CMSS17-34"/>
     <use transform="translate(93.687247 0)scale(0.996264)" xlink:href="#CMSS17-2e"/>
     <use transform="translate(119.711452 0)scale(0.996264)" xlink:href="#CMSS17-31"/>
    </g>
   </g>
   <g id="text_25">
    <!-- 16.5 -->
    <g transform="translate(637.050797 164.777831)scale(0.15 -0.15)">
     <defs>
      <path d="M 2496 4159 
C 2227 4268 2035 4288 1856 4288 
C 1024 4288 250 3408 250 2023 
C 250 268 986 -128 1510 -128 
C 1798 -128 2086 -39 2362 281 
C 2643 619 2752 900 2752 1392 
C 2752 2183 2362 2886 1779 2886 
C 1357 2886 992 2662 768 2381 
C 832 3290 1254 3897 1862 3897 
C 2029 3897 2246 3871 2496 3760 
L 2496 4159 
z
M 774 1372 
C 774 1423 774 1455 781 1551 
C 781 2049 1069 2496 1536 2496 
C 1837 2496 1990 2336 2106 2138 
C 2240 1889 2246 1653 2246 1392 
C 2246 1143 2246 894 2099 638 
C 1978 441 1818 268 1510 268 
C 902 268 800 1117 774 1372 
z
" id="CMSS17-36" transform="scale(0.015625)"/>
     </defs>
     <use transform="scale(0.996264)" xlink:href="#CMSS17-31"/>
     <use transform="translate(46.843624 0)scale(0.996264)" xlink:href="#CMSS17-36"/>
     <use transform="translate(93.687247 0)scale(0.996264)" xlink:href="#CMSS17-2e"/>
     <use transform="translate(119.711452 0)scale(0.996264)" xlink:href="#CMSS17-35"/>
    </g>
   </g>
   <g id="text_26">
    <!-- 14.8 -->
    <g transform="translate(670.432615 170.081831)scale(0.15 -0.15)">
     <defs>
      <path d="M 1933 2246 
C 2419 2406 2669 2793 2669 3174 
C 2669 3774 2157 4288 1504 4288 
C 826 4288 333 3755 333 3174 
C 333 2799 576 2412 1069 2246 
C 442 2003 250 1516 250 1152 
C 250 448 819 -128 1498 -128 
C 2202 -128 2752 460 2752 1152 
C 2752 1574 2502 2022 1933 2246 
z
M 1504 2438 
C 1075 2438 787 2728 787 3167 
C 787 3613 1075 3897 1504 3897 
C 1901 3897 2214 3639 2214 3167 
C 2214 2703 1907 2438 1504 2438 
z
M 1504 268 
C 1139 268 749 518 749 1158 
C 749 1817 1184 2048 1498 2048 
C 1843 2048 2253 1804 2253 1158 
C 2253 492 1830 268 1504 268 
z
" id="CMSS17-38" transform="scale(0.015625)"/>
     </defs>
     <use transform="scale(0.996264)" xlink:href="#CMSS17-31"/>
     <use transform="translate(46.843624 0)scale(0.996264)" xlink:href="#CMSS17-34"/>
     <use transform="translate(93.687247 0)scale(0.996264)" xlink:href="#CMSS17-2e"/>
     <use transform="translate(119.711452 0)scale(0.996264)" xlink:href="#CMSS17-38"/>
    </g>
   </g>
  </g>
  <g id="axes_3">
   <g id="patch_10">
    <path d="M 759.172615 219.377831 
L 850.972615 219.377831 
L 850.972615 78.977831 
L 759.172615 78.977831 
z
" style="fill:#ffffff;"/>
   </g>
   <g id="patch_11">
    <path clip-path="url(#p3d875be47b)" d="M 763.345342 219.377831 
L 780.036251 219.377831 
L 780.036251 125.497031 
L 763.345342 125.497031 
z
" style="fill:#808080;"/>
   </g>
   <g id="patch_12">
    <path clip-path="url(#p3d875be47b)" d="M 796.72716 219.377831 
L 813.418069 219.377831 
L 813.418069 146.057831 
L 796.72716 146.057831 
z
" style="fill:#333333;"/>
   </g>
   <g id="patch_13">
    <path clip-path="url(#p3d875be47b)" d="M 830.108979 219.377831 
L 846.799888 219.377831 
L 846.799888 165.089831 
L 830.108979 165.089831 
z
" style="fill:#2b8cbe;"/>
   </g>
   <g id="matplotlib.axis_5">
    <g id="xtick_22">
     <g id="line2d_41">
      <g>
       <use style="stroke:#000000;stroke-width:2.5;" x="771.690797" xlink:href="#mf0338cabd4" y="219.377831"/>
      </g>
     </g>
     <g id="text_27">
      <!-- ViT-H -->
      <g transform="translate(760.093379 271.535768)rotate(-45)scale(0.16 -0.16)">
       <use transform="scale(0.996264)" xlink:href="#CMSS17-56"/>
       <use transform="translate(62.217855 0)scale(0.996264)" xlink:href="#CMSS17-69"/>
       <use transform="translate(84.398578 0)scale(0.996264)" xlink:href="#CMSS17-54"/>
       <use transform="translate(148.218032 0)scale(0.996264)" xlink:href="#CMSS17-2d"/>
       <use transform="translate(179.447145 0)scale(0.996264)" xlink:href="#CMSS17-48"/>
      </g>
     </g>
    </g>
    <g id="xtick_23">
     <g id="line2d_42">
      <g>
       <use style="stroke:#000000;stroke-width:2.5;" x="805.072615" xlink:href="#mf0338cabd4" y="219.377831"/>
      </g>
     </g>
     <g id="text_28">
      <!-- EffNet -->
      <g transform="translate(793.070782 272.344598)rotate(-45)scale(0.16 -0.16)">
       <use transform="scale(0.996264)" xlink:href="#CMSS17-45"/>
       <use transform="translate(55.892013 0)scale(0.996264)" xlink:href="#CMSS17-b"/>
       <use transform="translate(110.542983 0)scale(0.996264)" xlink:href="#CMSS17-4e"/>
       <use transform="translate(176.604503 0)scale(0.996264)" xlink:href="#CMSS17-65"/>
       <use transform="translate(218.243325 0)scale(0.996264)" xlink:href="#CMSS17-74"/>
      </g>
     </g>
    </g>
    <g id="xtick_24">
     <g id="line2d_43">
      <g>
       <use style="stroke:#000000;stroke-width:2.5;" x="838.454433" xlink:href="#mf0338cabd4" y="219.377831"/>
      </g>
     </g>
     <g id="text_29">
      <!-- +RPL -->
      <g transform="translate(826.938559 271.37268)rotate(-45)scale(0.16 -0.16)">
       <use transform="scale(0.996264)" xlink:href="#CMSS17-2b"/>
       <use transform="translate(72.867935 0)scale(0.996264)" xlink:href="#CMSS17-52"/>
       <use transform="translate(133.28409 0)scale(0.996264)" xlink:href="#CMSS17-50"/>
       <use transform="translate(193.019676 0)scale(0.996264)" xlink:href="#CMSS17-4c"/>
      </g>
     </g>
    </g>
   </g>
   <g id="matplotlib.axis_6">
    <g id="ytick_11">
     <g id="line2d_44">
      <path clip-path="url(#p3d875be47b)" d="M 759.172615 188.177831 
L 850.972615 188.177831 
" style="fill:none;stroke:#ffffff;stroke-linecap:square;stroke-width:2;"/>
     </g>
    </g>
    <g id="ytick_12">
     <g id="line2d_45">
      <path clip-path="url(#p3d875be47b)" d="M 759.172615 156.977831 
L 850.972615 156.977831 
" style="fill:none;stroke:#ffffff;stroke-linecap:square;stroke-width:2;"/>
     </g>
    </g>
    <g id="ytick_13">
     <g id="line2d_46">
      <path clip-path="url(#p3d875be47b)" d="M 759.172615 125.777831 
L 850.972615 125.777831 
" style="fill:none;stroke:#ffffff;stroke-linecap:square;stroke-width:2;"/>
     </g>
    </g>
    <g id="ytick_14">
     <g id="line2d_47">
      <path clip-path="url(#p3d875be47b)" d="M 759.172615 94.577831 
L 850.972615 94.577831 
" style="fill:none;stroke:#ffffff;stroke-linecap:square;stroke-width:2;"/>
     </g>
    </g>
    <g id="text_30">
     <!-- IN-R Top-1 Error -->
     <g transform="translate(736.573139 204.967992)rotate(-90)scale(0.16 -0.16)">
      <use transform="scale(0.996264)" xlink:href="#CMSS17-49"/>
      <use transform="translate(25.783926 0)scale(0.996264)" xlink:href="#CMSS17-4e"/>
      <use transform="translate(91.845445 0)scale(0.996264)" xlink:href="#CMSS17-2d"/>
      <use transform="translate(123.074557 0)scale(0.996264)" xlink:href="#CMSS17-52"/>
      <use transform="translate(214.719825 0)scale(0.996264)" xlink:href="#CMSS17-54"/>
      <use transform="translate(270.732024 0)scale(0.996264)" xlink:href="#CMSS17-6f"/>
      <use transform="translate(317.575647 0)scale(0.996264)" xlink:href="#CMSS17-70"/>
      <use transform="translate(365.78059 0)scale(0.996264)" xlink:href="#CMSS17-2d"/>
      <use transform="translate(397.009703 0)scale(0.996264)" xlink:href="#CMSS17-31"/>
      <use transform="translate(475.082439 0)scale(0.996264)" xlink:href="#CMSS17-45"/>
      <use transform="translate(530.974452 0)scale(0.996264)" xlink:href="#CMSS17-72"/>
      <use transform="translate(562.884225 0)scale(0.996264)" xlink:href="#CMSS17-72"/>
      <use transform="translate(594.793998 0)scale(0.996264)" xlink:href="#CMSS17-6f"/>
      <use transform="translate(639.035167 0)scale(0.996264)" xlink:href="#CMSS17-72"/>
     </g>
    </g>
   </g>
   <g id="patch_14">
    <path d="M 759.172615 219.377831 
L 850.972615 219.377831 
" style="fill:none;stroke:#000000;stroke-linecap:square;stroke-linejoin:miter;stroke-width:2.5;"/>
   </g>
   <g id="text_31">
    <!-- 30.1 -->
    <g transform="translate(756.668979 122.377031)scale(0.15 -0.15)">
     <defs>
      <path d="M 1005 2060 
L 1440 2060 
C 2042 2060 2214 1532 2214 1164 
C 2214 662 1933 268 1472 268 
C 1114 268 608 449 320 926 
C 275 700 275 687 250 533 
C 550 89 1037 -128 1485 -128 
C 2214 -128 2752 481 2752 1158 
C 2752 1667 2400 2092 1920 2252 
C 2304 2463 2586 2860 2586 3321 
C 2586 3859 2093 4288 1491 4288 
C 941 4288 512 3948 333 3583 
C 378 3519 493 3334 550 3238 
C 691 3615 1056 3897 1485 3897 
C 1843 3897 2080 3660 2080 3321 
C 2080 2969 1856 2585 1478 2496 
C 1453 2496 1056 2457 1005 2451 
L 1005 2060 
z
" id="CMSS17-33" transform="scale(0.015625)"/>
     </defs>
     <use transform="scale(0.996264)" xlink:href="#CMSS17-33"/>
     <use transform="translate(46.843624 0)scale(0.996264)" xlink:href="#CMSS17-30"/>
     <use transform="translate(93.687247 0)scale(0.996264)" xlink:href="#CMSS17-2e"/>
     <use transform="translate(119.711452 0)scale(0.996264)" xlink:href="#CMSS17-31"/>
    </g>
   </g>
   <g id="text_32">
    <!-- 23.5 -->
    <g transform="translate(790.050797 142.937831)scale(0.15 -0.15)">
     <use transform="scale(0.996264)" xlink:href="#CMSS17-32"/>
     <use transform="translate(46.843624 0)scale(0.996264)" xlink:href="#CMSS17-33"/>
     <use transform="translate(93.687247 0)scale(0.996264)" xlink:href="#CMSS17-2e"/>
     <use transform="translate(119.711452 0)scale(0.996264)" xlink:href="#CMSS17-35"/>
    </g>
   </g>
   <g id="text_33">
    <!-- 17.4 -->
    <g transform="translate(823.432615 161.969831)scale(0.15 -0.15)">
     <defs>
      <path d="M 1389 3788 
C 1466 3788 1542 3795 1619 3795 
L 2355 3795 
C 1440 2715 915 1350 915 -64 
L 1427 -64 
C 1427 1305 1875 2695 2752 3807 
L 2752 4224 
L 250 4224 
L 250 3788 
L 1389 3788 
z
" id="CMSS17-37" transform="scale(0.015625)"/>
     </defs>
     <use transform="scale(0.996264)" xlink:href="#CMSS17-31"/>
     <use transform="translate(46.843624 0)scale(0.996264)" xlink:href="#CMSS17-37"/>
     <use transform="translate(93.687247 0)scale(0.996264)" xlink:href="#CMSS17-2e"/>
     <use transform="translate(119.711452 0)scale(0.996264)" xlink:href="#CMSS17-34"/>
    </g>
   </g>
  </g>
  <g id="axes_4">
   <g id="patch_15">
    <path d="M 606.172615 476.777831 
L 697.972615 476.777831 
L 697.972615 336.377831 
L 606.172615 336.377831 
z
" style="fill:#ffffff;"/>
   </g>
   <g id="matplotlib.axis_7">
    <g id="xtick_25">
     <g id="line2d_48">
      <g>
       <use style="stroke:#000000;stroke-width:2.5;" x="619.286901" xlink:href="#mf0338cabd4" y="476.777831"/>
      </g>
     </g>
     <g id="text_34">
      <!-- off -->
      <g transform="translate(608.122499 507.498524)scale(0.22 -0.22)">
       <use transform="scale(0.996264)" xlink:href="#CMSS17-6f"/>
       <use transform="translate(46.843624 0)scale(0.996264)" xlink:href="#CMSS17-b"/>
      </g>
     </g>
    </g>
    <g id="xtick_26">
     <g id="line2d_49">
      <g>
       <use style="stroke:#000000;stroke-width:2.5;" x="684.858329" xlink:href="#mf0338cabd4" y="476.777831"/>
      </g>
     </g>
     <g id="text_35">
      <!-- on -->
      <g transform="translate(674.402992 507.498524)scale(0.22 -0.22)">
       <use transform="scale(0.996264)" xlink:href="#CMSS17-6f"/>
       <use transform="translate(46.843624 0)scale(0.996264)" xlink:href="#CMSS17-6e"/>
      </g>
     </g>
    </g>
    <g id="text_36">
     <!-- DeepAug+AM -->
     <g transform="translate(583.306189 532.366117)scale(0.24 -0.24)">
      <use transform="scale(0.996264)" xlink:href="#CMSS17-44"/>
      <use transform="translate(67.542842 0)scale(0.996264)" xlink:href="#CMSS17-65"/>
      <use transform="translate(109.181664 0)scale(0.996264)" xlink:href="#CMSS17-65"/>
      <use transform="translate(150.820486 0)scale(0.996264)" xlink:href="#CMSS17-70"/>
      <use transform="translate(199.025429 0)scale(0.996264)" xlink:href="#CMSS17-41"/>
      <use transform="translate(261.243284 0)scale(0.996264)" xlink:href="#CMSS17-75"/>
      <use transform="translate(309.448227 0)scale(0.996264)" xlink:href="#CMSS17-67"/>
      <use transform="translate(356.291851 0)scale(0.996264)" xlink:href="#CMSS17-2b"/>
      <use transform="translate(429.159785 0)scale(0.996264)" xlink:href="#CMSS17-41"/>
      <use transform="translate(491.37764 0)scale(0.996264)" xlink:href="#CMSS17-4d"/>
     </g>
    </g>
   </g>
   <g id="matplotlib.axis_8">
    <g id="ytick_15">
     <g id="line2d_50">
      <g>
       <use style="stroke:#000000;stroke-width:2.5;" x="606.172615" xlink:href="#mce1ee6d8b4" y="441.677831"/>
      </g>
     </g>
     <g id="text_37">
      <!-- $\mathdefault{40}$ -->
      <g transform="translate(570.568805 449.288177)scale(0.22 -0.22)">
       <use transform="scale(0.996264)" xlink:href="#CMR17-34"/>
       <use transform="translate(45.690477 0)scale(0.996264)" xlink:href="#CMR17-30"/>
      </g>
     </g>
    </g>
    <g id="ytick_16">
     <g id="line2d_51">
      <g>
       <use style="stroke:#000000;stroke-width:2.5;" x="606.172615" xlink:href="#mce1ee6d8b4" y="406.577831"/>
      </g>
     </g>
     <g id="text_38">
      <!-- $\mathdefault{50}$ -->
      <g transform="translate(570.568805 414.188177)scale(0.22 -0.22)">
       <use transform="scale(0.996264)" xlink:href="#CMR17-35"/>
       <use transform="translate(45.690477 0)scale(0.996264)" xlink:href="#CMR17-30"/>
      </g>
     </g>
    </g>
    <g id="ytick_17">
     <g id="line2d_52">
      <g>
       <use style="stroke:#000000;stroke-width:2.5;" x="606.172615" xlink:href="#mce1ee6d8b4" y="371.477831"/>
      </g>
     </g>
     <g id="text_39">
      <!-- $\mathdefault{60}$ -->
      <g transform="translate(570.568805 379.088177)scale(0.22 -0.22)">
       <use transform="scale(0.996264)" xlink:href="#CMR17-36"/>
       <use transform="translate(45.690477 0)scale(0.996264)" xlink:href="#CMR17-30"/>
      </g>
     </g>
    </g>
   </g>
   <g id="line2d_53">
    <path clip-path="url(#p4d298f27ca)" d="M 619.286901 348.311831 
L 684.858329 425.882831 
" style="fill:none;stroke:#000000;stroke-dasharray:3,4.95;stroke-dashoffset:0;stroke-width:3;"/>
    <g clip-path="url(#p4d298f27ca)">
     <use style="stroke:#000000;" x="619.286901" xlink:href="#mebc8ef9c07" y="348.311831"/>
     <use style="stroke:#000000;" x="684.858329" xlink:href="#mebc8ef9c07" y="425.882831"/>
    </g>
   </g>
   <g id="line2d_54">
    <path clip-path="url(#p4d298f27ca)" d="M 619.286901 382.709831 
L 684.858329 448.346831 
" style="fill:none;stroke:#000000;stroke-dasharray:11.1,4.8;stroke-dashoffset:0;stroke-width:3;"/>
    <g clip-path="url(#p4d298f27ca)">
     <use style="stroke:#000000;stroke-linejoin:miter;" x="619.286901" xlink:href="#mfee971c3d8" y="382.709831"/>
     <use style="stroke:#000000;stroke-linejoin:miter;" x="684.858329" xlink:href="#mfee971c3d8" y="448.346831"/>
    </g>
   </g>
   <g id="line2d_55">
    <path clip-path="url(#p4d298f27ca)" d="M 619.286901 430.445831 
L 684.858329 459.929831 
" style="fill:none;stroke:#2b8cbe;stroke-linecap:square;stroke-width:3;"/>
    <g clip-path="url(#p4d298f27ca)">
     <use style="fill:#2b8cbe;stroke:#2b8cbe;stroke-linejoin:bevel;" x="619.286901" xlink:href="#m6c15188540" y="430.445831"/>
     <use style="fill:#2b8cbe;stroke:#2b8cbe;stroke-linejoin:bevel;" x="684.858329" xlink:href="#m6c15188540" y="459.929831"/>
    </g>
   </g>
   <g id="patch_16">
    <path d="M 606.172615 441.677831 
L 606.172615 371.477831 
" style="fill:none;stroke:#000000;stroke-linecap:square;stroke-linejoin:miter;stroke-width:2.5;"/>
   </g>
   <g id="patch_17">
    <path d="M 619.286901 476.777831 
L 684.858329 476.777831 
" style="fill:none;stroke:#000000;stroke-linecap:square;stroke-linejoin:miter;stroke-width:2.5;"/>
   </g>
  </g>
  <g id="axes_5">
   <g id="patch_18">
    <path d="M 759.172615 476.777831 
L 850.972615 476.777831 
L 850.972615 336.377831 
L 759.172615 336.377831 
z
" style="fill:#ffffff;"/>
   </g>
   <g id="matplotlib.axis_9">
    <g id="xtick_27">
     <g id="line2d_56">
      <g>
       <use style="stroke:#000000;stroke-width:2.5;" x="772.286901" xlink:href="#mf0338cabd4" y="476.777831"/>
      </g>
     </g>
     <g id="text_40">
      <!-- IN-1k -->
      <g transform="translate(748.579645 507.498524)scale(0.22 -0.22)">
       <use transform="scale(0.996264)" xlink:href="#CMSS17-49"/>
       <use transform="translate(25.783926 0)scale(0.996264)" xlink:href="#CMSS17-4e"/>
       <use transform="translate(91.845445 0)scale(0.996264)" xlink:href="#CMSS17-2d"/>
       <use transform="translate(123.074557 0)scale(0.996264)" xlink:href="#CMSS17-31"/>
       <use transform="translate(169.918181 0)scale(0.996264)" xlink:href="#CMSS17-6b"/>
      </g>
     </g>
    </g>
    <g id="xtick_28">
     <g id="line2d_57">
      <g>
       <use style="stroke:#000000;stroke-width:2.5;" x="837.858329" xlink:href="#mf0338cabd4" y="476.777831"/>
      </g>
     </g>
     <g id="text_41">
      <!-- IG-3.5B -->
      <g transform="translate(804.691065 507.498524)scale(0.22 -0.22)">
       <defs>
        <path d="M 3610 1868 
L 2336 1868 
L 2336 1472 
L 3123 1472 
L 3123 473 
C 2874 403 2618 352 2362 352 
C 1466 352 934 1311 934 2220 
C 934 3123 1491 4070 2362 4070 
C 2854 4070 3130 3916 3469 3660 
L 3552 4172 
C 3130 4390 2867 4480 2387 4480 
C 1146 4480 397 3353 397 2201 
C 397 1100 1152 -64 2349 -64 
C 2797 -64 3213 51 3610 249 
L 3610 1868 
z
" id="CMSS17-47" transform="scale(0.015625)"/>
       </defs>
       <use transform="scale(0.996264)" xlink:href="#CMSS17-49"/>
       <use transform="translate(25.783926 0)scale(0.996264)" xlink:href="#CMSS17-47"/>
       <use transform="translate(88.242151 0)scale(0.996264)" xlink:href="#CMSS17-2d"/>
       <use transform="translate(119.471264 0)scale(0.996264)" xlink:href="#CMSS17-33"/>
       <use transform="translate(166.314887 0)scale(0.996264)" xlink:href="#CMSS17-2e"/>
       <use transform="translate(192.339092 0)scale(0.996264)" xlink:href="#CMSS17-35"/>
       <use transform="translate(239.182716 0)scale(0.996264)" xlink:href="#CMSS17-42"/>
      </g>
     </g>
    </g>
    <g id="text_42">
     <!-- Data -->
     <g transform="translate(782.126429 532.366117)scale(0.24 -0.24)">
      <use transform="scale(0.996264)" xlink:href="#CMSS17-44"/>
      <use transform="translate(67.542842 0)scale(0.996264)" xlink:href="#CMSS17-61"/>
      <use transform="translate(112.464762 0)scale(0.996264)" xlink:href="#CMSS17-74"/>
      <use transform="translate(146.296329 0)scale(0.996264)" xlink:href="#CMSS17-61"/>
     </g>
    </g>
   </g>
   <g id="matplotlib.axis_10">
    <g id="ytick_18">
     <g id="line2d_58">
      <g>
       <use style="stroke:#000000;stroke-width:2.5;" x="759.172615" xlink:href="#mce1ee6d8b4" y="441.677831"/>
      </g>
     </g>
     <g id="text_43">
      <!-- $\mathdefault{40}$ -->
      <g transform="translate(723.568805 449.288177)scale(0.22 -0.22)">
       <use transform="scale(0.996264)" xlink:href="#CMR17-34"/>
       <use transform="translate(45.690477 0)scale(0.996264)" xlink:href="#CMR17-30"/>
      </g>
     </g>
    </g>
    <g id="ytick_19">
     <g id="line2d_59">
      <g>
       <use style="stroke:#000000;stroke-width:2.5;" x="759.172615" xlink:href="#mce1ee6d8b4" y="406.577831"/>
      </g>
     </g>
     <g id="text_44">
      <!-- $\mathdefault{50}$ -->
      <g transform="translate(723.568805 414.188177)scale(0.22 -0.22)">
       <use transform="scale(0.996264)" xlink:href="#CMR17-35"/>
       <use transform="translate(45.690477 0)scale(0.996264)" xlink:href="#CMR17-30"/>
      </g>
     </g>
    </g>
    <g id="ytick_20">
     <g id="line2d_60">
      <g>
       <use style="stroke:#000000;stroke-width:2.5;" x="759.172615" xlink:href="#mce1ee6d8b4" y="371.477831"/>
      </g>
     </g>
     <g id="text_45">
      <!-- $\mathdefault{60}$ -->
      <g transform="translate(723.568805 379.088177)scale(0.22 -0.22)">
       <use transform="scale(0.996264)" xlink:href="#CMR17-36"/>
       <use transform="translate(45.690477 0)scale(0.996264)" xlink:href="#CMR17-30"/>
      </g>
     </g>
    </g>
   </g>
   <g id="line2d_61">
    <path clip-path="url(#pd4d1aade85)" d="M 772.286901 348.311831 
L 837.858329 400.610831 
" style="fill:none;stroke:#000000;stroke-dasharray:3,4.95;stroke-dashoffset:0;stroke-width:3;"/>
    <g clip-path="url(#pd4d1aade85)">
     <use style="stroke:#000000;" x="772.286901" xlink:href="#mebc8ef9c07" y="348.311831"/>
     <use style="stroke:#000000;" x="837.858329" xlink:href="#mebc8ef9c07" y="400.610831"/>
    </g>
   </g>
   <g id="line2d_62">
    <path clip-path="url(#pd4d1aade85)" d="M 772.286901 382.709831 
L 837.858329 400.259831 
" style="fill:none;stroke:#000000;stroke-dasharray:11.1,4.8;stroke-dashoffset:0;stroke-width:3;"/>
    <g clip-path="url(#pd4d1aade85)">
     <use style="stroke:#000000;stroke-linejoin:miter;" x="772.286901" xlink:href="#mfee971c3d8" y="382.709831"/>
     <use style="stroke:#000000;stroke-linejoin:miter;" x="837.858329" xlink:href="#mfee971c3d8" y="400.259831"/>
    </g>
   </g>
   <g id="line2d_63">
    <path clip-path="url(#pd4d1aade85)" d="M 772.286901 430.445831 
L 837.858329 438.518831 
" style="fill:none;stroke:#2b8cbe;stroke-linecap:square;stroke-width:3;"/>
    <g clip-path="url(#pd4d1aade85)">
     <use style="fill:#2b8cbe;stroke:#2b8cbe;stroke-linejoin:bevel;" x="772.286901" xlink:href="#m6c15188540" y="430.445831"/>
     <use style="fill:#2b8cbe;stroke:#2b8cbe;stroke-linejoin:bevel;" x="837.858329" xlink:href="#m6c15188540" y="438.518831"/>
    </g>
   </g>
   <g id="patch_19">
    <path d="M 759.172615 441.677831 
L 759.172615 371.477831 
" style="fill:none;stroke:#000000;stroke-linecap:square;stroke-linejoin:miter;stroke-width:2.5;"/>
   </g>
   <g id="patch_20">
    <path d="M 772.286901 476.777831 
L 837.858329 476.777831 
" style="fill:none;stroke:#000000;stroke-linecap:square;stroke-linejoin:miter;stroke-width:2.5;"/>
   </g>
  </g>
 </g>
 <defs>
  <clipPath id="p4476f506e6">
   <rect height="353.34" width="474.3" x="70.672615" y="88.337831"/>
  </clipPath>
  <clipPath id="p19f3ec5a6d">
   <rect height="140.4" width="91.8" x="606.172615" y="78.977831"/>
  </clipPath>
  <clipPath id="p3d875be47b">
   <rect height="140.4" width="91.8" x="759.172615" y="78.977831"/>
  </clipPath>
  <clipPath id="p4d298f27ca">
   <rect height="140.4" width="91.8" x="606.172615" y="336.377831"/>
  </clipPath>
  <clipPath id="pd4d1aade85">
   <rect height="140.4" width="91.8" x="759.172615" y="336.377831"/>
  </clipPath>
 </defs>
</svg>
