<svg width="1117" height="151" viewBox="0 0 1117 151" xmlns="http://www.w3.org/2000/svg">
<rect width="100%" height="100%" fill="white" rx="15px"/>
<path d="M45.5292 31.5006C29.3028 34.3172 24.7594 53.6003 26.2738 67.9002C27.572 79.6 37.0915 100.616 52.2362 97.5831C73.006 93.2498 72.1406 75.4834 72.1406 57.9336C72.3569 42.1171 61.7557 29.9839 45.5292 31.0673C43.7984 31.2839 43.7984 33.8839 45.5292 33.8839C60.6739 32.8006 69.1117 43.8504 69.5444 57.9336C69.9771 70.5001 71.4915 84.3666 59.5921 91.9499C32.1154 109.283 12.4273 39.9505 46.3946 34.1006C48.1255 33.6672 47.26 31.0673 45.5292 31.5006Z" fill="black"/>
<path d="M44.0147 33.6672C60.8902 45.5837 41.2021 76.7834 48.1254 94.1165C48.7745 95.6331 51.3707 94.9831 50.7216 93.4665C43.3656 74.8334 65.0009 44.9338 45.5292 31.2839C44.0147 30.2006 42.7166 32.5839 44.0147 33.6672Z" fill="black"/>
<path d="M73.4388 123.583C68.0299 109.066 69.9771 97.3664 81.0111 86.5332C90.0979 77.65 107.19 72.2334 117.575 81.5499C140.724 102.566 93.3432 143.299 73.4388 123.583C71.9243 122.499 70.1935 124.449 71.2752 125.749C93.1269 147.199 138.777 108.633 122.118 82.6333C113.248 68.9834 95.7231 73.5334 84.2564 80.6833C68.2463 90.6498 64.5683 107.55 70.8425 124.449C71.4916 125.966 74.0878 125.099 73.4388 123.583Z" fill="black"/>
<path d="M74.9532 124.449C73.2224 106.9 96.5884 105.816 107.622 98.6664C114.978 93.8998 116.493 84.7999 115.627 76.5667C115.411 74.8334 112.815 74.8334 112.815 76.5667C113.897 86.7499 110.435 94.3332 101.132 99.0998C95.9394 101.7 89.8815 102.566 84.6891 105.166C76.9004 109.066 71.2752 114.916 72.1406 124.233C72.357 126.183 75.1695 126.183 74.9532 124.449Z" fill="black"/>
<path d="M96 59.28C95.1467 59.28 94.5467 59.1067 94.2 58.76C93.8533 58.4133 93.68 57.96 93.68 57.4V56.84C93.68 56.3067 93.8533 55.8667 94.2 55.52C94.5467 55.1467 95.1467 54.96 96 54.96C96.8533 54.96 97.4533 55.1467 97.8 55.52C98.1467 55.8667 98.32 56.3067 98.32 56.84V57.4C98.32 57.96 98.1467 58.4133 97.8 58.76C97.4533 59.1067 96.8533 59.28 96 59.28ZM96 42.36C95.1467 42.36 94.5467 42.1867 94.2 41.84C93.8533 41.4933 93.68 41.04 93.68 40.48V39.92C93.68 39.3867 93.8533 38.9467 94.2 38.6C94.5467 38.2267 95.1467 38.04 96 38.04C96.8533 38.04 97.4533 38.2267 97.8 38.6C98.1467 38.9467 98.32 39.3867 98.32 39.92V40.48C98.32 41.04 98.1467 41.4933 97.8 41.84C97.4533 42.1867 96.8533 42.36 96 42.36ZM242.251 59V38.36H244.531V41.56H244.691C245.091 40.6 245.757 39.7467 246.691 39C247.651 38.2533 248.997 37.88 250.731 37.88C252.971 37.88 254.704 38.56 255.931 39.92C257.184 41.2533 257.811 43.1733 257.811 45.68V59H255.531V46.08C255.531 43.9467 255.064 42.3867 254.131 41.4C253.224 40.4133 251.891 39.92 250.131 39.92C249.411 39.92 248.717 40.0133 248.051 40.2C247.384 40.3867 246.784 40.6667 246.251 41.04C245.744 41.4133 245.331 41.8933 245.011 42.48C244.691 43.04 244.531 43.7067 244.531 44.48V59H242.251ZM272.195 59.48C269.315 59.48 267.048 58.5467 265.395 56.68C263.768 54.7867 262.955 52.1333 262.955 48.72C262.955 47.0133 263.168 45.4933 263.595 44.16C264.022 42.8 264.622 41.6667 265.395 40.76C266.195 39.8267 267.155 39.12 268.275 38.64C269.395 38.1333 270.635 37.88 271.995 37.88C273.382 37.88 274.622 38.1333 275.715 38.64C276.808 39.12 277.728 39.8133 278.475 40.72C279.248 41.6267 279.835 42.7067 280.235 43.96C280.635 45.2133 280.835 46.6 280.835 48.12V49.12H265.355V50.12C265.355 52.3333 265.955 54.12 267.155 55.48C268.355 56.8133 270.035 57.48 272.195 57.48C273.715 57.48 275.008 57.1333 276.075 56.44C277.168 55.7467 278.008 54.72 278.595 53.36L280.315 54.44C279.702 55.96 278.702 57.1867 277.315 58.12C275.928 59.0267 274.222 59.48 272.195 59.48ZM271.995 39.8C270.982 39.8 270.062 39.9867 269.235 40.36C268.435 40.7067 267.742 41.2 267.155 41.84C266.595 42.48 266.155 43.2533 265.835 44.16C265.515 45.0667 265.355 46.0667 265.355 47.16V47.4H278.395V47.08C278.395 44.84 277.822 43.0667 276.675 41.76C275.555 40.4533 273.995 39.8 271.995 39.8ZM294.299 59.48C292.219 59.48 290.406 59.1333 288.859 58.44C287.339 57.72 286.019 56.72 284.899 55.44L286.459 54.08C287.473 55.2533 288.606 56.1333 289.859 56.72C291.113 57.28 292.606 57.56 294.339 57.56C296.153 57.56 297.619 57.2133 298.739 56.52C299.886 55.8267 300.459 54.76 300.459 53.32C300.459 52.68 300.339 52.16 300.099 51.76C299.886 51.3333 299.579 50.9867 299.179 50.72C298.779 50.4533 298.313 50.2533 297.779 50.12C297.246 49.96 296.659 49.84 296.019 49.76L292.819 49.32C292.019 49.2133 291.206 49.0667 290.379 48.88C289.579 48.6667 288.846 48.36 288.179 47.96C287.539 47.56 287.006 47.0267 286.579 46.36C286.179 45.6933 285.979 44.84 285.979 43.8C285.979 42.7867 286.179 41.9067 286.579 41.16C286.979 40.4133 287.539 39.8 288.259 39.32C288.979 38.84 289.819 38.48 290.779 38.24C291.766 38 292.819 37.88 293.939 37.88C295.859 37.88 297.473 38.2 298.779 38.84C300.113 39.4533 301.233 40.2267 302.139 41.16L300.619 42.6C300.326 42.28 299.979 41.96 299.579 41.64C299.206 41.2933 298.739 40.9867 298.179 40.72C297.646 40.4533 297.019 40.24 296.299 40.08C295.579 39.8933 294.753 39.8 293.819 39.8C292.059 39.8 290.686 40.12 289.699 40.76C288.739 41.4 288.259 42.36 288.259 43.64C288.259 44.28 288.366 44.8133 288.579 45.24C288.819 45.64 289.139 45.9733 289.539 46.24C289.939 46.5067 290.406 46.72 290.939 46.88C291.473 47.0133 292.046 47.12 292.659 47.2L295.899 47.68C296.699 47.8133 297.499 47.9867 298.299 48.2C299.126 48.3867 299.859 48.68 300.499 49.08C301.166 49.48 301.699 50.0133 302.099 50.68C302.499 51.32 302.699 52.16 302.699 53.2C302.699 54.24 302.486 55.1467 302.059 55.92C301.659 56.6933 301.086 57.3467 300.339 57.88C299.619 58.4133 298.739 58.8133 297.699 59.08C296.659 59.3467 295.526 59.48 294.299 59.48ZM316.284 59.48C314.204 59.48 312.39 59.1333 310.844 58.44C309.324 57.72 308.004 56.72 306.884 55.44L308.444 54.08C309.457 55.2533 310.59 56.1333 311.844 56.72C313.097 57.28 314.59 57.56 316.324 57.56C318.137 57.56 319.604 57.2133 320.724 56.52C321.87 55.8267 322.444 54.76 322.444 53.32C322.444 52.68 322.324 52.16 322.084 51.76C321.87 51.3333 321.564 50.9867 321.164 50.72C320.764 50.4533 320.297 50.2533 319.764 50.12C319.23 49.96 318.644 49.84 318.004 49.76L314.804 49.32C314.004 49.2133 313.19 49.0667 312.364 48.88C311.564 48.6667 310.83 48.36 310.164 47.96C309.524 47.56 308.99 47.0267 308.564 46.36C308.164 45.6933 307.964 44.84 307.964 43.8C307.964 42.7867 308.164 41.9067 308.564 41.16C308.964 40.4133 309.524 39.8 310.244 39.32C310.964 38.84 311.804 38.48 312.764 38.24C313.75 38 314.804 37.88 315.924 37.88C317.844 37.88 319.457 38.2 320.764 38.84C322.097 39.4533 323.217 40.2267 324.124 41.16L322.604 42.6C322.31 42.28 321.964 41.96 321.564 41.64C321.19 41.2933 320.724 40.9867 320.164 40.72C319.63 40.4533 319.004 40.24 318.284 40.08C317.564 39.8933 316.737 39.8 315.804 39.8C314.044 39.8 312.67 40.12 311.684 40.76C310.724 41.4 310.244 42.36 310.244 43.64C310.244 44.28 310.35 44.8133 310.564 45.24C310.804 45.64 311.124 45.9733 311.524 46.24C311.924 46.5067 312.39 46.72 312.924 46.88C313.457 47.0133 314.03 47.12 314.644 47.2L317.884 47.68C318.684 47.8133 319.484 47.9867 320.284 48.2C321.11 48.3867 321.844 48.68 322.484 49.08C323.15 49.48 323.684 50.0133 324.084 50.68C324.484 51.32 324.684 52.16 324.684 53.2C324.684 54.24 324.47 55.1467 324.044 55.92C323.644 56.6933 323.07 57.3467 322.324 57.88C321.604 58.4133 320.724 58.8133 319.684 59.08C318.644 59.3467 317.51 59.48 316.284 59.48ZM180.818 104.48C179.618 104.48 178.538 104.293 177.578 103.92C176.644 103.52 175.844 102.987 175.178 102.32C174.538 101.627 174.044 100.827 173.698 99.92C173.378 98.9867 173.218 97.9733 173.218 96.88C173.218 96.1333 173.298 95.3867 173.458 94.64C173.618 93.8667 173.898 93.12 174.298 92.4C174.724 91.68 175.271 91 175.938 90.36C176.631 89.72 177.498 89.1333 178.538 88.6C177.764 87.6667 177.124 86.68 176.618 85.64C176.111 84.5733 175.858 83.4267 175.858 82.2C175.858 81.2133 176.031 80.32 176.378 79.52C176.724 78.6933 177.191 78 177.778 77.44C178.391 76.8533 179.111 76.4 179.938 76.08C180.791 75.76 181.698 75.6 182.658 75.6C183.511 75.6 184.284 75.72 184.978 75.96C185.671 76.2 186.284 76.5067 186.818 76.88C187.378 77.2533 187.844 77.6933 188.218 78.2C188.591 78.68 188.884 79.1733 189.098 79.68L187.178 80.68C186.804 79.8 186.231 79.0667 185.458 78.48C184.711 77.8667 183.751 77.56 182.578 77.56C181.191 77.56 180.098 77.9733 179.298 78.8C178.524 79.6 178.138 80.68 178.138 82.04V82.48C178.138 83.3867 178.364 84.28 178.818 85.16C179.271 86.04 179.964 87.0533 180.898 88.2L188.178 96.96H188.338C188.551 95.9733 188.698 94.84 188.778 93.56C188.884 92.2533 188.991 90.7733 189.098 89.12H194.098V91.08H191.018C190.858 92.6533 190.684 94 190.498 95.12C190.338 96.24 190.044 97.3467 189.618 98.44L194.338 104H191.618L188.058 99.8H187.898C187.364 101.24 186.498 102.387 185.298 103.24C184.098 104.067 182.604 104.48 180.818 104.48ZM181.338 102.44C182.698 102.44 183.871 102.133 184.858 101.52C185.871 100.907 186.658 100.053 187.218 98.96L179.618 89.96C178.098 90.8133 177.044 91.8 176.458 92.92C175.871 94.04 175.578 95.2133 175.578 96.44V97.16C175.578 98.7067 176.098 99.9733 177.138 100.96C178.178 101.947 179.578 102.44 181.338 102.44ZM255.331 100.72H255.211C254.624 101.84 253.797 102.747 252.731 103.44C251.691 104.133 250.384 104.48 248.811 104.48C246.224 104.48 244.211 103.56 242.771 101.72C241.331 99.8533 240.611 97.1733 240.611 93.68C240.611 90.1867 241.331 87.52 242.771 85.68C244.211 83.8133 246.224 82.88 248.811 82.88C250.384 82.88 251.691 83.2267 252.731 83.92C253.797 84.6133 254.624 85.52 255.211 86.64H255.331V74.4H257.611V104H255.331V100.72ZM249.571 102.44C250.344 102.44 251.077 102.333 251.771 102.12C252.464 101.907 253.077 101.6 253.611 101.2C254.144 100.8 254.557 100.307 254.851 99.72C255.171 99.1333 255.331 98.48 255.331 97.76V89.6C255.331 88.88 255.171 88.2267 254.851 87.64C254.557 87.0533 254.144 86.56 253.611 86.16C253.077 85.76 252.464 85.4533 251.771 85.24C251.077 85.0267 250.344 84.92 249.571 84.92C247.491 84.92 245.877 85.5733 244.731 86.88C243.611 88.1867 243.051 89.9733 243.051 92.24V95.12C243.051 97.3867 243.611 99.1733 244.731 100.48C245.877 101.787 247.491 102.44 249.571 102.44ZM279.035 104C278.102 104 277.435 103.773 277.035 103.32C276.635 102.867 276.408 102.253 276.355 101.48V100.76H276.155C275.702 101.853 274.955 102.747 273.915 103.44C272.875 104.133 271.462 104.48 269.675 104.48C267.515 104.48 265.808 103.96 264.555 102.92C263.328 101.853 262.715 100.36 262.715 98.44C262.715 97.5333 262.862 96.72 263.155 96C263.475 95.2533 263.968 94.6267 264.635 94.12C265.328 93.6133 266.208 93.2267 267.275 92.96C268.342 92.6667 269.648 92.52 271.195 92.52H276.235V90C276.235 88.2667 275.755 86.9733 274.795 86.12C273.862 85.2667 272.555 84.84 270.875 84.84C268.048 84.84 266.075 85.9733 264.955 88.24L263.395 87.12C263.928 85.92 264.822 84.92 266.075 84.12C267.355 83.2933 268.995 82.88 270.995 82.88C273.342 82.88 275.182 83.4933 276.515 84.72C277.848 85.92 278.515 87.6 278.515 89.76V102H281.595V104H279.035ZM270.035 102.56C270.915 102.56 271.728 102.453 272.475 102.24C273.222 102.027 273.875 101.733 274.435 101.36C274.995 100.96 275.435 100.48 275.755 99.92C276.075 99.36 276.235 98.7333 276.235 98.04V94.24H271.195C269.035 94.24 267.475 94.5733 266.515 95.24C265.582 95.88 265.115 96.76 265.115 97.88V98.92C265.115 100.12 265.555 101.027 266.435 101.64C267.342 102.253 268.542 102.56 270.035 102.56ZM286.139 83.36H288.419V86.64H288.539C289.126 85.52 289.939 84.6133 290.979 83.92C292.046 83.2267 293.366 82.88 294.939 82.88C297.526 82.88 299.539 83.8133 300.979 85.68C302.419 87.52 303.139 90.1867 303.139 93.68C303.139 97.1733 302.419 99.8533 300.979 101.72C299.539 103.56 297.526 104.48 294.939 104.48C293.366 104.48 292.046 104.133 290.979 103.44C289.939 102.747 289.126 101.84 288.539 100.72H288.419V112H286.139V83.36ZM294.179 102.44C296.259 102.44 297.859 101.787 298.979 100.48C300.126 99.1733 300.699 97.3867 300.699 95.12V92.24C300.699 89.9733 300.126 88.1867 298.979 86.88C297.859 85.5733 296.259 84.92 294.179 84.92C293.406 84.92 292.673 85.0267 291.979 85.24C291.286 85.4533 290.673 85.76 290.139 86.16C289.606 86.56 289.179 87.0533 288.859 87.64C288.566 88.2267 288.419 88.88 288.419 89.6V97.76C288.419 98.48 288.566 99.1333 288.859 99.72C289.179 100.307 289.606 100.8 290.139 101.2C290.673 101.6 291.286 101.907 291.979 102.12C292.673 102.333 293.406 102.44 294.179 102.44ZM315.924 104C314.804 104 313.977 103.707 313.444 103.12C312.937 102.507 312.684 101.693 312.684 100.68V85.32H305.364V83.36H311.164C311.75 83.36 312.164 83.24 312.404 83C312.644 82.76 312.764 82.3467 312.764 81.76V76.08H314.964V83.36H324.804V85.32H314.964V102.04H324.804V104H315.924ZM344.988 104C344.055 104 343.388 103.773 342.988 103.32C342.588 102.867 342.361 102.253 342.308 101.48V100.76H342.108C341.655 101.853 340.908 102.747 339.868 103.44C338.828 104.133 337.415 104.48 335.628 104.48C333.468 104.48 331.761 103.96 330.508 102.92C329.281 101.853 328.668 100.36 328.668 98.44C328.668 97.5333 328.815 96.72 329.108 96C329.428 95.2533 329.921 94.6267 330.588 94.12C331.281 93.6133 332.161 93.2267 333.228 92.96C334.295 92.6667 335.601 92.52 337.148 92.52H342.188V90C342.188 88.2667 341.708 86.9733 340.748 86.12C339.815 85.2667 338.508 84.84 336.828 84.84C334.001 84.84 332.028 85.9733 330.908 88.24L329.348 87.12C329.881 85.92 330.775 84.92 332.028 84.12C333.308 83.2933 334.948 82.88 336.948 82.88C339.295 82.88 341.135 83.4933 342.468 84.72C343.801 85.92 344.468 87.6 344.468 89.76V102H347.548V104H344.988ZM335.988 102.56C336.868 102.56 337.681 102.453 338.428 102.24C339.175 102.027 339.828 101.733 340.388 101.36C340.948 100.96 341.388 100.48 341.708 99.92C342.028 99.36 342.188 98.7333 342.188 98.04V94.24H337.148C334.988 94.24 333.428 94.5733 332.468 95.24C331.535 95.88 331.068 96.76 331.068 97.88V98.92C331.068 100.12 331.508 101.027 332.388 101.64C333.295 102.253 334.495 102.56 335.988 102.56ZM359.893 104C358.773 104 357.946 103.707 357.413 103.12C356.906 102.507 356.653 101.693 356.653 100.68V85.32H349.333V83.36H355.133C355.719 83.36 356.133 83.24 356.373 83C356.613 82.76 356.733 82.3467 356.733 81.76V76.08H358.933V83.36H368.773V85.32H358.933V102.04H368.773V104H359.893ZM383.077 77.84C382.357 77.84 381.837 77.6933 381.517 77.4C381.224 77.08 381.077 76.6933 381.077 76.24V75.72C381.077 75.2667 381.224 74.8933 381.517 74.6C381.837 74.28 382.357 74.12 383.077 74.12C383.797 74.12 384.304 74.28 384.597 74.6C384.917 74.8933 385.077 75.2667 385.077 75.72V76.24C385.077 76.6933 384.917 77.08 384.597 77.4C384.304 77.6933 383.797 77.84 383.077 77.84ZM374.197 102.04H381.957V85.32H374.197V83.36H384.237V102.04H391.477V104H374.197V102.04ZM403.781 104.48C400.955 104.48 398.741 103.533 397.141 101.64C395.568 99.7467 394.781 97.0933 394.781 93.68C394.781 90.2667 395.568 87.6133 397.141 85.72C398.741 83.8267 400.955 82.88 403.781 82.88C406.608 82.88 408.808 83.8267 410.381 85.72C411.981 87.6133 412.781 90.2667 412.781 93.68C412.781 97.0933 411.981 99.7467 410.381 101.64C408.808 103.533 406.608 104.48 403.781 104.48ZM403.781 102.48C405.808 102.48 407.408 101.84 408.581 100.56C409.755 99.28 410.341 97.4133 410.341 94.96V92.4C410.341 89.9467 409.755 88.08 408.581 86.8C407.408 85.52 405.808 84.88 403.781 84.88C401.755 84.88 400.155 85.52 398.981 86.8C397.808 88.08 397.221 89.9467 397.221 92.4V94.96C397.221 97.4133 397.808 99.28 398.981 100.56C400.155 101.84 401.755 102.48 403.781 102.48ZM418.126 104V83.36H420.406V86.56H420.566C420.966 85.6 421.632 84.7467 422.566 84C423.526 83.2533 424.872 82.88 426.606 82.88C428.846 82.88 430.579 83.56 431.806 84.92C433.059 86.2533 433.686 88.1733 433.686 90.68V104H431.406V91.08C431.406 88.9467 430.939 87.3867 430.006 86.4C429.099 85.4133 427.766 84.92 426.006 84.92C425.286 84.92 424.592 85.0133 423.926 85.2C423.259 85.3867 422.659 85.6667 422.126 86.04C421.619 86.4133 421.206 86.8933 420.886 87.48C420.566 88.04 420.406 88.7067 420.406 89.48V104H418.126ZM447.75 104.28C446.897 104.28 446.297 104.107 445.95 103.76C445.603 103.413 445.43 102.96 445.43 102.4V101.84C445.43 101.307 445.603 100.867 445.95 100.52C446.297 100.147 446.897 99.96 447.75 99.96C448.603 99.96 449.203 100.147 449.55 100.52C449.897 100.867 450.07 101.307 450.07 101.84V102.4C450.07 102.96 449.897 103.413 449.55 103.76C449.203 104.107 448.603 104.28 447.75 104.28ZM447.75 87.36C446.897 87.36 446.297 87.1867 445.95 86.84C445.603 86.4933 445.43 86.04 445.43 85.48V84.92C445.43 84.3867 445.603 83.9467 445.95 83.6C446.297 83.2267 446.897 83.04 447.75 83.04C448.603 83.04 449.203 83.2267 449.55 83.6C449.897 83.9467 450.07 84.3867 450.07 84.92V85.48C450.07 86.04 449.897 86.4933 449.55 86.84C449.203 87.1867 448.603 87.36 447.75 87.36Z" fill="black"/>
<path d="M109.024 55.48H114.504V41.88H109.024V38.36H118.864V43.84H119.104C119.291 43.12 119.558 42.4267 119.904 41.76C120.251 41.0933 120.691 40.52 121.224 40.04C121.758 39.5333 122.411 39.1333 123.184 38.84C123.958 38.52 124.864 38.36 125.904 38.36H128.384V42.52H124.304C122.704 42.52 121.398 43 120.384 43.96C119.371 44.8933 118.864 46.16 118.864 47.76V55.48H126.344V59H109.024V55.48ZM139.969 59.48C138.449 59.48 137.075 59.2267 135.849 58.72C134.649 58.2133 133.622 57.4933 132.769 56.56C131.942 55.6267 131.302 54.4933 130.849 53.16C130.395 51.8267 130.169 50.3333 130.169 48.68C130.169 47.0267 130.395 45.5333 130.849 44.2C131.302 42.8667 131.942 41.7333 132.769 40.8C133.622 39.8667 134.649 39.1467 135.849 38.64C137.075 38.1333 138.449 37.88 139.969 37.88C141.489 37.88 142.849 38.1333 144.049 38.64C145.275 39.1467 146.302 39.8667 147.129 40.8C147.982 41.7333 148.635 42.8667 149.089 44.2C149.542 45.5333 149.769 47.0267 149.769 48.68C149.769 50.3333 149.542 51.8267 149.089 53.16C148.635 54.4933 147.982 55.6267 147.129 56.56C146.302 57.4933 145.275 58.2133 144.049 58.72C142.849 59.2267 141.489 59.48 139.969 59.48ZM139.969 56.04C141.569 56.04 142.835 55.56 143.769 54.6C144.729 53.6133 145.209 52.16 145.209 50.24V47.12C145.209 45.2 144.729 43.76 143.769 42.8C142.835 41.8133 141.569 41.32 139.969 41.32C138.369 41.32 137.089 41.8133 136.129 42.8C135.195 43.76 134.729 45.2 134.729 47.12V50.24C134.729 52.16 135.195 53.6133 136.129 54.6C137.089 55.56 138.369 56.04 139.969 56.04ZM153.113 29.4H157.473V41.88H157.713C158.326 40.6267 159.14 39.6533 160.153 38.96C161.166 38.24 162.433 37.88 163.953 37.88C166.38 37.88 168.313 38.7867 169.753 40.6C171.193 42.4133 171.913 45.1067 171.913 48.68C171.913 52.2533 171.193 54.9467 169.753 56.76C168.313 58.5733 166.38 59.48 163.953 59.48C162.433 59.48 161.166 59.1333 160.153 58.44C159.14 57.72 158.326 56.7333 157.713 55.48H157.473V59H153.113V29.4ZM162.153 55.92C163.806 55.92 165.073 55.4133 165.953 54.4C166.86 53.3867 167.313 52.04 167.313 50.36V47C167.313 45.32 166.86 43.9733 165.953 42.96C165.073 41.9467 163.806 41.44 162.153 41.44C161.513 41.44 160.913 41.52 160.353 41.68C159.793 41.84 159.3 42.08 158.873 42.4C158.446 42.72 158.1 43.12 157.833 43.6C157.593 44.0533 157.473 44.6 157.473 45.24V52.12C157.473 52.76 157.593 53.32 157.833 53.8C158.1 54.2533 158.446 54.64 158.873 54.96C159.3 55.28 159.793 55.52 160.353 55.68C160.913 55.84 161.513 55.92 162.153 55.92ZM188.218 55.48H188.018C187.804 56.0133 187.524 56.5333 187.178 57.04C186.858 57.52 186.458 57.9467 185.978 58.32C185.498 58.6667 184.938 58.9467 184.298 59.16C183.658 59.3733 182.911 59.48 182.058 59.48C179.978 59.48 178.298 58.8 177.018 57.44C175.738 56.08 175.098 54.1467 175.098 51.64V38.36H179.458V51C179.458 54.28 180.884 55.92 183.738 55.92C184.298 55.92 184.844 55.8533 185.378 55.72C185.911 55.56 186.391 55.3333 186.818 55.04C187.244 54.7467 187.578 54.3867 187.818 53.96C188.084 53.5067 188.218 52.9733 188.218 52.36V38.36H192.578V59H188.218V55.48ZM205.962 59.48C203.722 59.48 201.789 59.12 200.162 58.4C198.562 57.68 197.269 56.72 196.282 55.52L198.962 53.12C199.869 54.1067 200.882 54.8667 202.002 55.4C203.149 55.9067 204.495 56.16 206.042 56.16C207.455 56.16 208.589 55.92 209.442 55.44C210.322 54.96 210.762 54.2133 210.762 53.2C210.762 52.7733 210.682 52.4133 210.522 52.12C210.362 51.8267 210.135 51.5867 209.842 51.4C209.549 51.2133 209.202 51.0667 208.802 50.96C208.429 50.8533 208.029 50.7733 207.602 50.72L204.322 50.2C203.522 50.0933 202.709 49.92 201.882 49.68C201.055 49.44 200.309 49.1067 199.642 48.68C199.002 48.2267 198.469 47.6533 198.042 46.96C197.642 46.2667 197.442 45.3867 197.442 44.32C197.442 42.2133 198.242 40.6133 199.842 39.52C201.469 38.4267 203.602 37.88 206.242 37.88C208.162 37.88 209.815 38.1733 211.202 38.76C212.615 39.32 213.789 40.1067 214.722 41.12L212.282 43.68C211.749 43.0667 210.989 42.5067 210.002 42C209.015 41.4667 207.709 41.2 206.082 41.2C203.175 41.2 201.722 42.12 201.722 43.96C201.722 44.84 202.029 45.4533 202.642 45.8C203.282 46.12 204.029 46.3333 204.882 46.44L208.162 46.96C208.989 47.0933 209.802 47.2667 210.602 47.48C211.429 47.6933 212.162 48.0267 212.802 48.48C213.469 48.9067 214.002 49.4667 214.402 50.16C214.829 50.8533 215.042 51.7333 215.042 52.8C215.042 54.88 214.229 56.52 212.602 57.72C211.002 58.8933 208.789 59.48 205.962 59.48ZM229.146 59C227.333 59 226 58.52 225.146 57.56C224.293 56.5733 223.866 55.3067 223.866 53.76V41.88H217.506V38.36H222.026C222.8 38.36 223.346 38.2133 223.666 37.92C223.986 37.6 224.146 37.04 224.146 36.24V31.08H228.226V38.36H237.026V41.88H228.226V55.48H237.026V59H229.146ZM235.586 104C234.333 104 233.386 103.68 232.746 103.04C232.133 102.4 231.76 101.56 231.626 100.52H231.426C231.026 101.773 230.293 102.747 229.226 103.44C228.186 104.133 226.853 104.48 225.226 104.48C223.12 104.48 221.44 103.933 220.186 102.84C218.933 101.72 218.306 100.187 218.306 98.24C218.306 96.24 219.04 94.72 220.506 93.68C222 92.6133 224.28 92.08 227.346 92.08H231.306V90.48C231.306 87.68 229.826 86.28 226.866 86.28C225.533 86.28 224.453 86.5467 223.626 87.08C222.8 87.5867 222.106 88.2667 221.546 89.12L218.946 87C219.533 85.88 220.52 84.92 221.906 84.12C223.293 83.2933 225.08 82.88 227.266 82.88C229.88 82.88 231.933 83.5067 233.426 84.76C234.92 86.0133 235.666 87.8267 235.666 90.2V100.56H238.266V104H235.586ZM226.466 101.28C227.88 101.28 229.04 100.96 229.946 100.32C230.853 99.68 231.306 98.8533 231.306 97.84V94.84H227.426C224.28 94.84 222.706 95.7867 222.706 97.68V98.48C222.706 99.4133 223.04 100.12 223.706 100.6C224.373 101.053 225.293 101.28 226.466 101.28Z" fill="#EE4C2C"/>
<path d="M781.28 97.392C781.28 98.704 780.832 99.648 779.936 100.224C779.056 100.8 777.688 101.088 775.832 101.088C774.056 101.088 772.784 100.824 772.016 100.296C771.264 99.768 770.888 99.008 770.888 98.016C770.888 97.344 771.056 96.816 771.392 96.432C771.728 96.048 772.16 95.808 772.688 95.712V95.376C772.368 95.2 772.112 94.976 771.92 94.704C771.744 94.416 771.656 94.08 771.656 93.696C771.656 93.184 771.8 92.744 772.088 92.376C772.392 92.008 772.88 91.784 773.552 91.704V91.44C772.912 91.12 772.408 90.648 772.04 90.024C771.688 89.384 771.512 88.584 771.512 87.624C771.512 86.216 771.896 85.152 772.664 84.432C773.432 83.712 774.464 83.352 775.76 83.352C776.528 83.352 777.224 83.488 777.848 83.76V83.328C777.848 82.864 777.952 82.528 778.16 82.32C778.368 82.112 778.704 82.008 779.168 82.008H780.824V83.616H778.688V84.288C779.104 84.656 779.424 85.112 779.648 85.656C779.888 86.2 780.008 86.856 780.008 87.624C780.008 89.032 779.624 90.096 778.856 90.816C778.088 91.536 777.056 91.896 775.76 91.896C775.376 91.896 774.984 91.856 774.584 91.776C774.136 91.856 773.792 92.04 773.552 92.328C773.328 92.6 773.216 92.88 773.216 93.168C773.216 93.488 773.328 93.728 773.552 93.888C773.776 94.048 774.144 94.128 774.656 94.128H777.368C778.76 94.128 779.76 94.408 780.368 94.968C780.976 95.528 781.28 96.336 781.28 97.392ZM779.576 97.512C779.576 96.968 779.408 96.552 779.072 96.264C778.736 95.992 778.16 95.856 777.344 95.856H773.576C773.208 96.032 772.944 96.256 772.784 96.528C772.64 96.8 772.568 97.144 772.568 97.56C772.568 98.184 772.76 98.672 773.144 99.024C773.528 99.392 774.144 99.576 774.992 99.576H776.576C777.568 99.576 778.312 99.408 778.808 99.072C779.32 98.752 779.576 98.232 779.576 97.512ZM775.76 90.408C776.512 90.408 777.096 90.216 777.512 89.832C777.928 89.448 778.136 88.856 778.136 88.056V87.168C778.136 86.368 777.928 85.776 777.512 85.392C777.096 85.008 776.512 84.816 775.76 84.816C775.008 84.816 774.424 85.008 774.008 85.392C773.592 85.776 773.384 86.368 773.384 87.168V88.056C773.384 88.856 773.592 89.448 774.008 89.832C774.424 90.216 775.008 90.408 775.76 90.408ZM784.174 80.616C783.422 80.616 783.046 80.288 783.046 79.632V79.248C783.046 78.592 783.422 78.264 784.174 78.264C784.926 78.264 785.302 78.592 785.302 79.248V79.632C785.302 80.288 784.926 80.616 784.174 80.616ZM783.262 83.616H785.086V96H783.262V83.616ZM791.218 96C790.562 96 790.082 95.856 789.778 95.568C789.49 95.264 789.346 94.784 789.346 94.128V85.224H787.522V83.616H788.602C788.97 83.616 789.21 83.528 789.322 83.352C789.45 83.16 789.514 82.88 789.514 82.512V80.208H791.17V83.616H793.57V85.224H791.17V94.392H793.45V96H791.218ZM796.363 78.24H798.187V85.632H798.427C798.667 84.864 799.035 84.288 799.531 83.904C800.043 83.52 800.731 83.328 801.595 83.328C802.699 83.328 803.563 83.704 804.187 84.456C804.827 85.208 805.147 86.368 805.147 87.936V96H803.323V88.056C803.323 87.064 803.115 86.304 802.699 85.776C802.299 85.248 801.675 84.984 800.827 84.984C800.091 84.984 799.467 85.208 798.955 85.656C798.443 86.104 798.187 86.736 798.187 87.552V96H796.363V78.24ZM815.508 93.984H815.268C815.028 94.752 814.652 95.328 814.14 95.712C813.644 96.096 812.964 96.288 812.1 96.288C810.996 96.288 810.124 95.912 809.484 95.16C808.86 94.408 808.548 93.248 808.548 91.68V83.616H810.372V91.56C810.372 92.552 810.572 93.312 810.972 93.84C811.388 94.368 812.02 94.632 812.868 94.632C813.604 94.632 814.228 94.408 814.74 93.96C815.252 93.512 815.508 92.88 815.508 92.064V83.616H817.332V96H815.508V93.984ZM820.972 78.24H822.796V85.632H823.036C823.276 84.816 823.66 84.232 824.188 83.88C824.732 83.512 825.388 83.328 826.156 83.328C826.892 83.328 827.54 83.48 828.1 83.784C828.66 84.088 829.132 84.52 829.516 85.08C829.9 85.64 830.188 86.32 830.38 87.12C830.572 87.92 830.668 88.816 830.668 89.808C830.668 90.8 830.572 91.696 830.38 92.496C830.188 93.296 829.9 93.976 829.516 94.536C829.132 95.096 828.66 95.528 828.1 95.832C827.54 96.136 826.892 96.288 826.156 96.288C825.388 96.288 824.732 96.112 824.188 95.76C823.66 95.392 823.276 94.8 823.036 93.984H822.796V96H820.972V78.24ZM825.604 94.656C826.612 94.656 827.38 94.344 827.908 93.72C828.436 93.08 828.7 92.192 828.7 91.056V88.56C828.7 87.424 828.436 86.544 827.908 85.92C827.38 85.28 826.612 84.96 825.604 84.96C825.22 84.96 824.852 85.016 824.5 85.128C824.164 85.24 823.868 85.4 823.612 85.608C823.372 85.816 823.172 86.064 823.012 86.352C822.868 86.64 822.796 86.96 822.796 87.312V92.304C822.796 92.656 822.868 92.976 823.012 93.264C823.172 93.552 823.372 93.8 823.612 94.008C823.868 94.216 824.164 94.376 824.5 94.488C824.852 94.6 825.22 94.656 825.604 94.656ZM834.242 96.288C833.298 96.288 832.826 95.88 832.826 95.064V94.68C832.826 93.864 833.298 93.456 834.242 93.456C835.186 93.456 835.658 93.864 835.658 94.68V95.064C835.658 95.88 835.186 96.288 834.242 96.288ZM842.513 96.288C840.977 96.288 839.769 95.784 838.889 94.776C838.025 93.768 837.593 92.112 837.593 89.808C837.593 87.504 838.025 85.848 838.889 84.84C839.769 83.832 840.977 83.328 842.513 83.328C843.681 83.328 844.609 83.6 845.297 84.144C846.001 84.672 846.513 85.352 846.833 86.184L845.321 86.952C845.113 86.312 844.785 85.824 844.337 85.488C843.889 85.136 843.281 84.96 842.513 84.96C841.505 84.96 840.761 85.256 840.281 85.848C839.801 86.44 839.561 87.344 839.561 88.56V91.056C839.561 92.272 839.801 93.176 840.281 93.768C840.761 94.36 841.505 94.656 842.513 94.656C843.313 94.656 843.953 94.48 844.433 94.128C844.929 93.776 845.321 93.24 845.609 92.52L846.953 93.456C846.585 94.32 846.025 95.008 845.273 95.52C844.537 96.032 843.617 96.288 842.513 96.288ZM853.392 96.288C852.672 96.288 852 96.168 851.376 95.928C850.752 95.688 850.216 95.304 849.768 94.776C849.32 94.248 848.968 93.576 848.712 92.76C848.456 91.944 848.328 90.96 848.328 89.808C848.328 88.656 848.456 87.672 848.712 86.856C848.968 86.04 849.32 85.368 849.768 84.84C850.216 84.312 850.752 83.928 851.376 83.688C852 83.448 852.672 83.328 853.392 83.328C854.112 83.328 854.784 83.448 855.408 83.688C856.032 83.928 856.568 84.312 857.016 84.84C857.464 85.368 857.816 86.04 858.072 86.856C858.328 87.672 858.456 88.656 858.456 89.808C858.456 90.96 858.328 91.944 858.072 92.76C857.816 93.576 857.464 94.248 857.016 94.776C856.568 95.304 856.032 95.688 855.408 95.928C854.784 96.168 854.112 96.288 853.392 96.288ZM853.392 94.656C854.384 94.656 855.144 94.36 855.672 93.768C856.216 93.176 856.488 92.272 856.488 91.056V88.56C856.488 87.344 856.216 86.44 855.672 85.848C855.144 85.256 854.384 84.96 853.392 84.96C852.4 84.96 851.632 85.256 851.088 85.848C850.56 86.44 850.296 87.344 850.296 88.56V91.056C850.296 92.272 850.56 93.176 851.088 93.768C851.632 94.36 852.4 94.656 853.392 94.656ZM861.262 96V83.616H863.086V85.632H863.326C863.566 84.864 863.918 84.288 864.382 83.904C864.846 83.52 865.502 83.328 866.35 83.328C867.118 83.328 867.766 83.52 868.294 83.904C868.838 84.272 869.246 84.848 869.518 85.632H869.758C870.014 84.864 870.414 84.288 870.958 83.904C871.502 83.52 872.222 83.328 873.118 83.328C874.174 83.328 875.022 83.704 875.662 84.456C876.302 85.208 876.622 86.368 876.622 87.936V96H874.798V88.056C874.798 87.064 874.598 86.304 874.198 85.776C873.814 85.248 873.214 84.984 872.398 84.984C871.678 84.984 871.07 85.208 870.574 85.656C870.094 86.104 869.854 86.736 869.854 87.552V96H868.03V88.056C868.03 87.064 867.83 86.304 867.43 85.776C867.046 85.248 866.446 84.984 865.63 84.984C864.91 84.984 864.302 85.208 863.806 85.656C863.326 86.104 863.086 86.736 863.086 87.552V96H861.262ZM878.708 99.624L884.396 78.24H886.004L880.316 99.624H878.708ZM888.59 78.24H890.414V85.632H890.654C890.894 84.816 891.278 84.232 891.806 83.88C892.35 83.512 893.006 83.328 893.774 83.328C894.51 83.328 895.158 83.48 895.718 83.784C896.278 84.088 896.75 84.52 897.134 85.08C897.518 85.64 897.806 86.32 897.998 87.12C898.19 87.92 898.286 88.816 898.286 89.808C898.286 90.8 898.19 91.696 897.998 92.496C897.806 93.296 897.518 93.976 897.134 94.536C896.75 95.096 896.278 95.528 895.718 95.832C895.158 96.136 894.51 96.288 893.774 96.288C893.006 96.288 892.35 96.112 891.806 95.76C891.278 95.392 890.894 94.8 890.654 93.984H890.414V96H888.59V78.24ZM893.222 94.656C894.23 94.656 894.998 94.344 895.526 93.72C896.054 93.08 896.318 92.192 896.318 91.056V88.56C896.318 87.424 896.054 86.544 895.526 85.92C894.998 85.28 894.23 84.96 893.222 84.96C892.838 84.96 892.47 85.016 892.118 85.128C891.782 85.24 891.486 85.4 891.23 85.608C890.99 85.816 890.79 86.064 890.63 86.352C890.486 86.64 890.414 86.96 890.414 87.312V92.304C890.414 92.656 890.486 92.976 890.63 93.264C890.79 93.552 890.99 93.8 891.23 94.008C891.486 94.216 891.782 94.376 892.118 94.488C892.47 94.6 892.838 94.656 893.222 94.656ZM905.4 96.288C904.68 96.288 904.008 96.168 903.384 95.928C902.76 95.688 902.224 95.304 901.776 94.776C901.328 94.248 900.976 93.576 900.72 92.76C900.464 91.944 900.336 90.96 900.336 89.808C900.336 88.656 900.464 87.672 900.72 86.856C900.976 86.04 901.328 85.368 901.776 84.84C902.224 84.312 902.76 83.928 903.384 83.688C904.008 83.448 904.68 83.328 905.4 83.328C906.12 83.328 906.776 83.448 907.368 83.688C907.976 83.928 908.488 84.312 908.904 84.84C909.32 85.368 909.64 86.04 909.864 86.856C910.104 87.672 910.224 88.656 910.224 89.808V90.264H902.28V91.056C902.28 92.272 902.552 93.184 903.096 93.792C903.656 94.384 904.424 94.68 905.4 94.68C906.232 94.68 906.912 94.504 907.44 94.152C907.968 93.784 908.384 93.24 908.688 92.52L909.936 93.432C909.552 94.28 908.984 94.968 908.232 95.496C907.496 96.024 906.552 96.288 905.4 96.288ZM905.4 84.864C904.408 84.864 903.64 85.176 903.096 85.8C902.552 86.424 902.28 87.344 902.28 88.56V88.872H908.28V88.56C908.28 86.096 907.32 84.864 905.4 84.864ZM915.554 96C914.898 96 914.418 95.856 914.114 95.568C913.826 95.264 913.682 94.784 913.682 94.128V85.224H911.858V83.616H912.938C913.306 83.616 913.546 83.528 913.658 83.352C913.786 83.16 913.85 82.88 913.85 82.512V80.208H915.506V83.616H917.906V85.224H915.506V94.392H917.786V96H915.554ZM920.699 78.24H922.523V85.632H922.763C923.003 84.864 923.371 84.288 923.867 83.904C924.379 83.52 925.067 83.328 925.931 83.328C927.035 83.328 927.899 83.704 928.523 84.456C929.163 85.208 929.483 86.368 929.483 87.936V96H927.659V88.056C927.659 87.064 927.451 86.304 927.035 85.776C926.635 85.248 926.011 84.984 925.163 84.984C924.427 84.984 923.803 85.208 923.291 85.656C922.779 86.104 922.523 86.736 922.523 87.552V96H920.699V78.24ZM942.46 97.392C942.46 98.704 942.012 99.648 941.116 100.224C940.236 100.8 938.868 101.088 937.012 101.088C935.236 101.088 933.964 100.824 933.196 100.296C932.444 99.768 932.068 99.008 932.068 98.016C932.068 97.344 932.236 96.816 932.572 96.432C932.908 96.048 933.34 95.808 933.868 95.712V95.376C933.548 95.2 933.292 94.976 933.1 94.704C932.924 94.416 932.836 94.08 932.836 93.696C932.836 93.184 932.98 92.744 933.268 92.376C933.572 92.008 934.06 91.784 934.732 91.704V91.44C934.092 91.12 933.588 90.648 933.22 90.024C932.868 89.384 932.692 88.584 932.692 87.624C932.692 86.216 933.076 85.152 933.844 84.432C934.612 83.712 935.644 83.352 936.94 83.352C937.708 83.352 938.404 83.488 939.028 83.76V83.328C939.028 82.864 939.132 82.528 939.34 82.32C939.548 82.112 939.884 82.008 940.348 82.008H942.004V83.616H939.868V84.288C940.284 84.656 940.604 85.112 940.828 85.656C941.068 86.2 941.188 86.856 941.188 87.624C941.188 89.032 940.804 90.096 940.036 90.816C939.268 91.536 938.236 91.896 936.94 91.896C936.556 91.896 936.164 91.856 935.764 91.776C935.316 91.856 934.972 92.04 934.732 92.328C934.508 92.6 934.396 92.88 934.396 93.168C934.396 93.488 934.508 93.728 934.732 93.888C934.956 94.048 935.324 94.128 935.836 94.128H938.548C939.94 94.128 940.94 94.408 941.548 94.968C942.156 95.528 942.46 96.336 942.46 97.392ZM940.756 97.512C940.756 96.968 940.588 96.552 940.252 96.264C939.916 95.992 939.34 95.856 938.524 95.856H934.756C934.388 96.032 934.124 96.256 933.964 96.528C933.82 96.8 933.748 97.144 933.748 97.56C933.748 98.184 933.94 98.672 934.324 99.024C934.708 99.392 935.324 99.576 936.172 99.576H937.756C938.748 99.576 939.492 99.408 939.988 99.072C940.5 98.752 940.756 98.232 940.756 97.512ZM936.94 90.408C937.692 90.408 938.276 90.216 938.692 89.832C939.108 89.448 939.316 88.856 939.316 88.056V87.168C939.316 86.368 939.108 85.776 938.692 85.392C938.276 85.008 937.692 84.816 936.94 84.816C936.188 84.816 935.604 85.008 935.188 85.392C934.772 85.776 934.564 86.368 934.564 87.168V88.056C934.564 88.856 934.772 89.448 935.188 89.832C935.604 90.216 936.188 90.408 936.94 90.408ZM948.548 96.288C947.828 96.288 947.156 96.168 946.532 95.928C945.908 95.688 945.372 95.304 944.924 94.776C944.476 94.248 944.124 93.576 943.868 92.76C943.612 91.944 943.484 90.96 943.484 89.808C943.484 88.656 943.612 87.672 943.868 86.856C944.124 86.04 944.476 85.368 944.924 84.84C945.372 84.312 945.908 83.928 946.532 83.688C947.156 83.448 947.828 83.328 948.548 83.328C949.268 83.328 949.924 83.448 950.516 83.688C951.124 83.928 951.636 84.312 952.052 84.84C952.468 85.368 952.788 86.04 953.012 86.856C953.252 87.672 953.372 88.656 953.372 89.808V90.264H945.428V91.056C945.428 92.272 945.7 93.184 946.244 93.792C946.804 94.384 947.572 94.68 948.548 94.68C949.38 94.68 950.06 94.504 950.588 94.152C951.116 93.784 951.532 93.24 951.836 92.52L953.084 93.432C952.7 94.28 952.132 94.968 951.38 95.496C950.644 96.024 949.7 96.288 948.548 96.288ZM948.548 84.864C947.556 84.864 946.788 85.176 946.244 85.8C945.7 86.424 945.428 87.344 945.428 88.56V88.872H951.428V88.56C951.428 86.096 950.468 84.864 948.548 84.864ZM958.079 96C957.423 96 956.943 95.856 956.639 95.568C956.351 95.264 956.207 94.784 956.207 94.128V78.24H958.031V94.392H959.591V96H958.079ZM969.961 96C968.777 96 968.185 95.408 968.185 94.224V93.984H967.945C967.737 94.736 967.353 95.312 966.793 95.712C966.249 96.096 965.593 96.288 964.825 96.288C963.625 96.288 962.729 95.984 962.137 95.376C961.545 94.768 961.249 93.872 961.249 92.688C961.249 91.536 961.625 90.624 962.377 89.952C963.145 89.28 964.337 88.944 965.953 88.944H968.185V87.576C968.185 86.664 967.977 85.992 967.561 85.56C967.161 85.128 966.521 84.912 965.641 84.912C964.921 84.912 964.337 85.072 963.889 85.392C963.457 85.696 963.081 86.144 962.761 86.736L961.681 85.728C962.001 85.056 962.513 84.496 963.217 84.048C963.921 83.584 964.753 83.352 965.713 83.352C967.121 83.352 968.185 83.696 968.905 84.384C969.641 85.056 970.009 86.056 970.009 87.384V94.392H971.257V96H969.961ZM965.281 94.704C965.697 94.704 966.081 94.632 966.433 94.488C966.801 94.344 967.113 94.16 967.368 93.936C967.625 93.696 967.825 93.432 967.969 93.144C968.113 92.84 968.185 92.528 968.185 92.208V90.336H965.905C964.945 90.336 964.241 90.496 963.793 90.816C963.361 91.136 963.145 91.6 963.145 92.208V92.88C963.145 93.504 963.337 93.968 963.721 94.272C964.105 94.56 964.625 94.704 965.281 94.704ZM973.738 78.24H975.562V85.632H975.802C976.042 84.816 976.426 84.232 976.954 83.88C977.498 83.512 978.154 83.328 978.922 83.328C979.658 83.328 980.306 83.48 980.866 83.784C981.426 84.088 981.898 84.52 982.282 85.08C982.666 85.64 982.954 86.32 983.146 87.12C983.338 87.92 983.434 88.816 983.434 89.808C983.434 90.8 983.338 91.696 983.146 92.496C982.954 93.296 982.666 93.976 982.282 94.536C981.898 95.096 981.426 95.528 980.866 95.832C980.306 96.136 979.658 96.288 978.922 96.288C978.154 96.288 977.498 96.112 976.954 95.76C976.426 95.392 976.042 94.8 975.802 93.984H975.562V96H973.738V78.24ZM978.37 94.656C979.378 94.656 980.146 94.344 980.674 93.72C981.202 93.08 981.466 92.192 981.466 91.056V88.56C981.466 87.424 981.202 86.544 980.674 85.92C980.146 85.28 979.378 84.96 978.37 84.96C977.986 84.96 977.618 85.016 977.266 85.128C976.93 85.24 976.634 85.4 976.378 85.608C976.138 85.816 975.938 86.064 975.778 86.352C975.634 86.64 975.562 86.96 975.562 87.312V92.304C975.562 92.656 975.634 92.976 975.778 93.264C975.938 93.552 976.138 93.8 976.378 94.008C976.634 94.216 976.93 94.376 977.266 94.488C977.618 94.6 977.986 94.656 978.37 94.656ZM984.762 99.624L990.45 78.24H992.058L986.37 99.624H984.762ZM994.41 96V83.616H996.234V85.92H996.474C996.682 85.2 997.034 84.64 997.53 84.24C998.042 83.824 998.706 83.616 999.522 83.616H1000.19V85.464H998.994C998.13 85.464 997.45 85.656 996.954 86.04C996.474 86.424 996.234 87 996.234 87.768V96H994.41ZM1006.56 96.288C1005.84 96.288 1005.16 96.168 1004.54 95.928C1003.92 95.688 1003.38 95.304 1002.93 94.776C1002.48 94.248 1002.13 93.576 1001.88 92.76C1001.62 91.944 1001.49 90.96 1001.49 89.808C1001.49 88.656 1001.62 87.672 1001.88 86.856C1002.13 86.04 1002.48 85.368 1002.93 84.84C1003.38 84.312 1003.92 83.928 1004.54 83.688C1005.16 83.448 1005.84 83.328 1006.56 83.328C1007.28 83.328 1007.95 83.448 1008.57 83.688C1009.2 83.928 1009.73 84.312 1010.18 84.84C1010.63 85.368 1010.98 86.04 1011.24 86.856C1011.49 87.672 1011.62 88.656 1011.62 89.808C1011.62 90.96 1011.49 91.944 1011.24 92.76C1010.98 93.576 1010.63 94.248 1010.18 94.776C1009.73 95.304 1009.2 95.688 1008.57 95.928C1007.95 96.168 1007.28 96.288 1006.56 96.288ZM1006.56 94.656C1007.55 94.656 1008.31 94.36 1008.84 93.768C1009.38 93.176 1009.65 92.272 1009.65 91.056V88.56C1009.65 87.344 1009.38 86.44 1008.84 85.848C1008.31 85.256 1007.55 84.96 1006.56 84.96C1005.56 84.96 1004.8 85.256 1004.25 85.848C1003.72 86.44 1003.46 87.344 1003.46 88.56V91.056C1003.46 92.272 1003.72 93.176 1004.25 93.768C1004.8 94.36 1005.56 94.656 1006.56 94.656ZM1014.43 78.24H1016.25V85.632H1016.49C1016.73 84.816 1017.11 84.232 1017.64 83.88C1018.19 83.512 1018.84 83.328 1019.61 83.328C1020.35 83.328 1020.99 83.48 1021.55 83.784C1022.11 84.088 1022.59 84.52 1022.97 85.08C1023.35 85.64 1023.64 86.32 1023.83 87.12C1024.03 87.92 1024.12 88.816 1024.12 89.808C1024.12 90.8 1024.03 91.696 1023.83 92.496C1023.64 93.296 1023.35 93.976 1022.97 94.536C1022.59 95.096 1022.11 95.528 1021.55 95.832C1020.99 96.136 1020.35 96.288 1019.61 96.288C1018.84 96.288 1018.19 96.112 1017.64 95.76C1017.11 95.392 1016.73 94.8 1016.49 93.984H1016.25V96H1014.43V78.24ZM1019.06 94.656C1020.07 94.656 1020.83 94.344 1021.36 93.72C1021.89 93.08 1022.15 92.192 1022.15 91.056V88.56C1022.15 87.424 1021.89 86.544 1021.36 85.92C1020.83 85.28 1020.07 84.96 1019.06 84.96C1018.67 84.96 1018.31 85.016 1017.95 85.128C1017.62 85.24 1017.32 85.4 1017.07 85.608C1016.83 85.816 1016.63 86.064 1016.47 86.352C1016.32 86.64 1016.25 86.96 1016.25 87.312V92.304C1016.25 92.656 1016.32 92.976 1016.47 93.264C1016.63 93.552 1016.83 93.8 1017.07 94.008C1017.32 94.216 1017.62 94.376 1017.95 94.488C1018.31 94.6 1018.67 94.656 1019.06 94.656ZM1033.85 93.984H1033.61C1033.37 94.752 1033 95.328 1032.48 95.712C1031.99 96.096 1031.31 96.288 1030.44 96.288C1029.34 96.288 1028.47 95.912 1027.83 95.16C1027.2 94.408 1026.89 93.248 1026.89 91.68V83.616H1028.72V91.56C1028.72 92.552 1028.92 93.312 1029.32 93.84C1029.73 94.368 1030.36 94.632 1031.21 94.632C1031.95 94.632 1032.57 94.408 1033.08 93.96C1033.6 93.512 1033.85 92.88 1033.85 92.064V83.616H1035.68V96H1033.85V93.984ZM1042.75 96.288C1041.72 96.288 1040.84 96.08 1040.11 95.664C1039.39 95.248 1038.77 94.672 1038.26 93.936L1039.53 92.88C1039.96 93.488 1040.43 93.952 1040.92 94.272C1041.44 94.592 1042.04 94.752 1042.75 94.752C1043.47 94.752 1044.04 94.576 1044.45 94.224C1044.88 93.856 1045.1 93.336 1045.1 92.664C1045.1 92.12 1044.96 91.68 1044.69 91.344C1044.42 91.008 1043.92 90.776 1043.18 90.648L1042.24 90.48C1041.04 90.256 1040.15 89.88 1039.56 89.352C1038.98 88.824 1038.69 88.024 1038.69 86.952C1038.69 86.328 1038.79 85.792 1038.98 85.344C1039.17 84.88 1039.44 84.504 1039.8 84.216C1040.15 83.912 1040.56 83.696 1041.04 83.568C1041.54 83.424 1042.08 83.352 1042.65 83.352C1043.58 83.352 1044.36 83.52 1044.98 83.856C1045.62 84.176 1046.17 84.648 1046.64 85.272L1045.46 86.352C1045.19 85.968 1044.83 85.632 1044.38 85.344C1043.93 85.04 1043.36 84.888 1042.65 84.888C1041.2 84.888 1040.47 85.552 1040.47 86.88C1040.47 87.488 1040.62 87.936 1040.92 88.224C1041.24 88.496 1041.76 88.696 1042.46 88.824L1043.4 88.992C1044.66 89.216 1045.56 89.608 1046.08 90.168C1046.61 90.728 1046.88 91.488 1046.88 92.448C1046.88 93.648 1046.52 94.592 1045.82 95.28C1045.13 95.952 1044.11 96.288 1042.75 96.288ZM1052.31 96C1051.66 96 1051.18 95.856 1050.87 95.568C1050.58 95.264 1050.44 94.784 1050.44 94.128V85.224H1048.62V83.616H1049.7C1050.06 83.616 1050.3 83.528 1050.42 83.352C1050.54 83.16 1050.61 82.88 1050.61 82.512V80.208H1052.26V83.616H1054.66V85.224H1052.26V94.392H1054.54V96H1052.31ZM1057.46 96V83.616H1059.28V85.632H1059.52C1059.76 84.864 1060.13 84.288 1060.62 83.904C1061.14 83.52 1061.82 83.328 1062.69 83.328C1063.79 83.328 1064.66 83.704 1065.28 84.456C1065.92 85.208 1066.24 86.368 1066.24 87.936V96H1064.42V88.056C1064.42 87.064 1064.21 86.304 1063.79 85.776C1063.39 85.248 1062.77 84.984 1061.92 84.984C1061.18 84.984 1060.56 85.208 1060.05 85.656C1059.54 86.104 1059.28 86.736 1059.28 87.552V96H1057.46ZM1073.99 96.288C1073.27 96.288 1072.59 96.168 1071.97 95.928C1071.35 95.688 1070.81 95.304 1070.36 94.776C1069.91 94.248 1069.56 93.576 1069.31 92.76C1069.05 91.944 1068.92 90.96 1068.92 89.808C1068.92 88.656 1069.05 87.672 1069.31 86.856C1069.56 86.04 1069.91 85.368 1070.36 84.84C1070.81 84.312 1071.35 83.928 1071.97 83.688C1072.59 83.448 1073.27 83.328 1073.99 83.328C1074.71 83.328 1075.36 83.448 1075.95 83.688C1076.56 83.928 1077.07 84.312 1077.49 84.84C1077.91 85.368 1078.23 86.04 1078.45 86.856C1078.69 87.672 1078.81 88.656 1078.81 89.808V90.264H1070.87V91.056C1070.87 92.272 1071.14 93.184 1071.68 93.792C1072.24 94.384 1073.01 94.68 1073.99 94.68C1074.82 94.68 1075.5 94.504 1076.03 94.152C1076.55 93.784 1076.97 93.24 1077.27 92.52L1078.52 93.432C1078.14 94.28 1077.57 94.968 1076.82 95.496C1076.08 96.024 1075.14 96.288 1073.99 96.288ZM1073.99 84.864C1072.99 84.864 1072.23 85.176 1071.68 85.8C1071.14 86.424 1070.87 87.344 1070.87 88.56V88.872H1076.87V88.56C1076.87 86.096 1075.91 84.864 1073.99 84.864ZM1085.08 96.288C1084.05 96.288 1083.17 96.08 1082.44 95.664C1081.72 95.248 1081.1 94.672 1080.59 93.936L1081.86 92.88C1082.29 93.488 1082.76 93.952 1083.25 94.272C1083.76 94.592 1084.37 94.752 1085.08 94.752C1085.8 94.752 1086.36 94.576 1086.78 94.224C1087.21 93.856 1087.43 93.336 1087.43 92.664C1087.43 92.12 1087.29 91.68 1087.02 91.344C1086.75 91.008 1086.24 90.776 1085.51 90.648L1084.57 90.48C1083.37 90.256 1082.48 89.88 1081.88 89.352C1081.31 88.824 1081.02 88.024 1081.02 86.952C1081.02 86.328 1081.12 85.792 1081.31 85.344C1081.5 84.88 1081.77 84.504 1082.12 84.216C1082.48 83.912 1082.89 83.696 1083.37 83.568C1083.87 83.424 1084.4 83.352 1084.98 83.352C1085.91 83.352 1086.68 83.52 1087.31 83.856C1087.95 84.176 1088.5 84.648 1088.96 85.272L1087.79 86.352C1087.52 85.968 1087.16 85.632 1086.71 85.344C1086.26 85.04 1085.68 84.888 1084.98 84.888C1083.52 84.888 1082.8 85.552 1082.8 86.88C1082.8 87.488 1082.95 87.936 1083.25 88.224C1083.57 88.496 1084.08 88.696 1084.79 88.824L1085.72 88.992C1086.99 89.216 1087.88 89.608 1088.41 90.168C1088.94 90.728 1089.2 91.488 1089.2 92.448C1089.2 93.648 1088.85 94.592 1088.15 95.28C1087.46 95.952 1086.44 96.288 1085.08 96.288ZM1095.41 96.288C1094.39 96.288 1093.51 96.08 1092.77 95.664C1092.05 95.248 1091.44 94.672 1090.92 93.936L1092.2 92.88C1092.63 93.488 1093.09 93.952 1093.59 94.272C1094.1 94.592 1094.71 94.752 1095.41 94.752C1096.13 94.752 1096.7 94.576 1097.12 94.224C1097.55 93.856 1097.76 93.336 1097.76 92.664C1097.76 92.12 1097.63 91.68 1097.36 91.344C1097.08 91.008 1096.58 90.776 1095.84 90.648L1094.91 90.48C1093.71 90.256 1092.81 89.88 1092.22 89.352C1091.64 88.824 1091.36 88.024 1091.36 86.952C1091.36 86.328 1091.45 85.792 1091.64 85.344C1091.84 84.88 1092.11 84.504 1092.46 84.216C1092.81 83.912 1093.23 83.696 1093.71 83.568C1094.2 83.424 1094.74 83.352 1095.32 83.352C1096.24 83.352 1097.02 83.52 1097.64 83.856C1098.28 84.176 1098.84 84.648 1099.3 85.272L1098.12 86.352C1097.85 85.968 1097.49 85.632 1097.04 85.344C1096.6 85.04 1096.02 84.888 1095.32 84.888C1093.86 84.888 1093.13 85.552 1093.13 86.88C1093.13 87.488 1093.28 87.936 1093.59 88.224C1093.91 88.496 1094.42 88.696 1095.12 88.824L1096.06 88.992C1097.32 89.216 1098.22 89.608 1098.75 90.168C1099.28 90.728 1099.54 91.488 1099.54 92.448C1099.54 93.648 1099.19 94.592 1098.48 95.28C1097.8 95.952 1096.77 96.288 1095.41 96.288ZM778.928 123.984H778.688C778.448 124.8 778.056 125.392 777.512 125.76C776.984 126.112 776.336 126.288 775.568 126.288C774.832 126.288 774.184 126.136 773.624 125.832C773.064 125.528 772.592 125.096 772.208 124.536C771.824 123.976 771.536 123.296 771.344 122.496C771.152 121.696 771.056 120.8 771.056 119.808C771.056 118.816 771.152 117.92 771.344 117.12C771.536 116.32 771.824 115.64 772.208 115.08C772.592 114.52 773.064 114.088 773.624 113.784C774.184 113.48 774.832 113.328 775.568 113.328C776.336 113.328 776.984 113.512 777.512 113.88C778.056 114.232 778.448 114.816 778.688 115.632H778.928V108.24H780.752V126H778.928V123.984ZM776.12 124.656C776.504 124.656 776.864 124.6 777.2 124.488C777.552 124.376 777.848 124.216 778.088 124.008C778.344 123.8 778.544 123.552 778.688 123.264C778.848 122.976 778.928 122.656 778.928 122.304V117.312C778.928 116.96 778.848 116.64 778.688 116.352C778.544 116.064 778.344 115.816 778.088 115.608C777.848 115.4 777.552 115.24 777.2 115.128C776.864 115.016 776.504 114.96 776.12 114.96C775.112 114.96 774.344 115.28 773.816 115.92C773.288 116.544 773.024 117.424 773.024 118.56V121.056C773.024 122.192 773.288 123.08 773.816 123.72C774.344 124.344 775.112 124.656 776.12 124.656ZM788.634 126.288C787.914 126.288 787.242 126.168 786.618 125.928C785.994 125.688 785.458 125.304 785.01 124.776C784.562 124.248 784.21 123.576 783.954 122.76C783.698 121.944 783.57 120.96 783.57 119.808C783.57 118.656 783.698 117.672 783.954 116.856C784.21 116.04 784.562 115.368 785.01 114.84C785.458 114.312 785.994 113.928 786.618 113.688C787.242 113.448 787.914 113.328 788.634 113.328C789.354 113.328 790.026 113.448 790.65 113.688C791.274 113.928 791.81 114.312 792.258 114.84C792.706 115.368 793.058 116.04 793.314 116.856C793.57 117.672 793.698 118.656 793.698 119.808C793.698 120.96 793.57 121.944 793.314 122.76C793.058 123.576 792.706 124.248 792.258 124.776C791.81 125.304 791.274 125.688 790.65 125.928C790.026 126.168 789.354 126.288 788.634 126.288ZM788.634 124.656C789.626 124.656 790.386 124.36 790.914 123.768C791.458 123.176 791.73 122.272 791.73 121.056V118.56C791.73 117.344 791.458 116.44 790.914 115.848C790.386 115.256 789.626 114.96 788.634 114.96C787.642 114.96 786.874 115.256 786.33 115.848C785.802 116.44 785.538 117.344 785.538 118.56V121.056C785.538 122.272 785.802 123.176 786.33 123.768C786.874 124.36 787.642 124.656 788.634 124.656ZM796.504 126V113.616H798.328V115.632H798.568C798.808 114.864 799.16 114.288 799.624 113.904C800.088 113.52 800.744 113.328 801.592 113.328C802.36 113.328 803.008 113.52 803.536 113.904C804.08 114.272 804.488 114.848 804.76 115.632H805C805.256 114.864 805.656 114.288 806.2 113.904C806.744 113.52 807.464 113.328 808.36 113.328C809.416 113.328 810.264 113.704 810.904 114.456C811.544 115.208 811.864 116.368 811.864 117.936V126H810.04V118.056C810.04 117.064 809.84 116.304 809.44 115.776C809.056 115.248 808.456 114.984 807.64 114.984C806.92 114.984 806.312 115.208 805.816 115.656C805.336 116.104 805.096 116.736 805.096 117.552V126H803.272V118.056C803.272 117.064 803.072 116.304 802.672 115.776C802.288 115.248 801.688 114.984 800.872 114.984C800.152 114.984 799.544 115.208 799.048 115.656C798.568 116.104 798.328 116.736 798.328 117.552V126H796.504ZM823.218 126C822.034 126 821.442 125.408 821.442 124.224V123.984H821.202C820.994 124.736 820.61 125.312 820.05 125.712C819.506 126.096 818.85 126.288 818.082 126.288C816.882 126.288 815.986 125.984 815.394 125.376C814.802 124.768 814.506 123.872 814.506 122.688C814.506 121.536 814.882 120.624 815.634 119.952C816.402 119.28 817.594 118.944 819.21 118.944H821.442V117.576C821.442 116.664 821.234 115.992 820.818 115.56C820.418 115.128 819.778 114.912 818.898 114.912C818.178 114.912 817.594 115.072 817.146 115.392C816.714 115.696 816.338 116.144 816.018 116.736L814.938 115.728C815.258 115.056 815.77 114.496 816.474 114.048C817.178 113.584 818.01 113.352 818.97 113.352C820.378 113.352 821.442 113.696 822.162 114.384C822.898 115.056 823.266 116.056 823.266 117.384V124.392H824.514V126H823.218ZM818.538 124.704C818.954 124.704 819.338 124.632 819.69 124.488C820.058 124.344 820.37 124.16 820.626 123.936C820.882 123.696 821.082 123.432 821.226 123.144C821.37 122.84 821.442 122.528 821.442 122.208V120.336H819.162C818.202 120.336 817.498 120.496 817.05 120.816C816.618 121.136 816.402 121.6 816.402 122.208V122.88C816.402 123.504 816.594 123.968 816.978 124.272C817.362 124.56 817.882 124.704 818.538 124.704ZM827.908 110.616C827.156 110.616 826.78 110.288 826.78 109.632V109.248C826.78 108.592 827.156 108.264 827.908 108.264C828.66 108.264 829.036 108.592 829.036 109.248V109.632C829.036 110.288 828.66 110.616 827.908 110.616ZM826.996 113.616H828.82V126H826.996V113.616ZM832.457 126V113.616H834.281V115.632H834.521C834.761 114.864 835.129 114.288 835.625 113.904C836.137 113.52 836.825 113.328 837.689 113.328C838.793 113.328 839.657 113.704 840.281 114.456C840.921 115.208 841.241 116.368 841.241 117.936V126H839.417V118.056C839.417 117.064 839.209 116.304 838.793 115.776C838.393 115.248 837.769 114.984 836.921 114.984C836.185 114.984 835.561 115.208 835.049 115.656C834.537 116.104 834.281 116.736 834.281 117.552V126H832.457ZM852.586 126C851.402 126 850.81 125.408 850.81 124.224V123.984H850.57C850.362 124.736 849.978 125.312 849.418 125.712C848.874 126.096 848.218 126.288 847.45 126.288C846.25 126.288 845.354 125.984 844.762 125.376C844.17 124.768 843.874 123.872 843.874 122.688C843.874 121.536 844.25 120.624 845.002 119.952C845.77 119.28 846.962 118.944 848.578 118.944H850.81V117.576C850.81 116.664 850.602 115.992 850.186 115.56C849.786 115.128 849.146 114.912 848.266 114.912C847.546 114.912 846.962 115.072 846.514 115.392C846.082 115.696 845.706 116.144 845.386 116.736L844.306 115.728C844.626 115.056 845.138 114.496 845.842 114.048C846.546 113.584 847.378 113.352 848.338 113.352C849.746 113.352 850.81 113.696 851.53 114.384C852.266 115.056 852.634 116.056 852.634 117.384V124.392H853.882V126H852.586ZM847.906 124.704C848.322 124.704 848.706 124.632 849.058 124.488C849.426 124.344 849.738 124.16 849.993 123.936C850.25 123.696 850.45 123.432 850.594 123.144C850.738 122.84 850.81 122.528 850.81 122.208V120.336H848.53C847.57 120.336 846.866 120.496 846.418 120.816C845.986 121.136 845.77 121.6 845.77 122.208V122.88C845.77 123.504 845.962 123.968 846.346 124.272C846.73 124.56 847.25 124.704 847.906 124.704ZM863.467 123.984H863.227C862.987 124.8 862.595 125.392 862.051 125.76C861.523 126.112 860.875 126.288 860.107 126.288C859.371 126.288 858.723 126.136 858.163 125.832C857.603 125.528 857.131 125.096 856.747 124.536C856.363 123.976 856.075 123.296 855.883 122.496C855.691 121.696 855.595 120.8 855.595 119.808C855.595 118.816 855.691 117.92 855.883 117.12C856.075 116.32 856.363 115.64 856.747 115.08C857.131 114.52 857.603 114.088 858.163 113.784C858.723 113.48 859.371 113.328 860.107 113.328C860.875 113.328 861.523 113.512 862.051 113.88C862.595 114.232 862.987 114.816 863.227 115.632H863.467V108.24H865.291V126H863.467V123.984ZM860.659 124.656C861.043 124.656 861.403 124.6 861.739 124.488C862.091 124.376 862.387 124.216 862.627 124.008C862.883 123.8 863.083 123.552 863.227 123.264C863.387 122.976 863.467 122.656 863.467 122.304V117.312C863.467 116.96 863.387 116.64 863.227 116.352C863.083 116.064 862.883 115.816 862.627 115.608C862.387 115.4 862.091 115.24 861.739 115.128C861.403 115.016 861.043 114.96 860.659 114.96C859.651 114.96 858.883 115.28 858.355 115.92C857.827 116.544 857.563 117.424 857.563 118.56V121.056C857.563 122.192 857.827 123.08 858.355 123.72C858.883 124.344 859.651 124.656 860.659 124.656ZM876.773 126C875.589 126 874.997 125.408 874.997 124.224V123.984H874.757C874.549 124.736 874.165 125.312 873.605 125.712C873.061 126.096 872.405 126.288 871.637 126.288C870.437 126.288 869.541 125.984 868.949 125.376C868.357 124.768 868.061 123.872 868.061 122.688C868.061 121.536 868.437 120.624 869.189 119.952C869.957 119.28 871.149 118.944 872.765 118.944H874.997V117.576C874.997 116.664 874.789 115.992 874.373 115.56C873.973 115.128 873.333 114.912 872.453 114.912C871.733 114.912 871.149 115.072 870.701 115.392C870.269 115.696 869.893 116.144 869.573 116.736L868.493 115.728C868.813 115.056 869.325 114.496 870.029 114.048C870.733 113.584 871.565 113.352 872.525 113.352C873.933 113.352 874.997 113.696 875.717 114.384C876.453 115.056 876.821 116.056 876.821 117.384V124.392H878.069V126H876.773ZM872.093 124.704C872.509 124.704 872.893 124.632 873.245 124.488C873.613 124.344 873.925 124.16 874.181 123.936C874.437 123.696 874.637 123.432 874.781 123.144C874.925 122.84 874.997 122.528 874.997 122.208V120.336H872.717C871.757 120.336 871.053 120.496 870.605 120.816C870.173 121.136 869.957 121.6 869.957 122.208V122.88C869.957 123.504 870.149 123.968 870.533 124.272C870.917 124.56 871.437 124.704 872.093 124.704ZM880.551 113.616H882.375V115.632H882.615C882.855 114.816 883.239 114.232 883.767 113.88C884.311 113.512 884.967 113.328 885.735 113.328C886.471 113.328 887.119 113.48 887.679 113.784C888.239 114.088 888.711 114.52 889.095 115.08C889.479 115.64 889.767 116.32 889.959 117.12C890.151 117.92 890.247 118.816 890.247 119.808C890.247 120.8 890.151 121.696 889.959 122.496C889.767 123.296 889.479 123.976 889.095 124.536C888.711 125.096 888.239 125.528 887.679 125.832C887.119 126.136 886.471 126.288 885.735 126.288C884.967 126.288 884.311 126.112 883.767 125.76C883.239 125.392 882.855 124.8 882.615 123.984H882.375V130.8H880.551V113.616ZM885.183 124.656C886.191 124.656 886.959 124.344 887.487 123.72C888.015 123.08 888.279 122.192 888.279 121.056V118.56C888.279 117.424 888.015 116.544 887.487 115.92C886.959 115.28 886.191 114.96 885.183 114.96C884.799 114.96 884.431 115.016 884.079 115.128C883.743 115.24 883.447 115.4 883.191 115.608C882.951 115.816 882.751 116.064 882.591 116.352C882.447 116.64 882.375 116.96 882.375 117.312V122.304C882.375 122.656 882.447 122.976 882.591 123.264C882.751 123.552 882.951 123.8 883.191 124.008C883.447 124.216 883.743 124.376 884.079 124.488C884.431 124.6 884.799 124.656 885.183 124.656ZM895.586 126C894.93 126 894.45 125.856 894.146 125.568C893.858 125.264 893.714 124.784 893.714 124.128V115.224H891.89V113.616H892.97C893.338 113.616 893.578 113.528 893.69 113.352C893.818 113.16 893.882 112.88 893.882 112.512V110.208H895.538V113.616H897.938V115.224H895.538V124.392H897.818V126H895.586ZM908.554 126C907.37 126 906.778 125.408 906.778 124.224V123.984H906.538C906.33 124.736 905.946 125.312 905.386 125.712C904.842 126.096 904.186 126.288 903.418 126.288C902.218 126.288 901.322 125.984 900.73 125.376C900.138 124.768 899.842 123.872 899.842 122.688C899.842 121.536 900.218 120.624 900.97 119.952C901.738 119.28 902.93 118.944 904.546 118.944H906.778V117.576C906.778 116.664 906.57 115.992 906.154 115.56C905.754 115.128 905.114 114.912 904.234 114.912C903.514 114.912 902.93 115.072 902.482 115.392C902.05 115.696 901.674 116.144 901.354 116.736L900.274 115.728C900.594 115.056 901.106 114.496 901.81 114.048C902.514 113.584 903.346 113.352 904.306 113.352C905.714 113.352 906.778 113.696 907.498 114.384C908.234 115.056 908.602 116.056 908.602 117.384V124.392H909.85V126H908.554ZM903.874 124.704C904.29 124.704 904.674 124.632 905.026 124.488C905.394 124.344 905.706 124.16 905.962 123.936C906.218 123.696 906.418 123.432 906.562 123.144C906.706 122.84 906.778 122.528 906.778 122.208V120.336H904.498C903.538 120.336 902.834 120.496 902.386 120.816C901.954 121.136 901.738 121.6 901.738 122.208V122.88C901.738 123.504 901.93 123.968 902.314 124.272C902.698 124.56 903.218 124.704 903.874 124.704ZM914.804 126C914.148 126 913.668 125.856 913.364 125.568C913.076 125.264 912.932 124.784 912.932 124.128V115.224H911.108V113.616H912.188C912.556 113.616 912.796 113.528 912.908 113.352C913.036 113.16 913.1 112.88 913.1 112.512V110.208H914.756V113.616H917.156V115.224H914.756V124.392H917.036V126H914.804ZM920.861 110.616C920.109 110.616 919.733 110.288 919.733 109.632V109.248C919.733 108.592 920.109 108.264 920.861 108.264C921.613 108.264 921.989 108.592 921.989 109.248V109.632C921.989 110.288 921.613 110.616 920.861 110.616ZM919.949 113.616H921.773V126H919.949V113.616ZM929.634 126.288C928.914 126.288 928.242 126.168 927.618 125.928C926.994 125.688 926.458 125.304 926.01 124.776C925.562 124.248 925.21 123.576 924.954 122.76C924.698 121.944 924.57 120.96 924.57 119.808C924.57 118.656 924.698 117.672 924.954 116.856C925.21 116.04 925.562 115.368 926.01 114.84C926.458 114.312 926.994 113.928 927.618 113.688C928.242 113.448 928.914 113.328 929.634 113.328C930.354 113.328 931.026 113.448 931.65 113.688C932.274 113.928 932.81 114.312 933.258 114.84C933.706 115.368 934.058 116.04 934.314 116.856C934.57 117.672 934.698 118.656 934.698 119.808C934.698 120.96 934.57 121.944 934.314 122.76C934.058 123.576 933.706 124.248 933.258 124.776C932.81 125.304 932.274 125.688 931.65 125.928C931.026 126.168 930.354 126.288 929.634 126.288ZM929.634 124.656C930.626 124.656 931.386 124.36 931.914 123.768C932.458 123.176 932.73 122.272 932.73 121.056V118.56C932.73 117.344 932.458 116.44 931.914 115.848C931.386 115.256 930.626 114.96 929.634 114.96C928.642 114.96 927.874 115.256 927.33 115.848C926.802 116.44 926.538 117.344 926.538 118.56V121.056C926.538 122.272 926.802 123.176 927.33 123.768C927.874 124.36 928.642 124.656 929.634 124.656ZM937.504 126V113.616H939.328V115.632H939.568C939.808 114.864 940.176 114.288 940.672 113.904C941.184 113.52 941.872 113.328 942.736 113.328C943.84 113.328 944.704 113.704 945.328 114.456C945.968 115.208 946.288 116.368 946.288 117.936V126H944.464V118.056C944.464 117.064 944.256 116.304 943.84 115.776C943.44 115.248 942.816 114.984 941.968 114.984C941.232 114.984 940.608 115.208 940.096 115.656C939.584 116.104 939.328 116.736 939.328 117.552V126H937.504ZM950.96 126.288C950.016 126.288 949.544 125.88 949.544 125.064V124.68C949.544 123.864 950.016 123.456 950.96 123.456C951.904 123.456 952.376 123.864 952.376 124.68V125.064C952.376 125.88 951.904 126.288 950.96 126.288ZM959.376 126.288C958.656 126.288 957.984 126.168 957.36 125.928C956.736 125.688 956.2 125.304 955.752 124.776C955.304 124.248 954.952 123.576 954.696 122.76C954.44 121.944 954.312 120.96 954.312 119.808C954.312 118.656 954.44 117.672 954.696 116.856C954.952 116.04 955.304 115.368 955.752 114.84C956.2 114.312 956.736 113.928 957.36 113.688C957.984 113.448 958.656 113.328 959.376 113.328C960.096 113.328 960.768 113.448 961.392 113.688C962.016 113.928 962.552 114.312 963 114.84C963.448 115.368 963.8 116.04 964.056 116.856C964.312 117.672 964.44 118.656 964.44 119.808C964.44 120.96 964.312 121.944 964.056 122.76C963.8 123.576 963.448 124.248 963 124.776C962.552 125.304 962.016 125.688 961.392 125.928C960.768 126.168 960.096 126.288 959.376 126.288ZM959.376 124.656C960.368 124.656 961.128 124.36 961.656 123.768C962.2 123.176 962.472 122.272 962.472 121.056V118.56C962.472 117.344 962.2 116.44 961.656 115.848C961.128 115.256 960.368 114.96 959.376 114.96C958.384 114.96 957.616 115.256 957.072 115.848C956.544 116.44 956.28 117.344 956.28 118.56V121.056C956.28 122.272 956.544 123.176 957.072 123.768C957.616 124.36 958.384 124.656 959.376 124.656ZM967.246 126V113.616H969.07V115.92H969.31C969.518 115.2 969.87 114.64 970.366 114.24C970.878 113.824 971.542 113.616 972.358 113.616H973.03V115.464H971.83C970.966 115.464 970.286 115.656 969.79 116.04C969.31 116.424 969.07 117 969.07 117.768V126H967.246ZM984.296 127.392C984.296 128.704 983.848 129.648 982.952 130.224C982.072 130.8 980.704 131.088 978.848 131.088C977.072 131.088 975.8 130.824 975.032 130.296C974.28 129.768 973.904 129.008 973.904 128.016C973.904 127.344 974.072 126.816 974.408 126.432C974.744 126.048 975.176 125.808 975.704 125.712V125.376C975.384 125.2 975.128 124.976 974.936 124.704C974.76 124.416 974.672 124.08 974.672 123.696C974.672 123.184 974.816 122.744 975.104 122.376C975.408 122.008 975.896 121.784 976.568 121.704V121.44C975.928 121.12 975.424 120.648 975.056 120.024C974.704 119.384 974.528 118.584 974.528 117.624C974.528 116.216 974.912 115.152 975.68 114.432C976.448 113.712 977.48 113.352 978.776 113.352C979.544 113.352 980.24 113.488 980.864 113.76V113.328C980.864 112.864 980.968 112.528 981.176 112.32C981.384 112.112 981.72 112.008 982.184 112.008H983.84V113.616H981.704V114.288C982.12 114.656 982.44 115.112 982.664 115.656C982.904 116.2 983.024 116.856 983.024 117.624C983.024 119.032 982.64 120.096 981.872 120.816C981.104 121.536 980.072 121.896 978.776 121.896C978.392 121.896 978 121.856 977.6 121.776C977.152 121.856 976.808 122.04 976.568 122.328C976.344 122.6 976.232 122.88 976.232 123.168C976.232 123.488 976.344 123.728 976.568 123.888C976.792 124.048 977.16 124.128 977.672 124.128H980.384C981.776 124.128 982.776 124.408 983.384 124.968C983.992 125.528 984.296 126.336 984.296 127.392ZM982.592 127.512C982.592 126.968 982.424 126.552 982.088 126.264C981.752 125.992 981.176 125.856 980.36 125.856H976.592C976.224 126.032 975.96 126.256 975.8 126.528C975.656 126.8 975.584 127.144 975.584 127.56C975.584 128.184 975.776 128.672 976.16 129.024C976.544 129.392 977.16 129.576 978.008 129.576H979.592C980.584 129.576 981.328 129.408 981.824 129.072C982.336 128.752 982.592 128.232 982.592 127.512ZM978.776 120.408C979.528 120.408 980.112 120.216 980.528 119.832C980.944 119.448 981.152 118.856 981.152 118.056V117.168C981.152 116.368 980.944 115.776 980.528 115.392C980.112 115.008 979.528 114.816 978.776 114.816C978.024 114.816 977.44 115.008 977.024 115.392C976.608 115.776 976.4 116.368 976.4 117.168V118.056C976.4 118.856 976.608 119.448 977.024 119.832C977.44 120.216 978.024 120.408 978.776 120.408ZM985.395 129.624L991.083 108.24H992.691L987.003 129.624H985.395ZM995.043 126V113.616H996.867V115.92H997.107C997.315 115.2 997.667 114.64 998.163 114.24C998.675 113.824 999.339 113.616 1000.15 113.616H1000.83V115.464H999.627C998.763 115.464 998.083 115.656 997.587 116.04C997.107 116.424 996.867 117 996.867 117.768V126H995.043ZM1007.19 126.288C1006.47 126.288 1005.8 126.168 1005.17 125.928C1004.55 125.688 1004.01 125.304 1003.56 124.776C1003.12 124.248 1002.76 123.576 1002.51 122.76C1002.25 121.944 1002.12 120.96 1002.12 119.808C1002.12 118.656 1002.25 117.672 1002.51 116.856C1002.76 116.04 1003.12 115.368 1003.56 114.84C1004.01 114.312 1004.55 113.928 1005.17 113.688C1005.8 113.448 1006.47 113.328 1007.19 113.328C1007.91 113.328 1008.58 113.448 1009.2 113.688C1009.83 113.928 1010.36 114.312 1010.81 114.84C1011.26 115.368 1011.61 116.04 1011.87 116.856C1012.12 117.672 1012.25 118.656 1012.25 119.808C1012.25 120.96 1012.12 121.944 1011.87 122.76C1011.61 123.576 1011.26 124.248 1010.81 124.776C1010.36 125.304 1009.83 125.688 1009.2 125.928C1008.58 126.168 1007.91 126.288 1007.19 126.288ZM1007.19 124.656C1008.18 124.656 1008.94 124.36 1009.47 123.768C1010.01 123.176 1010.28 122.272 1010.28 121.056V118.56C1010.28 117.344 1010.01 116.44 1009.47 115.848C1008.94 115.256 1008.18 114.96 1007.19 114.96C1006.2 114.96 1005.43 115.256 1004.88 115.848C1004.36 116.44 1004.09 117.344 1004.09 118.56V121.056C1004.09 122.272 1004.36 123.176 1004.88 123.768C1005.43 124.36 1006.2 124.656 1007.19 124.656ZM1015.06 108.24H1016.88V115.632H1017.12C1017.36 114.816 1017.75 114.232 1018.27 113.88C1018.82 113.512 1019.47 113.328 1020.24 113.328C1020.98 113.328 1021.63 113.48 1022.19 113.784C1022.75 114.088 1023.22 114.52 1023.6 115.08C1023.99 115.64 1024.27 116.32 1024.47 117.12C1024.66 117.92 1024.75 118.816 1024.75 119.808C1024.75 120.8 1024.66 121.696 1024.47 122.496C1024.27 123.296 1023.99 123.976 1023.6 124.536C1023.22 125.096 1022.75 125.528 1022.19 125.832C1021.63 126.136 1020.98 126.288 1020.24 126.288C1019.47 126.288 1018.82 126.112 1018.27 125.76C1017.75 125.392 1017.36 124.8 1017.12 123.984H1016.88V126H1015.06V108.24ZM1019.69 124.656C1020.7 124.656 1021.47 124.344 1021.99 123.72C1022.52 123.08 1022.79 122.192 1022.79 121.056V118.56C1022.79 117.424 1022.52 116.544 1021.99 115.92C1021.47 115.28 1020.7 114.96 1019.69 114.96C1019.31 114.96 1018.94 115.016 1018.59 115.128C1018.25 115.24 1017.95 115.4 1017.7 115.608C1017.46 115.816 1017.26 116.064 1017.1 116.352C1016.95 116.64 1016.88 116.96 1016.88 117.312V122.304C1016.88 122.656 1016.95 122.976 1017.1 123.264C1017.26 123.552 1017.46 123.8 1017.7 124.008C1017.95 124.216 1018.25 124.376 1018.59 124.488C1018.94 124.6 1019.31 124.656 1019.69 124.656ZM1034.48 123.984H1034.24C1034 124.752 1033.63 125.328 1033.12 125.712C1032.62 126.096 1031.94 126.288 1031.08 126.288C1029.97 126.288 1029.1 125.912 1028.46 125.16C1027.84 124.408 1027.52 123.248 1027.52 121.68V113.616H1029.35V121.56C1029.35 122.552 1029.55 123.312 1029.95 123.84C1030.36 124.368 1031 124.632 1031.84 124.632C1032.58 124.632 1033.2 124.408 1033.72 123.96C1034.23 123.512 1034.48 122.88 1034.48 122.064V113.616H1036.31V126H1034.48V123.984ZM1043.38 126.288C1042.36 126.288 1041.48 126.08 1040.74 125.664C1040.02 125.248 1039.41 124.672 1038.89 123.936L1040.17 122.88C1040.6 123.488 1041.06 123.952 1041.56 124.272C1042.07 124.592 1042.68 124.752 1043.38 124.752C1044.1 124.752 1044.67 124.576 1045.09 124.224C1045.52 123.856 1045.73 123.336 1045.73 122.664C1045.73 122.12 1045.6 121.68 1045.33 121.344C1045.05 121.008 1044.55 120.776 1043.81 120.648L1042.88 120.48C1041.68 120.256 1040.78 119.88 1040.19 119.352C1039.61 118.824 1039.33 118.024 1039.33 116.952C1039.33 116.328 1039.42 115.792 1039.61 115.344C1039.81 114.88 1040.08 114.504 1040.43 114.216C1040.78 113.912 1041.2 113.696 1041.68 113.568C1042.17 113.424 1042.71 113.352 1043.29 113.352C1044.21 113.352 1044.99 113.52 1045.61 113.856C1046.25 114.176 1046.81 114.648 1047.27 115.272L1046.09 116.352C1045.82 115.968 1045.46 115.632 1045.01 115.344C1044.57 115.04 1043.99 114.888 1043.29 114.888C1041.83 114.888 1041.1 115.552 1041.1 116.88C1041.1 117.488 1041.25 117.936 1041.56 118.224C1041.88 118.496 1042.39 118.696 1043.09 118.824L1044.03 118.992C1045.29 119.216 1046.19 119.608 1046.72 120.168C1047.25 120.728 1047.51 121.488 1047.51 122.448C1047.51 123.648 1047.16 124.592 1046.45 125.28C1045.77 125.952 1044.74 126.288 1043.38 126.288ZM1052.95 126C1052.29 126 1051.81 125.856 1051.51 125.568C1051.22 125.264 1051.07 124.784 1051.07 124.128V115.224H1049.25V113.616H1050.33C1050.7 113.616 1050.94 113.528 1051.05 113.352C1051.18 113.16 1051.24 112.88 1051.24 112.512V110.208H1052.9V113.616H1055.3V115.224H1052.9V124.392H1055.18V126H1052.95ZM1065.91 126C1064.73 126 1064.14 125.408 1064.14 124.224V123.984H1063.9C1063.69 124.736 1063.31 125.312 1062.75 125.712C1062.2 126.096 1061.55 126.288 1060.78 126.288C1059.58 126.288 1058.68 125.984 1058.09 125.376C1057.5 124.768 1057.2 123.872 1057.2 122.688C1057.2 121.536 1057.58 120.624 1058.33 119.952C1059.1 119.28 1060.29 118.944 1061.91 118.944H1064.14V117.576C1064.14 116.664 1063.93 115.992 1063.51 115.56C1063.11 115.128 1062.47 114.912 1061.59 114.912C1060.87 114.912 1060.29 115.072 1059.84 115.392C1059.41 115.696 1059.03 116.144 1058.71 116.736L1057.63 115.728C1057.95 115.056 1058.47 114.496 1059.17 114.048C1059.87 113.584 1060.71 113.352 1061.67 113.352C1063.07 113.352 1064.14 113.696 1064.86 114.384C1065.59 115.056 1065.96 116.056 1065.96 117.384V124.392H1067.21V126H1065.91ZM1061.23 124.704C1061.65 124.704 1062.03 124.632 1062.39 124.488C1062.75 124.344 1063.07 124.16 1063.32 123.936C1063.58 123.696 1063.78 123.432 1063.92 123.144C1064.07 122.84 1064.14 122.528 1064.14 122.208V120.336H1061.86C1060.9 120.336 1060.19 120.496 1059.75 120.816C1059.31 121.136 1059.1 121.6 1059.1 122.208V122.88C1059.1 123.504 1059.29 123.968 1059.67 124.272C1060.06 124.56 1060.58 124.704 1061.23 124.704Z" fill="#545454"/>
<path d="M747.031 96.7404C747.031 96.852 746.906 96.9413 746.748 96.9413C746.568 96.9581 746.443 96.8688 746.443 96.7404C746.443 96.6287 746.568 96.5394 746.726 96.5394C746.889 96.5226 747.031 96.6119 747.031 96.7404ZM745.338 96.4891C745.3 96.6008 745.409 96.7292 745.572 96.7627C745.714 96.8185 745.877 96.7627 745.909 96.651C745.942 96.5394 745.839 96.411 745.675 96.3607C745.534 96.3216 745.376 96.3775 745.338 96.4891ZM747.744 96.3942C747.586 96.4333 747.477 96.5394 747.494 96.6678C747.51 96.7794 747.651 96.852 747.815 96.8129C747.973 96.7739 748.081 96.6678 748.065 96.5561C748.049 96.45 747.902 96.3775 747.744 96.3942ZM751.326 75C743.776 75 738 80.8789 738 88.6226C738 94.8142 741.8 100.113 747.227 101.977C747.924 102.106 748.169 101.665 748.169 101.302C748.169 100.956 748.152 99.0462 748.152 97.8737C748.152 97.8737 744.342 98.7112 743.542 96.21C743.542 96.21 742.921 94.5853 742.028 94.1666C742.028 94.1666 740.782 93.29 742.115 93.3068C742.115 93.3068 743.471 93.4185 744.217 94.7472C745.409 96.9023 747.406 96.2826 748.185 95.9141C748.31 95.0208 748.664 94.4011 749.056 94.0326C746.013 93.6864 742.943 93.2342 742.943 87.8633C742.943 86.328 743.356 85.5575 744.227 84.5749C744.086 84.212 743.623 82.7158 744.369 80.784C745.507 80.4211 748.125 82.2915 748.125 82.2915C749.214 81.9788 750.384 81.8169 751.544 81.8169C752.703 81.8169 753.873 81.9788 754.962 82.2915C754.962 82.2915 757.58 80.4155 758.718 80.784C759.464 82.7213 759.001 84.212 758.86 84.5749C759.731 85.5631 760.264 86.3336 760.264 87.8633C760.264 93.251 757.058 93.6809 754.015 94.0326C754.516 94.4736 754.94 95.3111 754.94 96.6231C754.94 98.5046 754.924 100.833 754.924 101.291C754.924 101.653 755.174 102.094 755.866 101.966C761.309 100.113 765 94.8142 765 88.6226C765 80.8789 758.876 75 751.326 75ZM743.291 94.2559C743.22 94.3117 743.237 94.4401 743.329 94.5462C743.416 94.6356 743.542 94.6746 743.612 94.6021C743.683 94.5462 743.667 94.4178 743.574 94.3117C743.487 94.2224 743.362 94.1833 743.291 94.2559ZM742.703 93.8037C742.665 93.8763 742.72 93.9656 742.828 94.0214C742.916 94.0772 743.024 94.0605 743.063 93.9823C743.101 93.9098 743.046 93.8204 742.937 93.7646C742.828 93.7311 742.741 93.7478 742.703 93.8037ZM744.467 95.7912C744.38 95.8638 744.412 96.0313 744.538 96.1374C744.663 96.2658 744.821 96.2826 744.892 96.1932C744.962 96.1206 744.93 95.9532 744.821 95.8471C744.701 95.7187 744.538 95.7019 744.467 95.7912ZM743.846 94.9705C743.759 95.0264 743.759 95.1715 743.846 95.2999C743.933 95.4283 744.08 95.4842 744.151 95.4283C744.238 95.3558 744.238 95.2106 744.151 95.0822C744.075 94.9538 743.933 94.898 743.846 94.9705Z" fill="#EE4C2C"/>
<g clip-path="url(#clip0)">
<path d="M755.223 114.776C758.374 117.93 758.331 122.987 755.242 126.092C755.236 126.099 755.23 126.105 755.223 126.112L751.679 129.656C748.554 132.781 743.469 132.781 740.344 129.656C737.218 126.531 737.218 121.445 740.344 118.32L742.3 116.363C742.819 115.844 743.713 116.189 743.74 116.922C743.774 117.857 743.942 118.796 744.251 119.703C744.356 120.01 744.281 120.349 744.051 120.579L743.361 121.269C741.883 122.747 741.837 125.153 743.3 126.645C744.778 128.153 747.207 128.162 748.696 126.672L752.24 123.129C753.727 121.643 753.72 119.24 752.24 117.759C752.045 117.564 751.848 117.413 751.695 117.307C751.586 117.233 751.496 117.134 751.433 117.018C751.369 116.903 751.333 116.774 751.328 116.643C751.307 116.085 751.505 115.511 751.945 115.071L753.056 113.96C753.347 113.669 753.803 113.634 754.141 113.869C754.528 114.139 754.89 114.443 755.223 114.776V114.776ZM762.655 107.344C759.53 104.218 754.445 104.218 751.32 107.344L747.776 110.887C747.769 110.894 747.763 110.9 747.757 110.907C744.668 114.012 744.625 119.069 747.776 122.223C748.109 122.556 748.471 122.86 748.858 123.13C749.196 123.365 749.652 123.33 749.943 123.039L751.054 121.928C751.494 121.488 751.691 120.914 751.671 120.356C751.666 120.225 751.63 120.096 751.566 119.981C751.503 119.865 751.413 119.766 751.304 119.692C751.151 119.586 750.954 119.435 750.759 119.24C749.279 117.759 749.272 115.357 750.759 113.87L754.303 110.327C755.792 108.837 758.221 108.846 759.699 110.354C761.162 111.846 761.116 114.252 759.638 115.73L758.948 116.42C758.718 116.65 758.643 116.989 758.748 117.297C759.057 118.203 759.225 119.142 759.259 120.077C759.286 120.81 760.18 121.155 760.699 120.636L762.655 118.679C765.781 115.554 765.781 110.469 762.655 107.344V107.344Z" fill="#EE4C2C"/>
</g>
<defs>
<clipPath id="clip0">
<rect width="27" height="27" fill="white" transform="translate(738 105)"/>
</clipPath>
</defs>
</svg>

